<?xml version="1.0" encoding="UTF-8"?>
<svg xmlns="http://www.w3.org/2000/svg" xmlns:xlink="http://www.w3.org/1999/xlink" width="300px" height="232px" viewBox="0 0 300 232" version="1.1">
<g id="surface1">
<path style=" stroke:none;fill-rule:nonzero;fill:rgb(20.392157%,25.882353%,46.666667%);fill-opacity:1;" d="M 111.035156 139.324219 C 107.40625 139.132812 103.960938 138.324219 100.699219 136.90625 C 96.929688 135.265625 93.636719 133.039062 90.820312 130.222656 C 88.007812 127.40625 85.78125 124.109375 84.140625 120.335938 C 82.675781 116.960938 81.863281 113.363281 81.707031 109.550781 L 93.199219 109.550781 C 93.34375 111.792969 93.851562 113.9375 94.714844 115.988281 C 95.753906 118.449219 97.148438 120.625 98.921875 122.511719 C 100.699219 124.398438 102.773438 125.902344 105.136719 127.023438 C 107 127.898438 108.960938 128.433594 111.035156 128.625 Z M 81.710938 106.808594 C 81.871094 103.050781 82.679688 99.480469 84.140625 96.09375 C 85.78125 92.292969 88.007812 88.984375 90.820312 86.167969 C 93.636719 83.351562 96.929688 81.125 100.699219 79.484375 C 104.46875 77.84375 108.484375 77.023438 112.75 77.023438 C 117.066406 77.023438 121.109375 77.84375 124.878906 79.484375 C 128.652344 81.125 131.941406 83.351562 134.757812 86.167969 C 135.277344 86.691406 135.777344 87.226562 136.261719 87.785156 C 128.4375 87.785156 120.613281 87.769531 112.789062 87.769531 C 110.058594 87.769531 107.515625 88.328125 105.136719 89.449219 C 102.773438 90.570312 100.699219 92.0625 98.921875 93.921875 C 97.148438 95.78125 95.753906 97.953125 94.714844 100.441406 C 93.855469 102.5 93.355469 104.621094 93.203125 106.808594 Z M 114.902344 128.585938 C 116.847656 128.371094 118.6875 127.847656 120.441406 127.023438 C 122.804688 125.902344 124.878906 124.398438 126.65625 122.511719 C 128.433594 120.625 129.824219 118.449219 130.863281 115.988281 C 131.902344 113.527344 132.421875 110.929688 132.421875 108.195312 C 132.421875 105.515625 131.902344 102.929688 130.863281 100.441406 C 129.824219 97.953125 128.433594 95.78125 126.65625 93.921875 C 126.066406 93.304688 125.445312 92.730469 124.792969 92.195312 L 139.449219 92.195312 C 140.1875 93.433594 140.851562 94.730469 141.4375 96.09375 C 143.078125 99.894531 143.898438 103.929688 143.898438 108.195312 C 143.898438 112.515625 143.078125 116.5625 141.4375 120.335938 C 139.796875 124.109375 137.570312 127.40625 134.757812 130.222656 C 131.941406 133.039062 128.652344 135.265625 124.878906 136.90625 C 121.742188 138.273438 118.417969 139.070312 114.902344 139.296875 Z M 114.902344 128.585938 "/>
<path style=" stroke:none;fill-rule:nonzero;fill:rgb(20.392157%,25.882353%,46.666667%);fill-opacity:1;" d="M 184.53125 130.097656 L 190.761719 120.910156 C 193.765625 122.988281 196.867188 124.78125 200.066406 126.285156 C 203.261719 127.789062 206.609375 128.539062 210.105469 128.539062 C 211.964844 128.539062 213.605469 128.308594 215.023438 127.84375 C 216.445312 127.378906 217.648438 126.777344 218.632812 126.039062 C 219.617188 125.300781 220.351562 124.453125 220.84375 123.496094 C 221.335938 122.539062 221.582031 121.59375 221.582031 120.664062 C 221.582031 119.460938 221.214844 118.4375 220.476562 117.589844 C 219.738281 116.742188 218.753906 116.042969 217.523438 115.496094 C 216.296875 114.949219 214.847656 114.484375 213.179688 114.101562 C 211.515625 113.71875 209.777344 113.363281 207.976562 113.035156 C 206.773438 112.816406 205.378906 112.558594 203.796875 112.253906 C 202.210938 111.957031 200.570312 111.542969 198.875 111.023438 C 197.183594 110.503906 195.515625 109.820312 193.875 108.972656 C 192.238281 108.125 190.761719 107.058594 189.449219 105.773438 C 188.136719 104.488281 187.085938 102.957031 186.292969 101.179688 C 185.503906 99.402344 185.105469 97.3125 185.105469 94.90625 C 185.105469 93.960938 185.15625 93.054688 185.261719 92.195312 L 197.097656 92.195312 C 196.753906 92.851562 196.582031 93.589844 196.582031 94.414062 C 196.582031 95.617188 197.019531 96.628906 197.894531 97.449219 C 198.765625 98.269531 199.886719 98.953125 201.253906 99.5 C 202.621094 100.046875 204.121094 100.511719 205.761719 100.894531 C 207.402344 101.277344 208.988281 101.660156 210.515625 102.042969 C 211.664062 102.316406 213.015625 102.589844 214.574219 102.863281 C 216.132812 103.136719 217.742188 103.519531 219.410156 104.011719 C 221.078125 104.503906 222.730469 105.160156 224.371094 105.980469 C 226.007812 106.800781 227.472656 107.851562 228.753906 109.136719 C 230.039062 110.421875 231.078125 112.007812 231.871094 113.898438 C 232.664062 115.785156 233.058594 118.066406 233.058594 120.746094 C 233.058594 123.863281 232.511719 126.570312 231.417969 128.867188 C 230.324219 131.164062 228.769531 133.066406 226.746094 134.570312 C 224.726562 136.074219 222.320312 137.207031 219.535156 137.972656 C 216.746094 138.738281 213.660156 139.121094 210.269531 139.121094 C 207.15625 139.121094 204.410156 138.890625 202.03125 138.425781 C 199.65625 137.960938 197.484375 137.332031 195.515625 136.539062 C 193.546875 135.746094 191.691406 134.800781 189.941406 133.707031 C 188.191406 132.613281 186.390625 131.410156 184.53125 130.097656 Z M 184.53125 130.097656 "/>
<path style=" stroke:none;fill-rule:nonzero;fill:rgb(20.392157%,25.882353%,46.666667%);fill-opacity:1;" d="M 166.121094 87.761719 L 166.058594 137.070312 L 154.582031 137.070312 L 154.644531 87.761719 L 112.808594 87.761719 L 112.75 77.023438 L 210.355469 77.023438 L 205.523438 87.761719 Z M 166.121094 87.761719 "/>
<path style=" stroke:none;fill-rule:evenodd;fill:rgb(0%,68.627451%,93.72549%);fill-opacity:1;" d="M 113.082031 96.988281 C 109.0625 96.988281 106.0625 98.753906 103.765625 101.808594 C 103.289062 102.441406 102.363281 104.039062 102.28125 104.992188 L 73.621094 104.992188 C 72.28125 104.992188 70.050781 104.8125 69.007812 105.179688 C 66.457031 106.082031 66.09375 109.933594 68.90625 111.175781 C 70.011719 111.664062 72.0625 111.398438 73.488281 111.398438 L 102.28125 111.398438 C 102.441406 113.300781 104.648438 115.90625 105.859375 116.886719 C 107.773438 118.433594 110.078125 119.28125 112.414062 119.402344 L 113.589844 119.402344 C 115.652344 119.292969 117.6875 118.621094 119.445312 117.367188 C 119.734375 117.15625 119.925781 117.011719 120.179688 116.765625 C 120.988281 115.996094 121.304688 115.824219 122.109375 114.695312 C 123.433594 112.84375 124.078125 110.761719 124.144531 108.691406 L 124.144531 107.949219 C 123.957031 102.304688 119.550781 96.988281 113.082031 96.988281 Z M 103.703125 109.554688 C 101.914062 109.554688 72.996094 109.453125 71.960938 109.570312 C 69.453125 109.851562 68.835938 109.425781 68.835938 107.722656 C 68.835938 107.460938 69.160156 107.285156 69.355469 107.144531 C 70.082031 106.609375 71.191406 106.808594 72.3125 106.808594 L 103.703125 106.808594 C 103.832031 105.257812 105.367188 102.304688 106.683594 101.273438 C 107.1875 100.875 107.113281 100.835938 107.855469 100.339844 C 112.253906 97.390625 118.675781 98.957031 121.335938 103.90625 C 122.621094 106.296875 122.601562 109.84375 121.363281 112.304688 C 120.148438 114.726562 117.984375 116.5625 115.359375 117.28125 C 114.113281 117.625 112.664062 117.6875 111.394531 117.425781 C 110.710938 117.285156 110.316406 117.164062 109.683594 116.941406 C 106.5 115.808594 104.828125 113.625 103.957031 110.492188 C 103.878906 110.207031 103.730469 109.898438 103.703125 109.554688 Z M 103.703125 109.554688 "/>
<path style=" stroke:none;fill-rule:evenodd;fill:rgb(20.392157%,25.882353%,46.666667%);fill-opacity:1;" d="M 96.988281 108.046875 C 96.988281 113.804688 99.511719 118.105469 103.882812 121.394531 C 104.789062 122.078125 107.074219 123.40625 108.4375 123.519531 L 108.4375 150.597656 C 108.4375 152.519531 108.183594 155.714844 108.707031 157.203125 C 109.992188 160.859375 115.507812 161.382812 117.28125 157.347656 C 117.980469 155.765625 117.597656 152.828125 117.597656 150.789062 L 117.597656 123.519531 C 120.324219 123.292969 124.050781 120.128906 125.453125 118.394531 C 127.667969 115.652344 128.875 112.351562 129.050781 109.007812 L 129.050781 107.316406 C 128.894531 104.363281 127.933594 101.445312 126.136719 98.929688 C 125.839844 98.515625 125.628906 98.242188 125.28125 97.878906 C 124.175781 96.71875 123.933594 96.265625 122.320312 95.109375 C 119.667969 93.214844 116.6875 92.292969 113.730469 92.195312 L 112.664062 92.195312 C 104.589844 92.464844 96.988281 98.777344 96.988281 108.046875 Z M 114.964844 121.484375 C 114.964844 124.046875 114.816406 151.492188 114.984375 152.976562 C 115.386719 156.570312 114.777344 157.453125 112.34375 157.453125 C 111.964844 157.453125 111.71875 156.988281 111.515625 156.710938 C 110.75 155.667969 111.035156 154.078125 111.035156 152.46875 L 111.035156 121.484375 C 108.8125 121.300781 104.59375 119.101562 103.113281 117.214844 C 102.546875 116.492188 102.492188 116.597656 101.78125 115.535156 C 97.5625 109.230469 99.804688 100.03125 106.882812 96.222656 C 110.304688 94.378906 115.378906 94.410156 118.894531 96.179688 C 122.363281 97.925781 124.984375 101.023438 126.015625 104.785156 C 126.503906 106.570312 126.59375 108.648438 126.222656 110.460938 C 126.019531 111.445312 125.847656 112.011719 125.527344 112.914062 C 123.910156 117.472656 120.78125 119.871094 116.300781 121.121094 C 115.894531 121.234375 115.453125 121.445312 114.964844 121.484375 Z M 114.964844 121.484375 "/>
<path style=" stroke:none;fill-rule:nonzero;fill:rgb(0%,68.627451%,93.72549%);fill-opacity:1;" d="M 124.007812 148.800781 C 123.675781 148.800781 123.363281 148.738281 123.074219 148.613281 C 122.78125 148.484375 122.527344 148.3125 122.308594 148.09375 C 122.089844 147.875 121.917969 147.621094 121.792969 147.328125 C 121.664062 147.035156 121.601562 146.722656 121.601562 146.390625 C 121.601562 146.058594 121.664062 145.746094 121.792969 145.453125 C 121.917969 145.15625 122.089844 144.902344 122.308594 144.683594 C 122.527344 144.464844 122.78125 144.292969 123.074219 144.164062 C 123.363281 144.039062 123.675781 143.976562 124.007812 143.976562 C 124.339844 143.976562 124.652344 144.039062 124.945312 144.164062 C 125.238281 144.292969 125.492188 144.464844 125.710938 144.683594 C 125.929688 144.902344 126.101562 145.15625 126.226562 145.453125 C 126.355469 145.746094 126.417969 146.058594 126.417969 146.390625 C 126.417969 146.722656 126.355469 147.035156 126.226562 147.328125 C 126.101562 147.621094 125.929688 147.875 125.710938 148.09375 C 125.492188 148.3125 125.238281 148.484375 124.945312 148.613281 C 124.652344 148.738281 124.339844 148.800781 124.007812 148.800781 Z M 124.007812 144.808594 C 123.796875 144.808594 123.601562 144.851562 123.417969 144.9375 C 123.234375 145.023438 123.074219 145.140625 122.9375 145.285156 C 122.796875 145.425781 122.691406 145.597656 122.609375 145.789062 C 122.53125 145.980469 122.488281 146.179688 122.488281 146.390625 C 122.488281 146.601562 122.53125 146.800781 122.609375 146.992188 C 122.691406 147.183594 122.796875 147.351562 122.9375 147.496094 C 123.074219 147.644531 123.234375 147.757812 123.417969 147.847656 C 123.601562 147.933594 123.796875 147.976562 124.007812 147.976562 C 124.222656 147.976562 124.417969 147.933594 124.601562 147.847656 C 124.785156 147.757812 124.945312 147.644531 125.082031 147.496094 C 125.21875 147.351562 125.328125 147.183594 125.410156 146.992188 C 125.488281 146.800781 125.527344 146.601562 125.527344 146.390625 C 125.527344 146.179688 125.488281 145.980469 125.410156 145.789062 C 125.328125 145.597656 125.21875 145.425781 125.082031 145.285156 C 124.945312 145.140625 124.785156 145.023438 124.601562 144.9375 C 124.417969 144.851562 124.222656 144.808594 124.007812 144.808594 Z M 130.605469 145.355469 C 130.605469 145.449219 130.585938 145.550781 130.550781 145.65625 C 130.511719 145.761719 130.460938 145.859375 130.394531 145.949219 C 130.328125 146.039062 130.25 146.113281 130.15625 146.175781 C 130.0625 146.238281 129.960938 146.269531 129.851562 146.273438 C 129.964844 146.28125 130.078125 146.316406 130.191406 146.371094 C 130.300781 146.429688 130.402344 146.507812 130.492188 146.605469 C 130.582031 146.699219 130.652344 146.8125 130.710938 146.9375 C 130.769531 147.066406 130.796875 147.203125 130.796875 147.34375 C 130.796875 147.597656 130.757812 147.8125 130.683594 147.988281 C 130.605469 148.164062 130.503906 148.304688 130.371094 148.414062 C 130.238281 148.519531 130.085938 148.597656 129.910156 148.644531 C 129.734375 148.691406 129.546875 148.714844 129.347656 148.714844 L 127.203125 148.714844 L 127.203125 144.0625 L 129.246094 144.0625 C 129.433594 144.0625 129.609375 144.082031 129.773438 144.117188 C 129.941406 144.15625 130.082031 144.21875 130.207031 144.316406 C 130.328125 144.410156 130.425781 144.542969 130.5 144.710938 C 130.570312 144.878906 130.605469 145.09375 130.605469 145.355469 Z M 129.347656 147.925781 C 129.425781 147.925781 129.496094 147.90625 129.566406 147.871094 C 129.632812 147.835938 129.691406 147.789062 129.742188 147.726562 C 129.792969 147.664062 129.832031 147.597656 129.863281 147.523438 C 129.894531 147.449219 129.90625 147.375 129.90625 147.296875 C 129.90625 147.140625 129.851562 147.007812 129.734375 146.902344 C 129.617188 146.796875 129.457031 146.746094 129.253906 146.746094 L 128.09375 146.746094 L 128.09375 147.925781 Z M 128.09375 145.957031 L 129.183594 145.957031 C 129.273438 145.957031 129.351562 145.941406 129.417969 145.90625 C 129.480469 145.871094 129.535156 145.828125 129.582031 145.773438 C 129.625 145.714844 129.660156 145.652344 129.683594 145.582031 C 129.707031 145.511719 129.71875 145.445312 129.71875 145.375 C 129.71875 145.308594 129.703125 145.242188 129.679688 145.179688 C 129.652344 145.113281 129.621094 145.058594 129.578125 145.011719 C 129.535156 144.964844 129.484375 144.925781 129.429688 144.894531 C 129.371094 144.867188 129.3125 144.851562 129.246094 144.851562 L 128.09375 144.851562 Z M 131.429688 148.105469 L 131.914062 147.390625 C 132.144531 147.554688 132.386719 147.691406 132.632812 147.808594 C 132.882812 147.925781 133.140625 147.984375 133.410156 147.984375 C 133.554688 147.984375 133.683594 147.964844 133.792969 147.929688 C 133.902344 147.894531 133.996094 147.847656 134.070312 147.789062 C 134.148438 147.730469 134.203125 147.667969 134.242188 147.59375 C 134.28125 147.519531 134.300781 147.445312 134.300781 147.375 C 134.300781 147.28125 134.269531 147.199219 134.214844 147.136719 C 134.15625 147.070312 134.082031 147.015625 133.984375 146.972656 C 133.890625 146.929688 133.777344 146.894531 133.648438 146.863281 C 133.519531 146.835938 133.386719 146.808594 133.246094 146.78125 C 133.152344 146.765625 133.046875 146.746094 132.921875 146.722656 C 132.800781 146.699219 132.671875 146.667969 132.542969 146.628906 C 132.410156 146.585938 132.28125 146.535156 132.15625 146.46875 C 132.027344 146.402344 131.914062 146.320312 131.8125 146.21875 C 131.710938 146.121094 131.628906 146.003906 131.566406 145.863281 C 131.507812 145.726562 131.476562 145.566406 131.476562 145.378906 C 131.476562 145.109375 131.53125 144.882812 131.640625 144.703125 C 131.75 144.523438 131.890625 144.378906 132.0625 144.277344 C 132.234375 144.171875 132.425781 144.101562 132.632812 144.058594 C 132.84375 144.015625 133.046875 143.996094 133.238281 143.996094 C 133.433594 143.996094 133.609375 144.007812 133.761719 144.03125 C 133.914062 144.058594 134.054688 144.09375 134.183594 144.144531 C 134.316406 144.191406 134.445312 144.253906 134.570312 144.328125 C 134.695312 144.402344 134.828125 144.488281 134.972656 144.589844 L 134.476562 145.289062 C 134.257812 145.136719 134.046875 145.019531 133.84375 144.941406 C 133.640625 144.859375 133.425781 144.820312 133.203125 144.820312 C 133.125 144.820312 133.039062 144.828125 132.941406 144.847656 C 132.84375 144.867188 132.753906 144.898438 132.664062 144.941406 C 132.578125 144.984375 132.507812 145.039062 132.449219 145.101562 C 132.390625 145.167969 132.363281 145.246094 132.363281 145.339844 C 132.363281 145.433594 132.398438 145.511719 132.464844 145.574219 C 132.53125 145.640625 132.621094 145.691406 132.726562 145.734375 C 132.832031 145.777344 132.949219 145.8125 133.074219 145.84375 C 133.203125 145.871094 133.324219 145.902344 133.441406 145.933594 C 133.53125 145.953125 133.636719 145.972656 133.757812 145.996094 C 133.878906 146.015625 134.003906 146.046875 134.132812 146.082031 C 134.261719 146.121094 134.386719 146.171875 134.515625 146.238281 C 134.640625 146.300781 134.753906 146.382812 134.855469 146.480469 C 134.953125 146.582031 135.035156 146.703125 135.097656 146.847656 C 135.15625 146.996094 135.1875 147.171875 135.1875 147.378906 C 135.1875 147.621094 135.144531 147.832031 135.0625 148.007812 C 134.976562 148.1875 134.855469 148.332031 134.699219 148.449219 C 134.542969 148.566406 134.355469 148.652344 134.140625 148.714844 C 133.925781 148.773438 133.6875 148.800781 133.421875 148.800781 C 133.183594 148.800781 132.96875 148.785156 132.785156 148.75 C 132.601562 148.710938 132.433594 148.664062 132.28125 148.601562 C 132.128906 148.539062 131.984375 148.46875 131.851562 148.382812 C 131.714844 148.296875 131.574219 148.207031 131.429688 148.105469 Z M 136.820312 144.851562 L 136.820312 146.015625 L 139.066406 146.015625 L 139.066406 146.820312 L 136.820312 146.820312 L 136.820312 147.914062 L 139.351562 147.914062 L 139.351562 148.714844 L 135.929688 148.714844 L 135.929688 144.0625 L 139.351562 144.0625 L 139.351562 144.851562 Z M 141.152344 148.714844 L 140.265625 148.714844 L 140.265625 144.0625 L 142.375 144.0625 C 142.613281 144.0625 142.828125 144.101562 143.027344 144.183594 C 143.222656 144.261719 143.390625 144.371094 143.53125 144.511719 C 143.671875 144.652344 143.78125 144.824219 143.859375 145.019531 C 143.9375 145.21875 143.976562 145.433594 143.976562 145.664062 C 143.976562 146.015625 143.890625 146.324219 143.714844 146.585938 C 143.539062 146.847656 143.304688 147.035156 143.011719 147.152344 C 143.402344 147.667969 143.785156 148.1875 144.167969 148.714844 L 143.109375 148.714844 C 142.921875 148.472656 142.742188 148.230469 142.5625 147.984375 C 142.386719 147.738281 142.210938 147.488281 142.03125 147.234375 L 141.152344 147.234375 Z M 141.152344 146.445312 L 142.375 146.445312 C 142.453125 146.445312 142.539062 146.429688 142.625 146.398438 C 142.710938 146.367188 142.789062 146.316406 142.855469 146.253906 C 142.921875 146.1875 142.976562 146.105469 143.023438 146.007812 C 143.066406 145.910156 143.089844 145.796875 143.089844 145.664062 C 143.089844 145.597656 143.082031 145.515625 143.0625 145.421875 C 143.046875 145.332031 143.011719 145.242188 142.960938 145.15625 C 142.914062 145.070312 142.839844 145 142.746094 144.941406 C 142.652344 144.882812 142.53125 144.851562 142.375 144.851562 L 141.152344 144.851562 Z M 148.609375 144.070312 L 146.402344 148.714844 L 146.351562 148.714844 L 144.148438 144.070312 L 145.125 144.070312 L 146.375 146.761719 L 147.625 144.070312 Z M 147.9375 148.714844 L 150.3125 144.070312 L 150.398438 144.070312 L 152.773438 148.714844 L 151.808594 148.714844 L 151.445312 147.984375 L 149.257812 147.984375 L 148.902344 148.714844 Z M 149.6875 147.207031 L 151.015625 147.207031 L 150.355469 145.804688 Z M 155.761719 144.851562 L 154.4375 144.851562 L 154.4375 148.714844 L 153.546875 148.714844 L 153.546875 144.851562 L 152.214844 144.851562 L 152.214844 144.0625 L 155.761719 144.0625 Z M 158.441406 148.800781 C 158.109375 148.800781 157.800781 148.738281 157.507812 148.613281 C 157.214844 148.484375 156.960938 148.3125 156.742188 148.09375 C 156.523438 147.875 156.351562 147.621094 156.226562 147.328125 C 156.097656 147.035156 156.035156 146.722656 156.035156 146.390625 C 156.035156 146.058594 156.097656 145.746094 156.226562 145.453125 C 156.351562 145.15625 156.523438 144.902344 156.742188 144.683594 C 156.960938 144.464844 157.214844 144.292969 157.507812 144.164062 C 157.800781 144.039062 158.109375 143.976562 158.441406 143.976562 C 158.773438 143.976562 159.085938 144.039062 159.378906 144.164062 C 159.671875 144.292969 159.925781 144.464844 160.144531 144.683594 C 160.363281 144.902344 160.535156 145.15625 160.660156 145.453125 C 160.789062 145.746094 160.851562 146.058594 160.851562 146.390625 C 160.851562 146.722656 160.789062 147.035156 160.660156 147.328125 C 160.535156 147.621094 160.363281 147.875 160.144531 148.09375 C 159.925781 148.3125 159.671875 148.484375 159.378906 148.613281 C 159.085938 148.738281 158.773438 148.800781 158.441406 148.800781 Z M 158.445312 144.808594 C 158.230469 144.808594 158.035156 144.851562 157.851562 144.9375 C 157.667969 145.023438 157.507812 145.140625 157.371094 145.285156 C 157.234375 145.425781 157.125 145.597656 157.042969 145.789062 C 156.964844 145.980469 156.921875 146.179688 156.921875 146.390625 C 156.921875 146.601562 156.964844 146.800781 157.042969 146.992188 C 157.125 147.183594 157.234375 147.351562 157.371094 147.496094 C 157.507812 147.644531 157.667969 147.757812 157.851562 147.847656 C 158.035156 147.933594 158.230469 147.976562 158.445312 147.976562 C 158.65625 147.976562 158.851562 147.933594 159.035156 147.847656 C 159.21875 147.757812 159.378906 147.644531 159.515625 147.496094 C 159.65625 147.351562 159.761719 147.183594 159.84375 146.992188 C 159.921875 146.800781 159.964844 146.601562 159.964844 146.390625 C 159.964844 146.179688 159.921875 145.980469 159.84375 145.789062 C 159.761719 145.597656 159.65625 145.425781 159.515625 145.285156 C 159.378906 145.140625 159.21875 145.023438 159.035156 144.9375 C 158.851562 144.851562 158.65625 144.808594 158.445312 144.808594 Z M 162.527344 148.714844 L 161.640625 148.714844 L 161.640625 144.0625 L 163.75 144.0625 C 163.988281 144.0625 164.203125 144.101562 164.402344 144.183594 C 164.597656 144.261719 164.765625 144.371094 164.90625 144.511719 C 165.046875 144.652344 165.15625 144.824219 165.234375 145.019531 C 165.3125 145.21875 165.351562 145.433594 165.351562 145.664062 C 165.351562 146.015625 165.261719 146.324219 165.089844 146.585938 C 164.910156 146.847656 164.675781 147.035156 164.382812 147.152344 C 164.773438 147.667969 165.160156 148.1875 165.542969 148.714844 L 164.480469 148.714844 C 164.296875 148.472656 164.113281 148.230469 163.9375 147.984375 C 163.761719 147.738281 163.582031 147.488281 163.40625 147.234375 L 162.527344 147.234375 Z M 162.527344 146.445312 L 163.746094 146.445312 C 163.828125 146.445312 163.910156 146.429688 163.996094 146.398438 C 164.085938 146.367188 164.160156 146.316406 164.230469 146.253906 C 164.296875 146.1875 164.351562 146.105469 164.394531 146.007812 C 164.441406 145.910156 164.460938 145.796875 164.460938 145.664062 C 164.460938 145.597656 164.453125 145.515625 164.4375 145.421875 C 164.421875 145.332031 164.386719 145.242188 164.335938 145.15625 C 164.285156 145.070312 164.214844 145 164.121094 144.941406 C 164.027344 144.882812 163.902344 144.851562 163.746094 144.851562 L 162.527344 144.851562 Z M 167.222656 148.714844 L 166.335938 148.714844 L 166.335938 144.070312 L 167.222656 144.070312 Z M 170.535156 148.800781 C 170.207031 148.800781 169.894531 148.738281 169.601562 148.613281 C 169.3125 148.484375 169.054688 148.3125 168.839844 148.09375 C 168.621094 147.875 168.449219 147.621094 168.320312 147.328125 C 168.195312 147.035156 168.132812 146.722656 168.132812 146.390625 C 168.132812 146.058594 168.195312 145.746094 168.320312 145.453125 C 168.449219 145.15625 168.621094 144.902344 168.839844 144.683594 C 169.054688 144.464844 169.3125 144.292969 169.601562 144.164062 C 169.894531 144.039062 170.207031 143.976562 170.535156 143.976562 C 170.871094 143.976562 171.183594 144.039062 171.476562 144.164062 C 171.765625 144.292969 172.023438 144.464844 172.238281 144.683594 C 172.457031 144.902344 172.628906 145.15625 172.757812 145.453125 C 172.882812 145.746094 172.949219 146.058594 172.949219 146.390625 C 172.949219 146.722656 172.882812 147.035156 172.757812 147.328125 C 172.628906 147.621094 172.457031 147.875 172.238281 148.09375 C 172.023438 148.3125 171.765625 148.484375 171.476562 148.613281 C 171.183594 148.738281 170.871094 148.800781 170.535156 148.800781 Z M 170.539062 144.808594 C 170.328125 144.808594 170.128906 144.851562 169.945312 144.9375 C 169.765625 145.023438 169.601562 145.140625 169.464844 145.285156 C 169.328125 145.425781 169.21875 145.597656 169.140625 145.789062 C 169.058594 145.980469 169.019531 146.179688 169.019531 146.390625 C 169.019531 146.601562 169.058594 146.800781 169.140625 146.992188 C 169.21875 147.183594 169.328125 147.351562 169.464844 147.496094 C 169.601562 147.644531 169.765625 147.757812 169.945312 147.847656 C 170.128906 147.933594 170.328125 147.976562 170.539062 147.976562 C 170.75 147.976562 170.949219 147.933594 171.132812 147.847656 C 171.3125 147.757812 171.476562 147.644531 171.613281 147.496094 C 171.75 147.351562 171.859375 147.183594 171.9375 146.992188 C 172.019531 146.800781 172.058594 146.601562 172.058594 146.390625 C 172.058594 146.179688 172.019531 145.980469 171.9375 145.789062 C 171.859375 145.597656 171.75 145.425781 171.613281 145.285156 C 171.476562 145.140625 171.3125 145.023438 171.132812 144.9375 C 170.949219 144.851562 170.75 144.808594 170.539062 144.808594 Z M 179.242188 144.851562 L 177.917969 144.851562 L 177.917969 148.714844 L 177.027344 148.714844 L 177.027344 144.851562 L 175.695312 144.851562 L 175.695312 144.0625 L 179.242188 144.0625 Z M 180.742188 144.851562 L 180.742188 146.015625 L 182.988281 146.015625 L 182.988281 146.820312 L 180.742188 146.820312 L 180.742188 147.914062 L 183.273438 147.914062 L 183.273438 148.714844 L 179.851562 148.714844 L 179.851562 144.0625 L 183.273438 144.0625 L 183.273438 144.851562 Z M 188.3125 147.570312 C 188.210938 147.757812 188.085938 147.925781 187.9375 148.074219 C 187.789062 148.226562 187.625 148.355469 187.445312 148.460938 C 187.265625 148.570312 187.070312 148.652344 186.863281 148.714844 C 186.652344 148.773438 186.433594 148.800781 186.210938 148.800781 C 185.882812 148.800781 185.570312 148.738281 185.277344 148.613281 C 184.984375 148.484375 184.730469 148.3125 184.511719 148.09375 C 184.296875 147.875 184.125 147.621094 183.996094 147.328125 C 183.871094 147.035156 183.804688 146.726562 183.804688 146.394531 C 183.804688 146.066406 183.871094 145.753906 183.996094 145.460938 C 184.125 145.167969 184.296875 144.914062 184.511719 144.695312 C 184.730469 144.476562 184.984375 144.304688 185.277344 144.179688 C 185.570312 144.050781 185.882812 143.988281 186.210938 143.988281 C 186.433594 143.988281 186.652344 144.019531 186.863281 144.078125 C 187.070312 144.136719 187.265625 144.21875 187.445312 144.328125 C 187.625 144.4375 187.789062 144.566406 187.9375 144.714844 C 188.085938 144.867188 188.210938 145.03125 188.3125 145.214844 L 187.480469 145.550781 C 187.414062 145.449219 187.332031 145.355469 187.242188 145.265625 C 187.152344 145.175781 187.050781 145.097656 186.941406 145.03125 C 186.832031 144.960938 186.714844 144.910156 186.589844 144.871094 C 186.46875 144.832031 186.34375 144.8125 186.210938 144.8125 C 186 144.8125 185.800781 144.855469 185.617188 144.945312 C 185.433594 145.03125 185.273438 145.144531 185.136719 145.289062 C 185.003906 145.433594 184.894531 145.601562 184.816406 145.796875 C 184.734375 145.988281 184.695312 146.1875 184.695312 146.394531 C 184.695312 146.605469 184.734375 146.808594 184.816406 147 C 184.894531 147.1875 185.003906 147.355469 185.136719 147.5 C 185.273438 147.644531 185.433594 147.757812 185.617188 147.847656 C 185.800781 147.933594 186 147.976562 186.210938 147.976562 C 186.34375 147.976562 186.46875 147.957031 186.589844 147.917969 C 186.714844 147.882812 186.832031 147.828125 186.941406 147.761719 C 187.050781 147.691406 187.152344 147.613281 187.242188 147.523438 C 187.332031 147.429688 187.414062 147.335938 187.480469 147.234375 Z M 192.9375 148.714844 L 189.886719 145.949219 L 189.886719 148.714844 L 188.996094 148.714844 L 188.996094 144.070312 L 189.09375 144.070312 L 192.144531 146.878906 L 192.144531 144.070312 L 193.03125 144.070312 L 193.03125 148.714844 Z M 196.21875 148.800781 C 195.890625 148.800781 195.578125 148.738281 195.285156 148.613281 C 194.992188 148.484375 194.738281 148.3125 194.519531 148.09375 C 194.304688 147.875 194.132812 147.621094 194.003906 147.328125 C 193.878906 147.035156 193.8125 146.722656 193.8125 146.390625 C 193.8125 146.058594 193.878906 145.746094 194.003906 145.453125 C 194.132812 145.15625 194.304688 144.902344 194.519531 144.683594 C 194.738281 144.464844 194.992188 144.292969 195.285156 144.164062 C 195.578125 144.039062 195.890625 143.976562 196.21875 143.976562 C 196.554688 143.976562 196.867188 144.039062 197.15625 144.164062 C 197.449219 144.292969 197.703125 144.464844 197.921875 144.683594 C 198.140625 144.902344 198.3125 145.15625 198.441406 145.453125 C 198.566406 145.746094 198.628906 146.058594 198.628906 146.390625 C 198.628906 146.722656 198.566406 147.035156 198.441406 147.328125 C 198.3125 147.621094 198.140625 147.875 197.921875 148.09375 C 197.703125 148.3125 197.449219 148.484375 197.15625 148.613281 C 196.867188 148.738281 196.554688 148.800781 196.21875 148.800781 Z M 196.222656 144.808594 C 196.011719 144.808594 195.8125 144.851562 195.628906 144.9375 C 195.445312 145.023438 195.285156 145.140625 195.148438 145.285156 C 195.011719 145.425781 194.902344 145.597656 194.824219 145.789062 C 194.742188 145.980469 194.703125 146.179688 194.703125 146.390625 C 194.703125 146.601562 194.742188 146.800781 194.824219 146.992188 C 194.902344 147.183594 195.011719 147.351562 195.148438 147.496094 C 195.285156 147.644531 195.445312 147.757812 195.628906 147.847656 C 195.8125 147.933594 196.011719 147.976562 196.222656 147.976562 C 196.433594 147.976562 196.628906 147.933594 196.8125 147.847656 C 196.996094 147.757812 197.15625 147.644531 197.296875 147.496094 C 197.433594 147.351562 197.539062 147.183594 197.621094 146.992188 C 197.703125 146.800781 197.742188 146.601562 197.742188 146.390625 C 197.742188 146.179688 197.703125 145.980469 197.621094 145.789062 C 197.539062 145.597656 197.433594 145.425781 197.296875 145.285156 C 197.15625 145.140625 196.996094 145.023438 196.8125 144.9375 C 196.628906 144.851562 196.433594 144.808594 196.222656 144.808594 Z M 202.761719 147.925781 L 202.761719 148.714844 L 199.417969 148.714844 L 199.417969 144.0625 L 200.304688 144.0625 L 200.304688 147.925781 Z M 205.230469 148.800781 C 204.898438 148.800781 204.589844 148.738281 204.296875 148.613281 C 204.003906 148.484375 203.75 148.3125 203.53125 148.09375 C 203.316406 147.875 203.140625 147.621094 203.015625 147.328125 C 202.886719 147.035156 202.824219 146.722656 202.824219 146.390625 C 202.824219 146.058594 202.886719 145.746094 203.015625 145.453125 C 203.140625 145.15625 203.316406 144.902344 203.53125 144.683594 C 203.75 144.464844 204.003906 144.292969 204.296875 144.164062 C 204.589844 144.039062 204.898438 143.976562 205.230469 143.976562 C 205.566406 143.976562 205.878906 144.039062 206.167969 144.164062 C 206.460938 144.292969 206.714844 144.464844 206.933594 144.683594 C 207.152344 144.902344 207.324219 145.15625 207.453125 145.453125 C 207.578125 145.746094 207.640625 146.058594 207.640625 146.390625 C 207.640625 146.722656 207.578125 147.035156 207.453125 147.328125 C 207.324219 147.621094 207.152344 147.875 206.933594 148.09375 C 206.714844 148.3125 206.460938 148.484375 206.167969 148.613281 C 205.878906 148.738281 205.566406 148.800781 205.230469 148.800781 Z M 205.234375 144.808594 C 205.023438 144.808594 204.824219 144.851562 204.640625 144.9375 C 204.457031 145.023438 204.296875 145.140625 204.160156 145.285156 C 204.023438 145.425781 203.914062 145.597656 203.835938 145.789062 C 203.753906 145.980469 203.714844 146.179688 203.714844 146.390625 C 203.714844 146.601562 203.753906 146.800781 203.835938 146.992188 C 203.914062 147.183594 204.023438 147.351562 204.160156 147.496094 C 204.296875 147.644531 204.457031 147.757812 204.640625 147.847656 C 204.824219 147.933594 205.023438 147.976562 205.234375 147.976562 C 205.445312 147.976562 205.640625 147.933594 205.824219 147.847656 C 206.007812 147.757812 206.167969 147.644531 206.308594 147.496094 C 206.445312 147.351562 206.550781 147.183594 206.632812 146.992188 C 206.714844 146.800781 206.753906 146.601562 206.753906 146.390625 C 206.753906 146.179688 206.714844 145.980469 206.632812 145.789062 C 206.550781 145.597656 206.445312 145.425781 206.308594 145.285156 C 206.167969 145.140625 206.007812 145.023438 205.824219 144.9375 C 205.640625 144.851562 205.445312 144.808594 205.234375 144.808594 Z M 205.425781 142.882812 L 206.164062 143.199219 L 205.3125 143.84375 L 204.683594 143.84375 Z M 212.941406 146.171875 C 212.9375 146.261719 212.933594 146.34375 212.933594 146.421875 C 212.929688 146.488281 212.929688 146.554688 212.929688 146.621094 C 212.929688 146.6875 212.925781 146.734375 212.921875 146.769531 C 212.894531 147.0625 212.816406 147.332031 212.683594 147.582031 C 212.550781 147.832031 212.378906 148.046875 212.167969 148.226562 C 211.960938 148.40625 211.71875 148.546875 211.445312 148.648438 C 211.171875 148.75 210.886719 148.800781 210.585938 148.800781 C 210.257812 148.800781 209.945312 148.738281 209.652344 148.613281 C 209.363281 148.484375 209.105469 148.3125 208.886719 148.09375 C 208.667969 147.875 208.496094 147.621094 208.367188 147.328125 C 208.238281 147.035156 208.175781 146.726562 208.175781 146.394531 C 208.175781 146.066406 208.238281 145.753906 208.367188 145.457031 C 208.496094 145.164062 208.667969 144.90625 208.886719 144.691406 C 209.105469 144.472656 209.363281 144.300781 209.652344 144.171875 C 209.945312 144.046875 210.257812 143.980469 210.585938 143.980469 C 211.003906 143.980469 211.390625 144.078125 211.738281 144.273438 C 212.085938 144.46875 212.371094 144.730469 212.585938 145.054688 L 211.824219 145.519531 C 211.6875 145.320312 211.511719 145.152344 211.292969 145.015625 C 211.074219 144.882812 210.839844 144.8125 210.585938 144.8125 C 210.375 144.8125 210.175781 144.855469 209.992188 144.945312 C 209.808594 145.03125 209.648438 145.144531 209.511719 145.289062 C 209.375 145.433594 209.265625 145.601562 209.183594 145.796875 C 209.105469 145.988281 209.0625 146.1875 209.0625 146.394531 C 209.0625 146.605469 209.105469 146.808594 209.183594 147 C 209.265625 147.1875 209.375 147.355469 209.511719 147.5 C 209.648438 147.644531 209.808594 147.757812 209.992188 147.847656 C 210.175781 147.933594 210.375 147.976562 210.585938 147.976562 C 210.746094 147.976562 210.902344 147.953125 211.050781 147.902344 C 211.199219 147.855469 211.332031 147.785156 211.457031 147.695312 C 211.578125 147.609375 211.683594 147.503906 211.777344 147.378906 C 211.867188 147.257812 211.933594 147.121094 211.976562 146.972656 L 210.261719 146.972656 L 210.261719 146.171875 Z M 214.699219 148.714844 L 213.808594 148.714844 L 213.808594 144.070312 L 214.699219 144.070312 Z M 220.09375 147.570312 C 219.992188 147.757812 219.867188 147.925781 219.71875 148.074219 C 219.570312 148.226562 219.40625 148.355469 219.226562 148.460938 C 219.046875 148.570312 218.851562 148.652344 218.644531 148.714844 C 218.433594 148.773438 218.214844 148.800781 217.992188 148.800781 C 217.664062 148.800781 217.351562 148.738281 217.058594 148.613281 C 216.765625 148.484375 216.511719 148.3125 216.292969 148.09375 C 216.078125 147.875 215.90625 147.621094 215.777344 147.328125 C 215.652344 147.035156 215.585938 146.726562 215.585938 146.394531 C 215.585938 146.066406 215.652344 145.753906 215.777344 145.460938 C 215.90625 145.167969 216.078125 144.914062 216.292969 144.695312 C 216.511719 144.476562 216.765625 144.304688 217.058594 144.179688 C 217.351562 144.050781 217.664062 143.988281 217.992188 143.988281 C 218.214844 143.988281 218.433594 144.019531 218.644531 144.078125 C 218.851562 144.136719 219.046875 144.21875 219.226562 144.328125 C 219.40625 144.4375 219.570312 144.566406 219.71875 144.714844 C 219.867188 144.867188 219.992188 145.03125 220.09375 145.214844 L 219.261719 145.550781 C 219.195312 145.449219 219.113281 145.355469 219.023438 145.265625 C 218.933594 145.175781 218.832031 145.097656 218.722656 145.03125 C 218.613281 144.960938 218.496094 144.910156 218.375 144.871094 C 218.25 144.832031 218.125 144.8125 217.992188 144.8125 C 217.78125 144.8125 217.582031 144.855469 217.398438 144.945312 C 217.214844 145.03125 217.054688 145.144531 216.917969 145.289062 C 216.785156 145.433594 216.675781 145.601562 216.597656 145.796875 C 216.515625 145.988281 216.476562 146.1875 216.476562 146.394531 C 216.476562 146.605469 216.515625 146.808594 216.597656 147 C 216.675781 147.1875 216.785156 147.355469 216.917969 147.5 C 217.054688 147.644531 217.214844 147.757812 217.398438 147.847656 C 217.582031 147.933594 217.78125 147.976562 217.992188 147.976562 C 218.125 147.976562 218.25 147.957031 218.375 147.917969 C 218.496094 147.882812 218.613281 147.828125 218.722656 147.761719 C 218.832031 147.691406 218.933594 147.613281 219.023438 147.523438 C 219.113281 147.429688 219.195312 147.335938 219.261719 147.234375 Z M 222.949219 148.800781 C 222.617188 148.800781 222.308594 148.738281 222.015625 148.613281 C 221.722656 148.484375 221.46875 148.3125 221.25 148.09375 C 221.035156 147.875 220.859375 147.621094 220.734375 147.328125 C 220.605469 147.035156 220.542969 146.722656 220.542969 146.390625 C 220.542969 146.058594 220.605469 145.746094 220.734375 145.453125 C 220.859375 145.15625 221.035156 144.902344 221.25 144.683594 C 221.46875 144.464844 221.722656 144.292969 222.015625 144.164062 C 222.308594 144.039062 222.617188 143.976562 222.949219 143.976562 C 223.28125 143.976562 223.597656 144.039062 223.886719 144.164062 C 224.179688 144.292969 224.433594 144.464844 224.652344 144.683594 C 224.871094 144.902344 225.042969 145.15625 225.167969 145.453125 C 225.296875 145.746094 225.359375 146.058594 225.359375 146.390625 C 225.359375 146.722656 225.296875 147.035156 225.167969 147.328125 C 225.042969 147.621094 224.871094 147.875 224.652344 148.09375 C 224.433594 148.3125 224.179688 148.484375 223.886719 148.613281 C 223.597656 148.738281 223.28125 148.800781 222.949219 148.800781 Z M 222.953125 144.808594 C 222.742188 144.808594 222.542969 144.851562 222.359375 144.9375 C 222.175781 145.023438 222.015625 145.140625 221.878906 145.285156 C 221.742188 145.425781 221.632812 145.597656 221.550781 145.789062 C 221.472656 145.980469 221.433594 146.179688 221.433594 146.390625 C 221.433594 146.601562 221.472656 146.800781 221.550781 146.992188 C 221.632812 147.183594 221.742188 147.351562 221.878906 147.496094 C 222.015625 147.644531 222.175781 147.757812 222.359375 147.847656 C 222.542969 147.933594 222.742188 147.976562 222.953125 147.976562 C 223.164062 147.976562 223.359375 147.933594 223.542969 147.847656 C 223.726562 147.757812 223.886719 147.644531 224.023438 147.496094 C 224.164062 147.351562 224.269531 147.183594 224.351562 146.992188 C 224.429688 146.800781 224.472656 146.601562 224.472656 146.390625 C 224.472656 146.179688 224.429688 145.980469 224.351562 145.789062 C 224.269531 145.597656 224.164062 145.425781 224.023438 145.285156 C 223.886719 145.140625 223.726562 145.023438 223.542969 144.9375 C 223.359375 144.851562 223.164062 144.808594 222.953125 144.808594 Z M 125.796875 151.261719 C 125.675781 151.453125 125.539062 151.675781 125.386719 151.925781 C 125.230469 152.175781 125.074219 152.433594 124.914062 152.691406 C 124.753906 152.953125 124.59375 153.207031 124.4375 153.460938 C 124.28125 153.710938 124.144531 153.941406 124.023438 154.144531 L 124.023438 155.902344 L 123.136719 155.902344 L 123.136719 154.144531 C 122.863281 153.660156 122.570312 153.179688 122.261719 152.703125 C 121.953125 152.222656 121.65625 151.742188 121.378906 151.261719 L 122.414062 151.261719 C 122.605469 151.578125 122.796875 151.90625 122.996094 152.246094 C 123.195312 152.582031 123.390625 152.910156 123.582031 153.230469 C 123.675781 153.082031 123.769531 152.921875 123.871094 152.753906 C 123.972656 152.582031 124.074219 152.414062 124.175781 152.242188 C 124.277344 152.070312 124.378906 151.902344 124.480469 151.734375 C 124.578125 151.566406 124.671875 151.410156 124.761719 151.261719 Z M 128.320312 155.292969 L 128.804688 154.582031 C 129.035156 154.742188 129.277344 154.882812 129.523438 154.996094 C 129.769531 155.113281 130.03125 155.171875 130.300781 155.171875 C 130.445312 155.171875 130.570312 155.15625 130.683594 155.117188 C 130.792969 155.082031 130.886719 155.035156 130.960938 154.980469 C 131.039062 154.921875 131.09375 154.855469 131.132812 154.78125 C 131.171875 154.707031 131.191406 154.636719 131.191406 154.5625 C 131.191406 154.46875 131.160156 154.390625 131.105469 154.324219 C 131.046875 154.257812 130.972656 154.207031 130.875 154.164062 C 130.78125 154.121094 130.667969 154.085938 130.539062 154.054688 C 130.410156 154.023438 130.277344 153.996094 130.136719 153.972656 C 130.042969 153.957031 129.933594 153.933594 129.8125 153.910156 C 129.691406 153.886719 129.5625 153.855469 129.433594 153.816406 C 129.300781 153.777344 129.171875 153.722656 129.042969 153.65625 C 128.917969 153.59375 128.804688 153.507812 128.703125 153.410156 C 128.601562 153.3125 128.519531 153.191406 128.457031 153.054688 C 128.394531 152.917969 128.367188 152.753906 128.367188 152.570312 C 128.367188 152.296875 128.421875 152.070312 128.53125 151.890625 C 128.640625 151.710938 128.78125 151.570312 128.953125 151.464844 C 129.125 151.363281 129.3125 151.289062 129.523438 151.246094 C 129.734375 151.207031 129.933594 151.183594 130.128906 151.183594 C 130.324219 151.183594 130.496094 151.195312 130.648438 151.222656 C 130.800781 151.246094 130.945312 151.285156 131.074219 151.332031 C 131.207031 151.382812 131.335938 151.441406 131.460938 151.515625 C 131.585938 151.589844 131.71875 151.679688 131.863281 151.78125 L 131.367188 152.480469 C 131.148438 152.328125 130.9375 152.210938 130.734375 152.128906 C 130.53125 152.050781 130.316406 152.007812 130.089844 152.007812 C 130.015625 152.007812 129.929688 152.019531 129.832031 152.039062 C 129.734375 152.058594 129.640625 152.089844 129.554688 152.128906 C 129.46875 152.171875 129.398438 152.226562 129.339844 152.292969 C 129.28125 152.359375 129.253906 152.4375 129.253906 152.53125 C 129.253906 152.625 129.289062 152.703125 129.355469 152.765625 C 129.421875 152.828125 129.511719 152.882812 129.617188 152.925781 C 129.722656 152.964844 129.839844 153.003906 129.964844 153.03125 C 130.089844 153.0625 130.214844 153.089844 130.332031 153.121094 C 130.421875 153.140625 130.527344 153.164062 130.648438 153.183594 C 130.765625 153.207031 130.890625 153.234375 131.023438 153.273438 C 131.152344 153.3125 131.277344 153.363281 131.40625 153.425781 C 131.53125 153.488281 131.644531 153.570312 131.746094 153.671875 C 131.84375 153.769531 131.925781 153.894531 131.984375 154.039062 C 132.046875 154.183594 132.078125 154.363281 132.078125 154.570312 C 132.078125 154.808594 132.035156 155.019531 131.953125 155.199219 C 131.867188 155.375 131.746094 155.523438 131.589844 155.640625 C 131.433594 155.753906 131.246094 155.84375 131.03125 155.902344 C 130.816406 155.960938 130.578125 155.992188 130.3125 155.992188 C 130.074219 155.992188 129.859375 155.972656 129.675781 155.9375 C 129.492188 155.902344 129.324219 155.851562 129.171875 155.792969 C 129.019531 155.730469 128.875 155.65625 128.738281 155.574219 C 128.605469 155.488281 128.464844 155.394531 128.320312 155.292969 Z M 133.835938 155.902344 L 132.949219 155.902344 L 132.949219 151.261719 L 133.835938 151.261719 Z M 133.835938 155.902344 "/>
<path style=" stroke:none;fill-rule:nonzero;fill:rgb(0%,68.627451%,93.72549%);fill-opacity:1;" d="M 134.792969 155.292969 L 135.277344 154.582031 C 135.507812 154.742188 135.75 154.882812 135.996094 154.996094 C 136.246094 155.113281 136.503906 155.171875 136.773438 155.171875 C 136.917969 155.171875 137.042969 155.15625 137.15625 155.117188 C 137.265625 155.082031 137.359375 155.035156 137.433594 154.980469 C 137.511719 154.921875 137.566406 154.855469 137.605469 154.78125 C 137.644531 154.707031 137.664062 154.636719 137.664062 154.5625 C 137.664062 154.46875 137.632812 154.390625 137.578125 154.324219 C 137.519531 154.257812 137.445312 154.207031 137.347656 154.164062 C 137.253906 154.121094 137.140625 154.085938 137.011719 154.054688 C 136.882812 154.023438 136.75 153.996094 136.609375 153.972656 C 136.515625 153.957031 136.40625 153.933594 136.285156 153.910156 C 136.164062 153.886719 136.035156 153.855469 135.90625 153.816406 C 135.773438 153.777344 135.644531 153.722656 135.519531 153.65625 C 135.390625 153.59375 135.277344 153.507812 135.175781 153.410156 C 135.074219 153.3125 134.992188 153.191406 134.929688 153.054688 C 134.871094 152.917969 134.839844 152.753906 134.839844 152.570312 C 134.839844 152.296875 134.894531 152.070312 135.003906 151.890625 C 135.113281 151.710938 135.253906 151.570312 135.425781 151.464844 C 135.597656 151.363281 135.789062 151.289062 135.996094 151.246094 C 136.207031 151.207031 136.40625 151.183594 136.601562 151.183594 C 136.796875 151.183594 136.972656 151.195312 137.125 151.222656 C 137.277344 151.246094 137.417969 151.285156 137.546875 151.332031 C 137.679688 151.382812 137.808594 151.441406 137.933594 151.515625 C 138.058594 151.589844 138.191406 151.679688 138.335938 151.78125 L 137.839844 152.480469 C 137.621094 152.328125 137.410156 152.210938 137.207031 152.128906 C 137.003906 152.050781 136.789062 152.007812 136.566406 152.007812 C 136.488281 152.007812 136.402344 152.019531 136.304688 152.039062 C 136.207031 152.058594 136.117188 152.089844 136.027344 152.128906 C 135.941406 152.171875 135.871094 152.226562 135.8125 152.292969 C 135.753906 152.359375 135.726562 152.4375 135.726562 152.53125 C 135.726562 152.625 135.761719 152.703125 135.828125 152.765625 C 135.894531 152.828125 135.984375 152.882812 136.089844 152.925781 C 136.195312 152.964844 136.3125 153.003906 136.4375 153.03125 C 136.566406 153.0625 136.6875 153.089844 136.804688 153.121094 C 136.894531 153.140625 137 153.164062 137.121094 153.183594 C 137.242188 153.207031 137.367188 153.234375 137.496094 153.273438 C 137.625 153.3125 137.75 153.363281 137.878906 153.425781 C 138.003906 153.488281 138.117188 153.570312 138.21875 153.671875 C 138.316406 153.769531 138.398438 153.894531 138.460938 154.039062 C 138.519531 154.183594 138.550781 154.363281 138.550781 154.570312 C 138.550781 154.808594 138.507812 155.019531 138.425781 155.199219 C 138.339844 155.375 138.21875 155.523438 138.0625 155.640625 C 137.90625 155.753906 137.71875 155.84375 137.503906 155.902344 C 137.289062 155.960938 137.050781 155.992188 136.785156 155.992188 C 136.546875 155.992188 136.332031 155.972656 136.148438 155.9375 C 135.964844 155.902344 135.796875 155.851562 135.644531 155.792969 C 135.492188 155.730469 135.347656 155.65625 135.214844 155.574219 C 135.078125 155.488281 134.9375 155.394531 134.792969 155.292969 Z M 142.238281 152.042969 L 140.910156 152.042969 L 140.910156 155.902344 L 140.023438 155.902344 L 140.023438 152.042969 L 138.691406 152.042969 L 138.691406 151.253906 L 142.238281 151.253906 Z M 143.734375 152.042969 L 143.734375 153.203125 L 145.984375 153.203125 L 145.984375 154.011719 L 143.734375 154.011719 L 143.734375 155.101562 L 146.269531 155.101562 L 146.269531 155.902344 L 142.847656 155.902344 L 142.847656 151.253906 L 146.269531 151.253906 L 146.269531 152.042969 Z M 151.714844 151.261719 L 151.714844 155.902344 L 150.824219 155.902344 L 150.824219 153.554688 L 149.371094 155.300781 L 147.925781 153.554688 L 147.925781 155.902344 L 147.035156 155.902344 L 147.035156 151.261719 L 147.09375 151.261719 L 149.371094 153.941406 L 151.65625 151.261719 Z M 152.183594 155.902344 L 154.554688 151.261719 L 154.644531 151.261719 L 157.019531 155.902344 L 156.054688 155.902344 L 155.691406 155.171875 L 153.503906 155.171875 L 153.148438 155.902344 Z M 153.933594 154.398438 L 155.261719 154.398438 L 154.601562 152.992188 Z M 157.082031 155.292969 L 157.5625 154.582031 C 157.796875 154.742188 158.039062 154.882812 158.285156 154.996094 C 158.53125 155.113281 158.792969 155.171875 159.0625 155.171875 C 159.207031 155.171875 159.332031 155.15625 159.441406 155.117188 C 159.554688 155.082031 159.644531 155.035156 159.722656 154.980469 C 159.796875 154.921875 159.855469 154.855469 159.894531 154.78125 C 159.929688 154.707031 159.949219 154.636719 159.949219 154.5625 C 159.949219 154.46875 159.921875 154.390625 159.863281 154.324219 C 159.808594 154.257812 159.730469 154.207031 159.636719 154.164062 C 159.542969 154.121094 159.429688 154.085938 159.300781 154.054688 C 159.171875 154.023438 159.035156 153.996094 158.898438 153.972656 C 158.804688 153.957031 158.695312 153.933594 158.574219 153.910156 C 158.449219 153.886719 158.324219 153.855469 158.191406 153.816406 C 158.0625 153.777344 157.933594 153.722656 157.804688 153.65625 C 157.679688 153.59375 157.5625 153.507812 157.460938 153.410156 C 157.359375 153.3125 157.28125 153.191406 157.21875 153.054688 C 157.15625 152.917969 157.125 152.753906 157.125 152.570312 C 157.125 152.296875 157.179688 152.070312 157.292969 151.890625 C 157.402344 151.710938 157.542969 151.570312 157.714844 151.464844 C 157.882812 151.363281 158.074219 151.289062 158.285156 151.246094 C 158.492188 151.207031 158.695312 151.183594 158.890625 151.183594 C 159.085938 151.183594 159.257812 151.195312 159.410156 151.222656 C 159.5625 151.246094 159.707031 151.285156 159.835938 151.332031 C 159.96875 151.382812 160.09375 151.441406 160.21875 151.515625 C 160.34375 151.589844 160.480469 151.679688 160.625 151.78125 L 160.128906 152.480469 C 159.910156 152.328125 159.695312 152.210938 159.492188 152.128906 C 159.289062 152.050781 159.078125 152.007812 158.851562 152.007812 C 158.777344 152.007812 158.691406 152.019531 158.59375 152.039062 C 158.496094 152.058594 158.402344 152.089844 158.316406 152.128906 C 158.230469 152.171875 158.15625 152.226562 158.101562 152.292969 C 158.042969 152.359375 158.015625 152.4375 158.015625 152.53125 C 158.015625 152.625 158.046875 152.703125 158.117188 152.765625 C 158.183594 152.828125 158.269531 152.882812 158.375 152.925781 C 158.484375 152.964844 158.597656 153.003906 158.726562 153.03125 C 158.851562 153.0625 158.976562 153.089844 159.09375 153.121094 C 159.183594 153.140625 159.289062 153.164062 159.40625 153.183594 C 159.527344 153.207031 159.652344 153.234375 159.78125 153.273438 C 159.910156 153.3125 160.039062 153.363281 160.167969 153.425781 C 160.292969 153.488281 160.40625 153.570312 160.503906 153.671875 C 160.605469 153.769531 160.683594 153.894531 160.746094 154.039062 C 160.808594 154.183594 160.839844 154.363281 160.839844 154.570312 C 160.839844 154.808594 160.796875 155.019531 160.710938 155.199219 C 160.628906 155.375 160.507812 155.523438 160.351562 155.640625 C 160.195312 155.753906 160.007812 155.84375 159.792969 155.902344 C 159.574219 155.960938 159.335938 155.992188 159.074219 155.992188 C 158.832031 155.992188 158.621094 155.972656 158.4375 155.9375 C 158.253906 155.902344 158.085938 155.851562 157.933594 155.792969 C 157.78125 155.730469 157.636719 155.65625 157.5 155.574219 C 157.367188 155.488281 157.226562 155.394531 157.082031 155.292969 Z M 165.582031 155.902344 L 163.75 155.902344 L 163.75 151.253906 L 165.582031 151.253906 C 166.246094 151.253906 166.792969 151.449219 167.21875 151.839844 C 167.445312 152.046875 167.617188 152.296875 167.734375 152.589844 C 167.851562 152.886719 167.910156 153.214844 167.910156 153.578125 C 167.910156 153.945312 167.851562 154.277344 167.734375 154.574219 C 167.617188 154.867188 167.445312 155.117188 167.21875 155.324219 C 167.011719 155.515625 166.769531 155.660156 166.492188 155.757812 C 166.214844 155.855469 165.914062 155.902344 165.582031 155.902344 Z M 164.640625 155.117188 L 165.585938 155.117188 C 165.75 155.117188 165.917969 155.097656 166.085938 155.058594 C 166.257812 155.019531 166.410156 154.945312 166.546875 154.832031 C 166.683594 154.71875 166.796875 154.566406 166.886719 154.367188 C 166.976562 154.167969 167.019531 153.90625 167.019531 153.585938 C 167.019531 153.261719 166.976562 153 166.886719 152.800781 C 166.796875 152.597656 166.683594 152.445312 166.542969 152.332031 C 166.40625 152.222656 166.25 152.148438 166.082031 152.109375 C 165.910156 152.074219 165.746094 152.054688 165.585938 152.054688 L 164.640625 152.054688 Z M 169.429688 152.042969 L 169.429688 153.203125 L 171.679688 153.203125 L 171.679688 154.011719 L 169.429688 154.011719 L 169.429688 155.101562 L 171.964844 155.101562 L 171.964844 155.902344 L 168.542969 155.902344 L 168.542969 151.253906 L 171.964844 151.253906 L 171.964844 152.042969 Z M 176.0625 155.902344 L 175.175781 155.902344 L 175.175781 151.261719 L 176.0625 151.261719 Z M 181.144531 155.902344 L 178.09375 153.140625 L 178.09375 155.902344 L 177.207031 155.902344 L 177.207031 151.261719 L 177.300781 151.261719 L 180.351562 154.066406 L 180.351562 151.261719 L 181.242188 151.261719 L 181.242188 155.902344 Z M 183.144531 152.042969 L 183.144531 153.191406 L 185.386719 153.191406 L 185.386719 154.011719 L 183.144531 154.011719 L 183.144531 155.902344 L 182.257812 155.902344 L 182.257812 151.253906 L 185.671875 151.253906 L 185.671875 152.042969 Z M 188.566406 155.992188 C 188.234375 155.992188 187.921875 155.929688 187.632812 155.800781 C 187.339844 155.675781 187.085938 155.5 186.867188 155.285156 C 186.648438 155.066406 186.476562 154.808594 186.351562 154.519531 C 186.222656 154.226562 186.160156 153.914062 186.160156 153.578125 C 186.160156 153.25 186.222656 152.9375 186.351562 152.640625 C 186.476562 152.347656 186.648438 152.089844 186.867188 151.875 C 187.085938 151.65625 187.339844 151.484375 187.632812 151.355469 C 187.921875 151.226562 188.234375 151.164062 188.566406 151.164062 C 188.898438 151.164062 189.210938 151.226562 189.503906 151.355469 C 189.796875 151.484375 190.050781 151.65625 190.269531 151.875 C 190.488281 152.089844 190.660156 152.347656 190.785156 152.640625 C 190.914062 152.9375 190.976562 153.25 190.976562 153.578125 C 190.976562 153.914062 190.914062 154.226562 190.785156 154.519531 C 190.660156 154.808594 190.488281 155.066406 190.269531 155.285156 C 190.050781 155.5 189.796875 155.675781 189.503906 155.800781 C 189.210938 155.929688 188.898438 155.992188 188.566406 155.992188 Z M 188.566406 151.996094 C 188.355469 151.996094 188.160156 152.039062 187.976562 152.128906 C 187.792969 152.214844 187.632812 152.328125 187.496094 152.472656 C 187.355469 152.617188 187.25 152.785156 187.167969 152.976562 C 187.089844 153.171875 187.046875 153.371094 187.046875 153.578125 C 187.046875 153.789062 187.089844 153.992188 187.167969 154.183594 C 187.25 154.371094 187.355469 154.539062 187.496094 154.6875 C 187.632812 154.832031 187.792969 154.949219 187.976562 155.035156 C 188.160156 155.121094 188.355469 155.167969 188.566406 155.167969 C 188.78125 155.167969 188.976562 155.121094 189.160156 155.035156 C 189.34375 154.949219 189.503906 154.832031 189.640625 154.6875 C 189.777344 154.539062 189.886719 154.371094 189.96875 154.183594 C 190.046875 153.992188 190.089844 153.789062 190.089844 153.578125 C 190.089844 153.371094 190.046875 153.171875 189.96875 152.976562 C 189.886719 152.785156 189.777344 152.617188 189.640625 152.472656 C 189.503906 152.328125 189.34375 152.214844 189.160156 152.128906 C 188.976562 152.039062 188.78125 151.996094 188.566406 151.996094 Z M 192.652344 155.902344 L 191.761719 155.902344 L 191.761719 151.253906 L 193.875 151.253906 C 194.113281 151.253906 194.328125 151.292969 194.527344 151.371094 C 194.722656 151.449219 194.890625 151.558594 195.03125 151.703125 C 195.171875 151.84375 195.28125 152.011719 195.359375 152.210938 C 195.4375 152.40625 195.476562 152.621094 195.476562 152.855469 C 195.476562 153.207031 195.386719 153.511719 195.210938 153.773438 C 195.035156 154.039062 194.800781 154.226562 194.507812 154.339844 C 194.898438 154.855469 195.285156 155.378906 195.667969 155.902344 L 194.605469 155.902344 C 194.421875 155.660156 194.238281 155.417969 194.0625 155.171875 C 193.886719 154.925781 193.707031 154.675781 193.53125 154.421875 L 192.652344 154.421875 Z M 192.652344 153.636719 L 193.871094 153.636719 C 193.953125 153.636719 194.035156 153.621094 194.121094 153.585938 C 194.207031 153.554688 194.285156 153.507812 194.351562 153.441406 C 194.421875 153.375 194.476562 153.292969 194.519531 153.199219 C 194.566406 153.101562 194.585938 152.984375 194.585938 152.855469 C 194.585938 152.785156 194.578125 152.707031 194.5625 152.613281 C 194.542969 152.519531 194.511719 152.429688 194.460938 152.347656 C 194.410156 152.261719 194.339844 152.191406 194.246094 152.128906 C 194.152344 152.070312 194.027344 152.042969 193.871094 152.042969 L 192.652344 152.042969 Z M 201.007812 151.261719 L 201.007812 155.902344 L 200.121094 155.902344 L 200.121094 153.554688 L 198.667969 155.300781 L 197.222656 153.554688 L 197.222656 155.902344 L 196.332031 155.902344 L 196.332031 151.261719 L 196.390625 151.261719 L 198.667969 153.941406 L 200.953125 151.261719 Z M 201.480469 155.902344 L 203.851562 151.261719 L 203.941406 151.261719 L 206.316406 155.902344 L 205.351562 155.902344 L 204.988281 155.171875 L 202.800781 155.171875 L 202.445312 155.902344 Z M 203.230469 154.398438 L 204.558594 154.398438 L 203.898438 152.992188 Z M 210.863281 154.761719 C 210.761719 154.945312 210.640625 155.113281 210.492188 155.265625 C 210.34375 155.414062 210.179688 155.542969 210 155.652344 C 209.820312 155.761719 209.625 155.84375 209.414062 155.902344 C 209.207031 155.960938 208.988281 155.992188 208.765625 155.992188 C 208.433594 155.992188 208.125 155.929688 207.832031 155.800781 C 207.539062 155.675781 207.285156 155.5 207.066406 155.285156 C 206.847656 155.066406 206.675781 154.808594 206.550781 154.519531 C 206.421875 154.226562 206.359375 153.914062 206.359375 153.585938 C 206.359375 153.253906 206.421875 152.941406 206.550781 152.652344 C 206.675781 152.359375 206.847656 152.105469 207.066406 151.886719 C 207.285156 151.667969 207.539062 151.496094 207.832031 151.367188 C 208.125 151.242188 208.433594 151.175781 208.765625 151.175781 C 208.988281 151.175781 209.207031 151.207031 209.414062 151.265625 C 209.625 151.324219 209.820312 151.410156 210 151.515625 C 210.179688 151.625 210.34375 151.753906 210.492188 151.90625 C 210.640625 152.054688 210.761719 152.222656 210.863281 152.402344 L 210.035156 152.738281 C 209.964844 152.636719 209.886719 152.542969 209.796875 152.453125 C 209.703125 152.363281 209.605469 152.285156 209.496094 152.21875 C 209.382812 152.152344 209.269531 152.097656 209.144531 152.0625 C 209.023438 152.023438 208.894531 152.003906 208.765625 152.003906 C 208.554688 152.003906 208.355469 152.046875 208.171875 152.132812 C 207.988281 152.21875 207.828125 152.335938 207.691406 152.480469 C 207.558594 152.625 207.449219 152.792969 207.367188 152.984375 C 207.289062 153.175781 207.246094 153.378906 207.246094 153.585938 C 207.246094 153.796875 207.289062 153.996094 207.367188 154.1875 C 207.449219 154.378906 207.558594 154.546875 207.691406 154.691406 C 207.828125 154.832031 207.988281 154.949219 208.171875 155.035156 C 208.355469 155.121094 208.554688 155.167969 208.765625 155.167969 C 208.894531 155.167969 209.023438 155.148438 209.144531 155.109375 C 209.269531 155.070312 209.382812 155.019531 209.496094 154.949219 C 209.605469 154.882812 209.703125 154.804688 209.796875 154.710938 C 209.886719 154.621094 209.964844 154.523438 210.035156 154.421875 Z M 212.566406 155.902344 L 211.675781 155.902344 L 211.675781 151.261719 L 212.566406 151.261719 Z M 215.878906 155.992188 C 215.546875 155.992188 215.238281 155.929688 214.945312 155.800781 C 214.652344 155.675781 214.398438 155.5 214.179688 155.285156 C 213.964844 155.066406 213.789062 154.808594 213.664062 154.519531 C 213.535156 154.226562 213.472656 153.914062 213.472656 153.578125 C 213.472656 153.25 213.535156 152.9375 213.664062 152.640625 C 213.789062 152.347656 213.964844 152.089844 214.179688 151.875 C 214.398438 151.65625 214.652344 151.484375 214.945312 151.355469 C 215.238281 151.226562 215.546875 151.164062 215.878906 151.164062 C 216.210938 151.164062 216.527344 151.226562 216.816406 151.355469 C 217.109375 151.484375 217.363281 151.65625 217.582031 151.875 C 217.800781 152.089844 217.972656 152.347656 218.101562 152.640625 C 218.226562 152.9375 218.289062 153.25 218.289062 153.578125 C 218.289062 153.914062 218.226562 154.226562 218.101562 154.519531 C 217.972656 154.808594 217.800781 155.066406 217.582031 155.285156 C 217.363281 155.5 217.109375 155.675781 216.816406 155.800781 C 216.527344 155.929688 216.210938 155.992188 215.878906 155.992188 Z M 215.882812 151.996094 C 215.671875 151.996094 215.472656 152.039062 215.289062 152.128906 C 215.105469 152.214844 214.945312 152.328125 214.808594 152.472656 C 214.671875 152.617188 214.5625 152.785156 214.480469 152.976562 C 214.402344 153.171875 214.363281 153.371094 214.363281 153.578125 C 214.363281 153.789062 214.402344 153.992188 214.480469 154.183594 C 214.5625 154.371094 214.671875 154.539062 214.808594 154.6875 C 214.945312 154.832031 215.105469 154.949219 215.289062 155.035156 C 215.472656 155.121094 215.671875 155.167969 215.882812 155.167969 C 216.09375 155.167969 216.289062 155.121094 216.472656 155.035156 C 216.65625 154.949219 216.816406 154.832031 216.957031 154.6875 C 217.09375 154.539062 217.199219 154.371094 217.28125 154.183594 C 217.363281 153.992188 217.402344 153.789062 217.402344 153.578125 C 217.402344 153.371094 217.363281 153.171875 217.28125 152.976562 C 217.199219 152.785156 217.09375 152.617188 216.957031 152.472656 C 216.816406 152.328125 216.65625 152.214844 216.472656 152.128906 C 216.289062 152.039062 216.09375 151.996094 215.882812 151.996094 Z M 216.074219 150.074219 L 216.8125 150.390625 L 215.960938 151.03125 L 215.332031 151.03125 Z M 223.019531 155.902344 L 219.964844 153.140625 L 219.964844 155.902344 L 219.078125 155.902344 L 219.078125 151.261719 L 219.171875 151.261719 L 222.226562 154.066406 L 222.226562 151.261719 L 223.113281 151.261719 L 223.113281 155.902344 Z M 223.019531 155.902344 "/>
<path style=" stroke:none;fill-rule:evenodd;fill:rgb(0%,68.627451%,93.72549%);fill-opacity:1;" d="M 206.949219 93.726562 L 213.835938 93.726562 L 219.839844 79.671875 L 225.847656 93.726562 L 232.730469 93.726562 L 223.375 71.832031 L 216.304688 71.832031 Z M 206.949219 93.726562 "/>
</g>
</svg>
