<?xml version="1.0" encoding="UTF-8"?>
<svg xmlns="http://www.w3.org/2000/svg" xmlns:xlink="http://www.w3.org/1999/xlink" width="240px" height="185px" viewBox="0 0 239 185" version="1.1">
<g id="surface1">
<path style=" stroke:none;fill-rule:nonzero;fill:rgb(20.392157%,25.882353%,46.666667%);fill-opacity:1;" d="M 88.457031 111.097656 C 85.566406 110.945312 82.820312 110.304688 80.222656 109.171875 C 77.21875 107.863281 74.597656 106.085938 72.355469 103.839844 C 70.113281 101.59375 68.339844 98.96875 67.03125 95.957031 C 65.863281 93.265625 65.21875 90.398438 65.09375 87.359375 L 74.25 87.359375 C 74.363281 89.144531 74.765625 90.855469 75.457031 92.492188 C 76.285156 94.453125 77.394531 96.1875 78.808594 97.691406 C 80.222656 99.195312 81.878906 100.394531 83.761719 101.289062 C 85.242188 101.988281 86.804688 102.414062 88.457031 102.566406 Z M 65.097656 85.167969 C 65.222656 82.175781 65.867188 79.328125 67.03125 76.628906 C 68.339844 73.597656 70.113281 70.957031 72.355469 68.710938 C 74.597656 66.464844 77.21875 64.6875 80.222656 63.378906 C 83.226562 62.074219 86.425781 61.417969 89.824219 61.417969 C 93.261719 61.417969 96.484375 62.074219 99.488281 63.378906 C 102.492188 64.6875 105.113281 66.464844 107.355469 68.710938 C 107.773438 69.128906 108.171875 69.558594 108.554688 70 C 102.320312 70 96.085938 69.988281 89.855469 69.988281 C 87.679688 69.988281 85.652344 70.433594 83.761719 71.328125 C 81.878906 72.222656 80.222656 73.410156 78.808594 74.894531 C 77.394531 76.375 76.285156 78.109375 75.457031 80.09375 C 74.773438 81.734375 74.371094 83.425781 74.253906 85.167969 Z M 91.539062 102.539062 C 93.085938 102.363281 94.554688 101.949219 95.949219 101.289062 C 97.832031 100.394531 99.488281 99.195312 100.902344 97.691406 C 102.316406 96.1875 103.425781 94.453125 104.253906 92.492188 C 105.082031 90.527344 105.496094 88.457031 105.496094 86.277344 C 105.496094 84.140625 105.082031 82.078125 104.253906 80.09375 C 103.425781 78.109375 102.316406 76.375 100.902344 74.894531 C 100.433594 74.402344 99.9375 73.945312 99.417969 73.519531 L 111.09375 73.519531 C 111.683594 74.503906 112.210938 75.539062 112.679688 76.628906 C 113.984375 79.660156 114.636719 82.875 114.636719 86.277344 C 114.636719 89.722656 113.984375 92.949219 112.679688 95.957031 C 111.371094 98.96875 109.597656 101.59375 107.355469 103.839844 C 105.113281 106.085938 102.492188 107.863281 99.488281 109.171875 C 96.988281 110.257812 94.339844 110.894531 91.539062 111.078125 Z M 91.539062 102.539062 "/>
<path style=" stroke:none;fill-rule:nonzero;fill:rgb(20.392157%,25.882353%,46.666667%);fill-opacity:1;" d="M 147.011719 103.742188 L 151.972656 96.414062 C 154.367188 98.074219 156.839844 99.5 159.386719 100.699219 C 161.933594 101.898438 164.597656 102.5 167.386719 102.5 C 168.863281 102.5 170.171875 102.3125 171.304688 101.941406 C 172.433594 101.574219 173.394531 101.09375 174.175781 100.503906 C 174.960938 99.914062 175.546875 99.238281 175.941406 98.476562 C 176.332031 97.714844 176.527344 96.960938 176.527344 96.21875 C 176.527344 95.261719 176.234375 94.441406 175.644531 93.765625 C 175.058594 93.089844 174.273438 92.535156 173.296875 92.097656 C 172.316406 91.664062 171.160156 91.292969 169.832031 90.984375 C 168.507812 90.679688 167.125 90.398438 165.6875 90.136719 C 164.730469 89.960938 163.621094 89.753906 162.355469 89.515625 C 161.09375 89.273438 159.789062 88.949219 158.4375 88.53125 C 157.089844 88.117188 155.761719 87.574219 154.453125 86.898438 C 153.148438 86.222656 151.972656 85.371094 150.929688 84.347656 C 149.882812 83.320312 149.046875 82.101562 148.414062 80.683594 C 147.785156 79.265625 147.46875 77.597656 147.46875 75.679688 C 147.46875 74.925781 147.507812 74.203125 147.589844 73.519531 L 157.023438 73.519531 C 156.746094 74.042969 156.609375 74.628906 156.609375 75.285156 C 156.609375 76.246094 156.957031 77.050781 157.65625 77.707031 C 158.351562 78.359375 159.242188 78.90625 160.332031 79.34375 C 161.421875 79.777344 162.617188 80.148438 163.925781 80.453125 C 165.230469 80.757812 166.492188 81.066406 167.710938 81.371094 C 168.625 81.589844 169.703125 81.804688 170.945312 82.023438 C 172.183594 82.242188 173.46875 82.546875 174.796875 82.941406 C 176.125 83.332031 177.441406 83.855469 178.746094 84.511719 C 180.054688 85.164062 181.21875 86.003906 182.242188 87.027344 C 183.265625 88.054688 184.089844 89.316406 184.722656 90.824219 C 185.355469 92.328125 185.667969 94.148438 185.667969 96.285156 C 185.667969 98.769531 185.234375 100.929688 184.363281 102.761719 C 183.492188 104.59375 182.253906 106.109375 180.640625 107.308594 C 179.03125 108.507812 177.113281 109.410156 174.894531 110.023438 C 172.675781 110.632812 170.214844 110.9375 167.515625 110.9375 C 165.035156 110.9375 162.847656 110.753906 160.953125 110.382812 C 159.058594 110.011719 157.328125 109.511719 155.761719 108.878906 C 154.195312 108.246094 152.714844 107.492188 151.320312 106.621094 C 149.925781 105.75 148.492188 104.789062 147.011719 103.742188 Z M 147.011719 103.742188 "/>
<path style=" stroke:none;fill-rule:nonzero;fill:rgb(20.392157%,25.882353%,46.666667%);fill-opacity:1;" d="M 132.34375 69.984375 L 132.292969 109.300781 L 123.152344 109.300781 L 123.199219 69.984375 L 89.871094 69.984375 L 89.824219 61.417969 L 167.582031 61.417969 L 163.734375 69.984375 Z M 132.34375 69.984375 "/>
<path style=" stroke:none;fill-rule:evenodd;fill:rgb(0%,68.627451%,93.72549%);fill-opacity:1;" d="M 90.085938 77.339844 C 86.886719 77.339844 84.496094 78.746094 82.667969 81.183594 C 82.289062 81.6875 81.546875 82.964844 81.484375 83.722656 L 58.652344 83.722656 C 57.582031 83.722656 55.804688 83.582031 54.976562 83.871094 C 52.945312 84.589844 52.652344 87.664062 54.898438 88.652344 C 55.777344 89.042969 57.410156 88.828125 58.542969 88.828125 L 81.484375 88.828125 C 81.609375 90.347656 83.371094 92.425781 84.335938 93.207031 C 85.859375 94.441406 87.695312 95.113281 89.554688 95.210938 L 90.496094 95.210938 C 92.136719 95.128906 93.757812 94.589844 95.15625 93.589844 C 95.390625 93.421875 95.539062 93.304688 95.742188 93.113281 C 96.386719 92.496094 96.640625 92.359375 97.28125 91.460938 C 98.335938 89.980469 98.847656 88.320312 98.902344 86.671875 L 98.902344 86.078125 C 98.753906 81.578125 95.242188 77.339844 90.085938 77.339844 Z M 82.617188 87.359375 C 81.191406 87.359375 58.152344 87.277344 57.328125 87.371094 C 55.332031 87.597656 54.839844 87.257812 54.839844 85.898438 C 54.839844 85.691406 55.097656 85.550781 55.253906 85.4375 C 55.832031 85.011719 56.714844 85.167969 57.609375 85.167969 L 82.617188 85.167969 C 82.71875 83.933594 83.941406 81.578125 84.988281 80.753906 C 85.394531 80.4375 85.335938 80.410156 85.925781 80.011719 C 89.429688 77.660156 94.546875 78.910156 96.664062 82.855469 C 97.6875 84.765625 97.671875 87.589844 96.6875 89.550781 C 95.71875 91.484375 93.996094 92.945312 91.902344 93.523438 C 90.910156 93.792969 89.753906 93.84375 88.746094 93.636719 C 88.199219 93.523438 87.882812 93.429688 87.382812 93.25 C 84.847656 92.347656 83.511719 90.605469 82.820312 88.105469 C 82.757812 87.878906 82.640625 87.632812 82.617188 87.359375 Z M 82.617188 87.359375 "/>
<path style=" stroke:none;fill-rule:evenodd;fill:rgb(20.392157%,25.882353%,46.666667%);fill-opacity:1;" d="M 77.265625 86.160156 C 77.265625 90.75 79.277344 94.179688 82.757812 96.800781 C 83.484375 97.347656 85.304688 98.40625 86.390625 98.496094 L 86.390625 120.089844 C 86.390625 121.621094 86.183594 124.167969 86.601562 125.355469 C 87.628906 128.273438 92.019531 128.6875 93.4375 125.472656 C 93.988281 124.210938 93.6875 121.867188 93.6875 120.242188 L 93.6875 98.496094 C 95.859375 98.316406 98.828125 95.792969 99.945312 94.40625 C 101.707031 92.222656 102.671875 89.589844 102.808594 86.921875 L 102.808594 85.574219 C 102.6875 83.21875 101.917969 80.894531 100.488281 78.890625 C 100.25 78.554688 100.085938 78.339844 99.808594 78.046875 C 98.929688 77.125 98.734375 76.761719 97.449219 75.84375 C 95.335938 74.328125 92.960938 73.597656 90.605469 73.519531 L 89.757812 73.519531 C 83.324219 73.730469 77.265625 78.765625 77.265625 86.160156 Z M 91.589844 96.875 C 91.589844 98.917969 91.46875 120.800781 91.601562 121.984375 C 91.925781 124.851562 91.441406 125.554688 89.5 125.554688 C 89.199219 125.554688 89.003906 125.1875 88.839844 124.960938 C 88.230469 124.132812 88.457031 122.863281 88.457031 121.582031 L 88.457031 96.875 C 86.6875 96.726562 83.324219 94.972656 82.148438 93.46875 C 81.695312 92.890625 81.652344 92.976562 81.085938 92.128906 C 77.726562 87.101562 79.507812 79.765625 85.148438 76.726562 C 87.875 75.261719 91.917969 75.285156 94.71875 76.695312 C 97.480469 78.085938 99.570312 80.554688 100.394531 83.558594 C 100.78125 84.980469 100.851562 86.636719 100.558594 88.085938 C 100.394531 88.867188 100.257812 89.320312 100.003906 90.039062 C 98.714844 93.675781 96.222656 95.589844 92.652344 96.582031 C 92.328125 96.671875 91.980469 96.839844 91.589844 96.875 Z M 91.589844 96.875 "/>
<path style=" stroke:none;fill-rule:nonzero;fill:rgb(0%,68.627451%,93.72549%);fill-opacity:1;" d="M 98.792969 118.65625 C 98.527344 118.65625 98.28125 118.605469 98.046875 118.503906 C 97.816406 118.402344 97.613281 118.265625 97.4375 118.09375 C 97.265625 117.917969 97.128906 117.714844 97.027344 117.480469 C 96.925781 117.25 96.875 117 96.875 116.734375 C 96.875 116.46875 96.925781 116.21875 97.027344 115.984375 C 97.128906 115.75 97.265625 115.546875 97.4375 115.371094 C 97.613281 115.199219 97.816406 115.0625 98.046875 114.960938 C 98.28125 114.859375 98.527344 114.808594 98.792969 114.808594 C 99.058594 114.808594 99.308594 114.859375 99.539062 114.960938 C 99.773438 115.0625 99.976562 115.199219 100.148438 115.371094 C 100.324219 115.546875 100.460938 115.75 100.5625 115.984375 C 100.664062 116.21875 100.710938 116.46875 100.710938 116.734375 C 100.710938 117 100.664062 117.25 100.5625 117.480469 C 100.460938 117.714844 100.324219 117.917969 100.148438 118.09375 C 99.976562 118.265625 99.773438 118.402344 99.539062 118.503906 C 99.308594 118.605469 99.058594 118.65625 98.792969 118.65625 Z M 98.792969 115.472656 C 98.625 115.472656 98.46875 115.507812 98.320312 115.574219 C 98.175781 115.644531 98.046875 115.738281 97.9375 115.851562 C 97.828125 115.964844 97.742188 116.101562 97.679688 116.253906 C 97.613281 116.40625 97.582031 116.566406 97.582031 116.734375 C 97.582031 116.902344 97.613281 117.0625 97.679688 117.214844 C 97.742188 117.367188 97.828125 117.5 97.9375 117.617188 C 98.046875 117.734375 98.175781 117.824219 98.320312 117.894531 C 98.46875 117.964844 98.625 118 98.792969 118 C 98.960938 118 99.121094 117.964844 99.265625 117.894531 C 99.410156 117.824219 99.539062 117.734375 99.648438 117.617188 C 99.757812 117.5 99.84375 117.367188 99.910156 117.214844 C 99.972656 117.0625 100.003906 116.902344 100.003906 116.734375 C 100.003906 116.566406 99.972656 116.40625 99.910156 116.253906 C 99.84375 116.101562 99.757812 115.964844 99.648438 115.851562 C 99.539062 115.738281 99.410156 115.644531 99.265625 115.574219 C 99.121094 115.507812 98.960938 115.472656 98.792969 115.472656 Z M 104.050781 115.910156 C 104.050781 115.984375 104.035156 116.0625 104.003906 116.148438 C 103.972656 116.234375 103.933594 116.3125 103.878906 116.382812 C 103.828125 116.453125 103.765625 116.515625 103.691406 116.5625 C 103.617188 116.613281 103.535156 116.636719 103.449219 116.640625 C 103.539062 116.648438 103.628906 116.675781 103.71875 116.71875 C 103.808594 116.765625 103.886719 116.824219 103.957031 116.902344 C 104.027344 116.980469 104.085938 117.070312 104.132812 117.171875 C 104.179688 117.273438 104.199219 117.378906 104.199219 117.496094 C 104.199219 117.699219 104.171875 117.867188 104.109375 118.007812 C 104.050781 118.148438 103.96875 118.261719 103.863281 118.347656 C 103.757812 118.429688 103.636719 118.492188 103.496094 118.53125 C 103.355469 118.566406 103.207031 118.585938 103.046875 118.585938 L 101.339844 118.585938 L 101.339844 114.878906 L 102.96875 114.878906 C 103.117188 114.878906 103.253906 114.894531 103.386719 114.921875 C 103.519531 114.949219 103.632812 115.003906 103.730469 115.078125 C 103.828125 115.15625 103.90625 115.261719 103.964844 115.394531 C 104.019531 115.527344 104.050781 115.699219 104.050781 115.910156 Z M 103.046875 117.957031 C 103.109375 117.957031 103.167969 117.945312 103.21875 117.914062 C 103.273438 117.886719 103.320312 117.847656 103.363281 117.796875 C 103.402344 117.75 103.433594 117.695312 103.457031 117.636719 C 103.480469 117.578125 103.492188 117.515625 103.492188 117.457031 C 103.492188 117.332031 103.445312 117.226562 103.355469 117.144531 C 103.261719 117.058594 103.132812 117.015625 102.972656 117.015625 L 102.046875 117.015625 L 102.046875 117.957031 Z M 102.046875 116.386719 L 102.917969 116.386719 C 102.988281 116.386719 103.050781 116.375 103.101562 116.347656 C 103.152344 116.320312 103.199219 116.285156 103.234375 116.242188 C 103.269531 116.195312 103.296875 116.144531 103.3125 116.089844 C 103.332031 116.035156 103.339844 115.980469 103.339844 115.925781 C 103.339844 115.871094 103.332031 115.816406 103.3125 115.765625 C 103.292969 115.714844 103.265625 115.671875 103.230469 115.632812 C 103.195312 115.597656 103.15625 115.566406 103.113281 115.542969 C 103.066406 115.519531 103.019531 115.507812 102.96875 115.507812 L 102.046875 115.507812 Z M 104.707031 118.101562 L 105.089844 117.53125 C 105.277344 117.660156 105.46875 117.773438 105.664062 117.863281 C 105.863281 117.957031 106.066406 118.003906 106.285156 118.003906 C 106.398438 118.003906 106.5 117.988281 106.585938 117.960938 C 106.675781 117.933594 106.75 117.894531 106.808594 117.847656 C 106.871094 117.804688 106.914062 117.75 106.945312 117.691406 C 106.976562 117.632812 106.992188 117.574219 106.992188 117.515625 C 106.992188 117.441406 106.96875 117.378906 106.921875 117.328125 C 106.878906 117.273438 106.816406 117.230469 106.742188 117.199219 C 106.664062 117.164062 106.578125 117.136719 106.472656 117.113281 C 106.371094 117.089844 106.265625 117.066406 106.152344 117.046875 C 106.078125 117.03125 105.992188 117.015625 105.894531 117 C 105.796875 116.980469 105.695312 116.953125 105.589844 116.921875 C 105.488281 116.890625 105.382812 116.847656 105.28125 116.796875 C 105.183594 116.742188 105.089844 116.675781 105.011719 116.597656 C 104.929688 116.519531 104.863281 116.425781 104.816406 116.316406 C 104.765625 116.203125 104.742188 116.074219 104.742188 115.925781 C 104.742188 115.710938 104.785156 115.53125 104.875 115.386719 C 104.960938 115.246094 105.074219 115.132812 105.210938 115.046875 C 105.347656 114.964844 105.496094 114.90625 105.664062 114.875 C 105.832031 114.839844 105.992188 114.824219 106.148438 114.824219 C 106.300781 114.824219 106.441406 114.832031 106.5625 114.855469 C 106.683594 114.875 106.796875 114.902344 106.902344 114.941406 C 107.003906 114.980469 107.105469 115.03125 107.207031 115.089844 C 107.304688 115.148438 107.414062 115.21875 107.527344 115.300781 L 107.132812 115.855469 C 106.957031 115.734375 106.789062 115.640625 106.628906 115.578125 C 106.464844 115.515625 106.296875 115.480469 106.117188 115.480469 C 106.054688 115.480469 105.988281 115.488281 105.910156 115.503906 C 105.832031 115.519531 105.757812 115.542969 105.691406 115.578125 C 105.621094 115.613281 105.5625 115.65625 105.519531 115.707031 C 105.472656 115.757812 105.449219 115.824219 105.449219 115.898438 C 105.449219 115.972656 105.476562 116.035156 105.53125 116.085938 C 105.585938 116.136719 105.652344 116.175781 105.738281 116.210938 C 105.824219 116.246094 105.914062 116.273438 106.015625 116.296875 C 106.117188 116.320312 106.214844 116.34375 106.308594 116.367188 C 106.378906 116.382812 106.464844 116.402344 106.558594 116.417969 C 106.65625 116.433594 106.753906 116.460938 106.859375 116.488281 C 106.960938 116.519531 107.0625 116.558594 107.164062 116.609375 C 107.265625 116.660156 107.355469 116.726562 107.433594 116.804688 C 107.511719 116.886719 107.578125 116.984375 107.625 117.097656 C 107.675781 117.214844 107.699219 117.355469 107.699219 117.523438 C 107.699219 117.714844 107.664062 117.882812 107.597656 118.023438 C 107.53125 118.164062 107.433594 118.28125 107.308594 118.375 C 107.1875 118.46875 107.039062 118.539062 106.867188 118.585938 C 106.695312 118.632812 106.503906 118.65625 106.292969 118.65625 C 106.101562 118.65625 105.933594 118.644531 105.785156 118.613281 C 105.640625 118.585938 105.503906 118.546875 105.382812 118.496094 C 105.261719 118.449219 105.148438 118.390625 105.039062 118.324219 C 104.933594 118.253906 104.820312 118.179688 104.707031 118.101562 Z M 109 115.507812 L 109 116.433594 L 110.789062 116.433594 L 110.789062 117.078125 L 109 117.078125 L 109 117.949219 L 111.015625 117.949219 L 111.015625 118.585938 L 108.292969 118.585938 L 108.292969 114.878906 L 111.015625 114.878906 L 111.015625 115.507812 Z M 112.453125 118.585938 L 111.746094 118.585938 L 111.746094 114.878906 L 113.425781 114.878906 C 113.613281 114.878906 113.789062 114.910156 113.945312 114.972656 C 114.101562 115.035156 114.234375 115.121094 114.347656 115.234375 C 114.460938 115.347656 114.546875 115.484375 114.609375 115.640625 C 114.671875 115.796875 114.703125 115.96875 114.703125 116.15625 C 114.703125 116.433594 114.632812 116.679688 114.492188 116.890625 C 114.351562 117.097656 114.164062 117.25 113.933594 117.339844 C 114.242188 117.753906 114.550781 118.167969 114.855469 118.585938 L 114.007812 118.585938 C 113.863281 118.394531 113.71875 118.199219 113.574219 118.003906 C 113.433594 117.808594 113.292969 117.609375 113.152344 117.40625 L 112.453125 117.40625 Z M 112.453125 116.777344 L 113.425781 116.777344 C 113.488281 116.777344 113.554688 116.765625 113.625 116.738281 C 113.691406 116.714844 113.753906 116.675781 113.808594 116.625 C 113.859375 116.570312 113.90625 116.507812 113.941406 116.429688 C 113.976562 116.351562 113.992188 116.261719 113.992188 116.15625 C 113.992188 116.101562 113.988281 116.035156 113.972656 115.960938 C 113.960938 115.886719 113.933594 115.816406 113.894531 115.75 C 113.851562 115.683594 113.796875 115.625 113.722656 115.578125 C 113.648438 115.53125 113.550781 115.507812 113.425781 115.507812 L 112.453125 115.507812 Z M 118.394531 114.882812 L 116.632812 118.585938 L 116.59375 118.585938 L 114.839844 114.882812 L 115.617188 114.882812 L 116.613281 117.03125 L 117.609375 114.882812 Z M 117.855469 118.585938 L 119.746094 114.882812 L 119.816406 114.882812 L 121.710938 118.585938 L 120.941406 118.585938 L 120.652344 118.003906 L 118.910156 118.003906 L 118.625 118.585938 Z M 119.253906 117.386719 L 120.308594 117.386719 L 119.78125 116.265625 Z M 124.089844 115.507812 L 123.035156 115.507812 L 123.035156 118.585938 L 122.324219 118.585938 L 122.324219 115.507812 L 121.265625 115.507812 L 121.265625 114.878906 L 124.089844 114.878906 Z M 126.222656 118.65625 C 125.960938 118.65625 125.714844 118.605469 125.480469 118.503906 C 125.25 118.402344 125.046875 118.265625 124.871094 118.09375 C 124.699219 117.917969 124.5625 117.714844 124.460938 117.480469 C 124.359375 117.25 124.308594 117 124.308594 116.734375 C 124.308594 116.46875 124.359375 116.21875 124.460938 115.984375 C 124.5625 115.75 124.699219 115.546875 124.871094 115.371094 C 125.046875 115.199219 125.25 115.0625 125.480469 114.960938 C 125.714844 114.859375 125.960938 114.808594 126.222656 114.808594 C 126.492188 114.808594 126.738281 114.859375 126.972656 114.960938 C 127.203125 115.0625 127.40625 115.199219 127.582031 115.371094 C 127.753906 115.546875 127.890625 115.75 127.992188 115.984375 C 128.09375 116.21875 128.144531 116.46875 128.144531 116.734375 C 128.144531 117 128.09375 117.25 127.992188 117.480469 C 127.890625 117.714844 127.753906 117.917969 127.582031 118.09375 C 127.40625 118.265625 127.203125 118.402344 126.972656 118.503906 C 126.738281 118.605469 126.492188 118.65625 126.222656 118.65625 Z M 126.226562 115.472656 C 126.058594 115.472656 125.902344 115.507812 125.753906 115.574219 C 125.609375 115.644531 125.480469 115.738281 125.371094 115.851562 C 125.261719 115.964844 125.175781 116.101562 125.113281 116.253906 C 125.046875 116.40625 125.015625 116.566406 125.015625 116.734375 C 125.015625 116.902344 125.046875 117.0625 125.113281 117.214844 C 125.175781 117.367188 125.261719 117.5 125.371094 117.617188 C 125.480469 117.734375 125.609375 117.824219 125.753906 117.894531 C 125.902344 117.964844 126.058594 118 126.226562 118 C 126.394531 118 126.550781 117.964844 126.699219 117.894531 C 126.84375 117.824219 126.972656 117.734375 127.082031 117.617188 C 127.191406 117.5 127.277344 117.367188 127.339844 117.214844 C 127.40625 117.0625 127.4375 116.902344 127.4375 116.734375 C 127.4375 116.566406 127.40625 116.40625 127.339844 116.253906 C 127.277344 116.101562 127.191406 115.964844 127.082031 115.851562 C 126.972656 115.738281 126.84375 115.644531 126.699219 115.574219 C 126.550781 115.507812 126.394531 115.472656 126.226562 115.472656 Z M 129.480469 118.585938 L 128.773438 118.585938 L 128.773438 114.878906 L 130.453125 114.878906 C 130.644531 114.878906 130.816406 114.910156 130.972656 114.972656 C 131.128906 115.035156 131.265625 115.121094 131.375 115.234375 C 131.488281 115.347656 131.574219 115.484375 131.636719 115.640625 C 131.699219 115.796875 131.730469 115.96875 131.730469 116.15625 C 131.730469 116.433594 131.660156 116.679688 131.519531 116.890625 C 131.378906 117.097656 131.191406 117.25 130.960938 117.339844 C 131.269531 117.753906 131.578125 118.167969 131.882812 118.585938 L 131.039062 118.585938 C 130.890625 118.394531 130.746094 118.199219 130.605469 118.003906 C 130.460938 117.808594 130.320312 117.609375 130.179688 117.40625 L 129.480469 117.40625 Z M 129.480469 116.777344 L 130.453125 116.777344 C 130.515625 116.777344 130.582031 116.765625 130.652344 116.738281 C 130.71875 116.714844 130.78125 116.675781 130.835938 116.625 C 130.890625 116.570312 130.933594 116.507812 130.96875 116.429688 C 131.003906 116.351562 131.023438 116.261719 131.023438 116.15625 C 131.023438 116.101562 131.015625 116.035156 131 115.960938 C 130.988281 115.886719 130.960938 115.816406 130.921875 115.75 C 130.882812 115.683594 130.824219 115.625 130.75 115.578125 C 130.675781 115.53125 130.578125 115.507812 130.453125 115.507812 L 129.480469 115.507812 Z M 133.222656 118.585938 L 132.511719 118.585938 L 132.511719 114.882812 L 133.222656 114.882812 Z M 135.859375 118.65625 C 135.597656 118.65625 135.351562 118.605469 135.117188 118.503906 C 134.882812 118.402344 134.679688 118.265625 134.507812 118.09375 C 134.335938 117.917969 134.195312 117.714844 134.097656 117.480469 C 133.996094 117.25 133.945312 117 133.945312 116.734375 C 133.945312 116.46875 133.996094 116.21875 134.097656 115.984375 C 134.195312 115.75 134.335938 115.546875 134.507812 115.371094 C 134.679688 115.199219 134.882812 115.0625 135.117188 114.960938 C 135.351562 114.859375 135.597656 114.808594 135.859375 114.808594 C 136.125 114.808594 136.375 114.859375 136.609375 114.960938 C 136.839844 115.0625 137.042969 115.199219 137.21875 115.371094 C 137.390625 115.546875 137.527344 115.75 137.628906 115.984375 C 137.730469 116.21875 137.78125 116.46875 137.78125 116.734375 C 137.78125 117 137.730469 117.25 137.628906 117.480469 C 137.527344 117.714844 137.390625 117.917969 137.21875 118.09375 C 137.042969 118.265625 136.839844 118.402344 136.609375 118.503906 C 136.375 118.605469 136.125 118.65625 135.859375 118.65625 Z M 135.863281 115.472656 C 135.695312 115.472656 135.539062 115.507812 135.390625 115.574219 C 135.246094 115.644531 135.117188 115.738281 135.007812 115.851562 C 134.898438 115.964844 134.8125 116.101562 134.75 116.253906 C 134.683594 116.40625 134.652344 116.566406 134.652344 116.734375 C 134.652344 116.902344 134.683594 117.0625 134.75 117.214844 C 134.8125 117.367188 134.898438 117.5 135.007812 117.617188 C 135.117188 117.734375 135.246094 117.824219 135.390625 117.894531 C 135.539062 117.964844 135.695312 118 135.863281 118 C 136.03125 118 136.1875 117.964844 136.335938 117.894531 C 136.480469 117.824219 136.609375 117.734375 136.71875 117.617188 C 136.828125 117.5 136.914062 117.367188 136.976562 117.214844 C 137.042969 117.0625 137.074219 116.902344 137.074219 116.734375 C 137.074219 116.566406 137.042969 116.40625 136.976562 116.253906 C 136.914062 116.101562 136.828125 115.964844 136.71875 115.851562 C 136.609375 115.738281 136.480469 115.644531 136.335938 115.574219 C 136.1875 115.507812 136.03125 115.472656 135.863281 115.472656 Z M 142.796875 115.507812 L 141.738281 115.507812 L 141.738281 118.585938 L 141.03125 118.585938 L 141.03125 115.507812 L 139.96875 115.507812 L 139.96875 114.878906 L 142.796875 114.878906 Z M 143.988281 115.507812 L 143.988281 116.433594 L 145.78125 116.433594 L 145.78125 117.078125 L 143.988281 117.078125 L 143.988281 117.949219 L 146.007812 117.949219 L 146.007812 118.585938 L 143.28125 118.585938 L 143.28125 114.878906 L 146.007812 114.878906 L 146.007812 115.507812 Z M 150.019531 117.675781 C 149.941406 117.824219 149.839844 117.957031 149.722656 118.078125 C 149.605469 118.195312 149.476562 118.300781 149.332031 118.386719 C 149.1875 118.472656 149.03125 118.539062 148.867188 118.585938 C 148.699219 118.632812 148.527344 118.65625 148.347656 118.65625 C 148.085938 118.65625 147.835938 118.605469 147.605469 118.503906 C 147.371094 118.402344 147.167969 118.265625 146.996094 118.09375 C 146.820312 117.917969 146.683594 117.714844 146.582031 117.480469 C 146.484375 117.25 146.433594 117 146.433594 116.738281 C 146.433594 116.472656 146.484375 116.226562 146.582031 115.992188 C 146.683594 115.761719 146.820312 115.558594 146.996094 115.382812 C 147.167969 115.207031 147.371094 115.070312 147.605469 114.96875 C 147.835938 114.867188 148.085938 114.816406 148.347656 114.816406 C 148.527344 114.816406 148.699219 114.84375 148.867188 114.890625 C 149.03125 114.9375 149.1875 115.003906 149.332031 115.089844 C 149.476562 115.175781 149.605469 115.277344 149.722656 115.398438 C 149.839844 115.519531 149.941406 115.648438 150.019531 115.796875 L 149.359375 116.0625 C 149.304688 115.984375 149.242188 115.90625 149.167969 115.835938 C 149.097656 115.765625 149.015625 115.703125 148.929688 115.648438 C 148.839844 115.59375 148.75 115.550781 148.652344 115.523438 C 148.554688 115.492188 148.453125 115.476562 148.347656 115.476562 C 148.179688 115.476562 148.023438 115.511719 147.875 115.582031 C 147.730469 115.648438 147.601562 115.742188 147.492188 115.855469 C 147.386719 115.972656 147.300781 116.105469 147.234375 116.257812 C 147.171875 116.414062 147.140625 116.570312 147.140625 116.738281 C 147.140625 116.90625 147.171875 117.066406 147.234375 117.21875 C 147.300781 117.371094 147.386719 117.503906 147.492188 117.617188 C 147.601562 117.734375 147.730469 117.824219 147.875 117.894531 C 148.023438 117.964844 148.179688 118 148.347656 118 C 148.453125 118 148.554688 117.984375 148.652344 117.953125 C 148.75 117.921875 148.839844 117.878906 148.929688 117.828125 C 149.015625 117.773438 149.097656 117.710938 149.167969 117.636719 C 149.242188 117.5625 149.304688 117.488281 149.359375 117.40625 Z M 153.707031 118.585938 L 151.273438 116.382812 L 151.273438 118.585938 L 150.566406 118.585938 L 150.566406 114.882812 L 150.644531 114.882812 L 153.074219 117.121094 L 153.074219 114.882812 L 153.78125 114.882812 L 153.78125 118.585938 Z M 156.320312 118.65625 C 156.058594 118.65625 155.808594 118.605469 155.578125 118.503906 C 155.34375 118.402344 155.140625 118.265625 154.96875 118.09375 C 154.796875 117.917969 154.65625 117.714844 154.554688 117.480469 C 154.457031 117.25 154.40625 117 154.40625 116.734375 C 154.40625 116.46875 154.457031 116.21875 154.554688 115.984375 C 154.65625 115.75 154.796875 115.546875 154.96875 115.371094 C 155.140625 115.199219 155.34375 115.0625 155.578125 114.960938 C 155.808594 114.859375 156.058594 114.808594 156.320312 114.808594 C 156.585938 114.808594 156.835938 114.859375 157.070312 114.960938 C 157.300781 115.0625 157.503906 115.199219 157.679688 115.371094 C 157.851562 115.546875 157.988281 115.75 158.089844 115.984375 C 158.191406 116.21875 158.242188 116.46875 158.242188 116.734375 C 158.242188 117 158.191406 117.25 158.089844 117.480469 C 157.988281 117.714844 157.851562 117.917969 157.679688 118.09375 C 157.503906 118.265625 157.300781 118.402344 157.070312 118.503906 C 156.835938 118.605469 156.585938 118.65625 156.320312 118.65625 Z M 156.324219 115.472656 C 156.15625 115.472656 156 115.507812 155.851562 115.574219 C 155.707031 115.644531 155.578125 115.738281 155.46875 115.851562 C 155.359375 115.964844 155.273438 116.101562 155.207031 116.253906 C 155.144531 116.40625 155.113281 116.566406 155.113281 116.734375 C 155.113281 116.902344 155.144531 117.0625 155.207031 117.214844 C 155.273438 117.367188 155.359375 117.5 155.46875 117.617188 C 155.578125 117.734375 155.707031 117.824219 155.851562 117.894531 C 156 117.964844 156.15625 118 156.324219 118 C 156.492188 118 156.648438 117.964844 156.796875 117.894531 C 156.941406 117.824219 157.070312 117.734375 157.179688 117.617188 C 157.289062 117.5 157.375 117.367188 157.4375 117.214844 C 157.503906 117.0625 157.535156 116.902344 157.535156 116.734375 C 157.535156 116.566406 157.503906 116.40625 157.4375 116.253906 C 157.375 116.101562 157.289062 115.964844 157.179688 115.851562 C 157.070312 115.738281 156.941406 115.644531 156.796875 115.574219 C 156.648438 115.507812 156.492188 115.472656 156.324219 115.472656 Z M 161.535156 117.957031 L 161.535156 118.585938 L 158.867188 118.585938 L 158.867188 114.878906 L 159.578125 114.878906 L 159.578125 117.957031 Z M 163.5 118.65625 C 163.238281 118.65625 162.988281 118.605469 162.757812 118.503906 C 162.523438 118.402344 162.320312 118.265625 162.148438 118.09375 C 161.972656 117.917969 161.835938 117.714844 161.734375 117.480469 C 161.632812 117.25 161.585938 117 161.585938 116.734375 C 161.585938 116.46875 161.632812 116.21875 161.734375 115.984375 C 161.835938 115.75 161.972656 115.546875 162.148438 115.371094 C 162.320312 115.199219 162.523438 115.0625 162.757812 114.960938 C 162.988281 114.859375 163.238281 114.808594 163.5 114.808594 C 163.765625 114.808594 164.015625 114.859375 164.25 114.960938 C 164.480469 115.0625 164.683594 115.199219 164.859375 115.371094 C 165.03125 115.546875 165.167969 115.75 165.269531 115.984375 C 165.371094 116.21875 165.421875 116.46875 165.421875 116.734375 C 165.421875 117 165.371094 117.25 165.269531 117.480469 C 165.167969 117.714844 165.03125 117.917969 164.859375 118.09375 C 164.683594 118.265625 164.480469 118.402344 164.25 118.503906 C 164.015625 118.605469 163.765625 118.65625 163.5 118.65625 Z M 163.503906 115.472656 C 163.335938 115.472656 163.175781 115.507812 163.03125 115.574219 C 162.886719 115.644531 162.757812 115.738281 162.648438 115.851562 C 162.539062 115.964844 162.453125 116.101562 162.386719 116.253906 C 162.324219 116.40625 162.292969 116.566406 162.292969 116.734375 C 162.292969 116.902344 162.324219 117.0625 162.386719 117.214844 C 162.453125 117.367188 162.539062 117.5 162.648438 117.617188 C 162.757812 117.734375 162.886719 117.824219 163.03125 117.894531 C 163.175781 117.964844 163.335938 118 163.503906 118 C 163.671875 118 163.828125 117.964844 163.972656 117.894531 C 164.121094 117.824219 164.25 117.734375 164.359375 117.617188 C 164.46875 117.5 164.554688 117.367188 164.617188 117.214844 C 164.679688 117.0625 164.714844 116.902344 164.714844 116.734375 C 164.714844 116.566406 164.679688 116.40625 164.617188 116.253906 C 164.554688 116.101562 164.46875 115.964844 164.359375 115.851562 C 164.25 115.738281 164.121094 115.644531 163.972656 115.574219 C 163.828125 115.507812 163.671875 115.472656 163.503906 115.472656 Z M 163.65625 113.9375 L 164.242188 114.191406 L 163.566406 114.703125 L 163.066406 114.703125 Z M 169.644531 116.558594 C 169.640625 116.632812 169.636719 116.695312 169.636719 116.757812 C 169.632812 116.8125 169.632812 116.863281 169.632812 116.917969 C 169.632812 116.96875 169.632812 117.007812 169.628906 117.035156 C 169.609375 117.269531 169.542969 117.484375 169.4375 117.683594 C 169.332031 117.882812 169.195312 118.054688 169.027344 118.199219 C 168.863281 118.34375 168.667969 118.453125 168.453125 118.535156 C 168.234375 118.617188 168.007812 118.65625 167.765625 118.65625 C 167.503906 118.65625 167.257812 118.605469 167.023438 118.503906 C 166.792969 118.402344 166.585938 118.265625 166.414062 118.09375 C 166.238281 117.917969 166.101562 117.714844 166 117.480469 C 165.898438 117.25 165.847656 117 165.847656 116.738281 C 165.847656 116.472656 165.898438 116.226562 166 115.992188 C 166.101562 115.753906 166.238281 115.550781 166.414062 115.378906 C 166.585938 115.203125 166.792969 115.066406 167.023438 114.964844 C 167.257812 114.863281 167.503906 114.8125 167.765625 114.8125 C 168.101562 114.8125 168.40625 114.890625 168.683594 115.046875 C 168.960938 115.203125 169.1875 115.410156 169.359375 115.667969 L 168.753906 116.039062 C 168.644531 115.878906 168.503906 115.746094 168.332031 115.636719 C 168.15625 115.53125 167.96875 115.476562 167.765625 115.476562 C 167.597656 115.476562 167.441406 115.511719 167.292969 115.582031 C 167.148438 115.648438 167.019531 115.742188 166.910156 115.855469 C 166.800781 115.972656 166.714844 116.105469 166.648438 116.257812 C 166.585938 116.414062 166.554688 116.570312 166.554688 116.738281 C 166.554688 116.90625 166.585938 117.066406 166.648438 117.21875 C 166.714844 117.371094 166.800781 117.503906 166.910156 117.617188 C 167.019531 117.734375 167.148438 117.824219 167.292969 117.894531 C 167.441406 117.964844 167.597656 118 167.765625 118 C 167.894531 118 168.019531 117.980469 168.136719 117.941406 C 168.253906 117.902344 168.363281 117.847656 168.460938 117.777344 C 168.558594 117.703125 168.644531 117.621094 168.714844 117.523438 C 168.789062 117.425781 168.839844 117.316406 168.875 117.199219 L 167.507812 117.199219 L 167.507812 116.558594 Z M 171.042969 118.585938 L 170.335938 118.585938 L 170.335938 114.882812 L 171.042969 114.882812 Z M 175.339844 117.675781 C 175.261719 117.824219 175.160156 117.957031 175.042969 118.078125 C 174.925781 118.195312 174.792969 118.300781 174.652344 118.386719 C 174.507812 118.472656 174.351562 118.539062 174.183594 118.585938 C 174.019531 118.632812 173.847656 118.65625 173.667969 118.65625 C 173.40625 118.65625 173.15625 118.605469 172.925781 118.503906 C 172.691406 118.402344 172.488281 118.265625 172.316406 118.09375 C 172.140625 117.917969 172.003906 117.714844 171.902344 117.480469 C 171.800781 117.25 171.75 117 171.75 116.738281 C 171.75 116.472656 171.800781 116.226562 171.902344 115.992188 C 172.003906 115.761719 172.140625 115.558594 172.316406 115.382812 C 172.488281 115.207031 172.691406 115.070312 172.925781 114.96875 C 173.15625 114.867188 173.40625 114.816406 173.667969 114.816406 C 173.847656 114.816406 174.019531 114.84375 174.183594 114.890625 C 174.351562 114.9375 174.507812 115.003906 174.652344 115.089844 C 174.792969 115.175781 174.925781 115.277344 175.042969 115.398438 C 175.160156 115.519531 175.261719 115.648438 175.339844 115.796875 L 174.679688 116.0625 C 174.625 115.984375 174.5625 115.90625 174.488281 115.835938 C 174.417969 115.765625 174.335938 115.703125 174.25 115.648438 C 174.160156 115.59375 174.066406 115.550781 173.96875 115.523438 C 173.871094 115.492188 173.773438 115.476562 173.667969 115.476562 C 173.5 115.476562 173.339844 115.511719 173.195312 115.582031 C 173.046875 115.648438 172.921875 115.742188 172.8125 115.855469 C 172.703125 115.972656 172.617188 116.105469 172.554688 116.257812 C 172.492188 116.414062 172.457031 116.570312 172.457031 116.738281 C 172.457031 116.90625 172.492188 117.066406 172.554688 117.21875 C 172.617188 117.371094 172.703125 117.503906 172.8125 117.617188 C 172.921875 117.734375 173.046875 117.824219 173.195312 117.894531 C 173.339844 117.964844 173.5 118 173.667969 118 C 173.773438 118 173.871094 117.984375 173.96875 117.953125 C 174.066406 117.921875 174.160156 117.878906 174.25 117.828125 C 174.335938 117.773438 174.417969 117.710938 174.488281 117.636719 C 174.5625 117.5625 174.625 117.488281 174.679688 117.40625 Z M 177.617188 118.65625 C 177.351562 118.65625 177.105469 118.605469 176.871094 118.503906 C 176.640625 118.402344 176.4375 118.265625 176.261719 118.09375 C 176.089844 117.917969 175.953125 117.714844 175.851562 117.480469 C 175.75 117.25 175.699219 117 175.699219 116.734375 C 175.699219 116.46875 175.75 116.21875 175.851562 115.984375 C 175.953125 115.75 176.089844 115.546875 176.261719 115.371094 C 176.4375 115.199219 176.640625 115.0625 176.871094 114.960938 C 177.105469 114.859375 177.351562 114.808594 177.617188 114.808594 C 177.882812 114.808594 178.132812 114.859375 178.363281 114.960938 C 178.597656 115.0625 178.800781 115.199219 178.972656 115.371094 C 179.148438 115.546875 179.285156 115.75 179.386719 115.984375 C 179.488281 116.21875 179.535156 116.46875 179.535156 116.734375 C 179.535156 117 179.488281 117.25 179.386719 117.480469 C 179.285156 117.714844 179.148438 117.917969 178.972656 118.09375 C 178.800781 118.265625 178.597656 118.402344 178.363281 118.503906 C 178.132812 118.605469 177.882812 118.65625 177.617188 118.65625 Z M 177.617188 115.472656 C 177.449219 115.472656 177.292969 115.507812 177.144531 115.574219 C 177 115.644531 176.871094 115.738281 176.761719 115.851562 C 176.652344 115.964844 176.566406 116.101562 176.503906 116.253906 C 176.441406 116.40625 176.40625 116.566406 176.40625 116.734375 C 176.40625 116.902344 176.441406 117.0625 176.503906 117.214844 C 176.566406 117.367188 176.652344 117.5 176.761719 117.617188 C 176.871094 117.734375 177 117.824219 177.144531 117.894531 C 177.292969 117.964844 177.449219 118 177.617188 118 C 177.785156 118 177.945312 117.964844 178.089844 117.894531 C 178.234375 117.824219 178.363281 117.734375 178.472656 117.617188 C 178.582031 117.5 178.667969 117.367188 178.734375 117.214844 C 178.796875 117.0625 178.828125 116.902344 178.828125 116.734375 C 178.828125 116.566406 178.796875 116.40625 178.734375 116.253906 C 178.667969 116.101562 178.582031 115.964844 178.472656 115.851562 C 178.363281 115.738281 178.234375 115.644531 178.089844 115.574219 C 177.945312 115.507812 177.785156 115.472656 177.617188 115.472656 Z M 100.21875 120.617188 C 100.121094 120.773438 100.015625 120.949219 99.890625 121.148438 C 99.769531 121.347656 99.644531 121.550781 99.515625 121.757812 C 99.386719 121.964844 99.261719 122.171875 99.136719 122.371094 C 99.011719 122.574219 98.902344 122.753906 98.808594 122.917969 L 98.808594 124.320312 L 98.097656 124.320312 L 98.097656 122.917969 C 97.878906 122.53125 97.648438 122.148438 97.402344 121.765625 C 97.15625 121.386719 96.921875 121.003906 96.699219 120.617188 L 97.523438 120.617188 C 97.675781 120.871094 97.828125 121.132812 97.988281 121.402344 C 98.144531 121.671875 98.300781 121.933594 98.453125 122.1875 C 98.527344 122.070312 98.605469 121.941406 98.683594 121.808594 C 98.765625 121.671875 98.847656 121.535156 98.929688 121.398438 C 99.007812 121.261719 99.089844 121.128906 99.167969 120.996094 C 99.246094 120.859375 99.324219 120.734375 99.394531 120.617188 Z M 102.230469 123.832031 L 102.613281 123.265625 C 102.800781 123.394531 102.988281 123.503906 103.1875 123.597656 C 103.382812 123.691406 103.589844 123.738281 103.808594 123.738281 C 103.921875 123.738281 104.023438 123.722656 104.109375 123.695312 C 104.199219 123.664062 104.273438 123.628906 104.332031 123.582031 C 104.394531 123.535156 104.4375 123.484375 104.46875 123.425781 C 104.5 123.367188 104.515625 123.308594 104.515625 123.25 C 104.515625 123.175781 104.492188 123.113281 104.445312 123.0625 C 104.402344 123.007812 104.339844 122.964844 104.265625 122.929688 C 104.1875 122.898438 104.097656 122.867188 103.996094 122.84375 C 103.894531 122.820312 103.785156 122.800781 103.675781 122.78125 C 103.601562 122.765625 103.515625 122.75 103.417969 122.730469 C 103.320312 122.710938 103.21875 122.6875 103.113281 122.65625 C 103.007812 122.625 102.90625 122.582031 102.804688 122.527344 C 102.703125 122.476562 102.613281 122.410156 102.53125 122.332031 C 102.453125 122.253906 102.386719 122.15625 102.335938 122.046875 C 102.289062 121.9375 102.265625 121.808594 102.265625 121.660156 C 102.265625 121.445312 102.308594 121.265625 102.394531 121.121094 C 102.484375 120.976562 102.597656 120.863281 102.730469 120.78125 C 102.867188 120.699219 103.019531 120.640625 103.1875 120.605469 C 103.355469 120.574219 103.515625 120.554688 103.671875 120.554688 C 103.824219 120.554688 103.964844 120.566406 104.085938 120.585938 C 104.207031 120.605469 104.320312 120.636719 104.421875 120.675781 C 104.527344 120.714844 104.628906 120.761719 104.730469 120.820312 C 104.828125 120.882812 104.9375 120.953125 105.050781 121.03125 L 104.65625 121.589844 C 104.480469 121.46875 104.3125 121.375 104.148438 121.3125 C 103.988281 121.246094 103.820312 121.214844 103.640625 121.214844 C 103.578125 121.214844 103.511719 121.222656 103.433594 121.238281 C 103.355469 121.253906 103.28125 121.277344 103.210938 121.3125 C 103.144531 121.34375 103.085938 121.386719 103.039062 121.441406 C 102.996094 121.492188 102.972656 121.554688 102.972656 121.628906 C 102.972656 121.703125 103 121.765625 103.054688 121.816406 C 103.105469 121.867188 103.175781 121.910156 103.261719 121.945312 C 103.34375 121.976562 103.4375 122.007812 103.539062 122.03125 C 103.640625 122.054688 103.738281 122.078125 103.832031 122.101562 C 103.902344 122.117188 103.984375 122.132812 104.082031 122.152344 C 104.179688 122.167969 104.277344 122.191406 104.378906 122.222656 C 104.484375 122.253906 104.585938 122.292969 104.6875 122.34375 C 104.789062 122.394531 104.878906 122.460938 104.957031 122.539062 C 105.035156 122.617188 105.101562 122.714844 105.148438 122.832031 C 105.199219 122.949219 105.222656 123.089844 105.222656 123.253906 C 105.222656 123.449219 105.1875 123.613281 105.121094 123.757812 C 105.054688 123.898438 104.957031 124.015625 104.832031 124.109375 C 104.707031 124.203125 104.558594 124.273438 104.386719 124.320312 C 104.214844 124.367188 104.027344 124.390625 103.816406 124.390625 C 103.625 124.390625 103.457031 124.375 103.308594 124.347656 C 103.160156 124.316406 103.027344 124.28125 102.90625 124.230469 C 102.785156 124.179688 102.671875 124.125 102.5625 124.054688 C 102.453125 123.988281 102.34375 123.914062 102.230469 123.832031 Z M 106.621094 124.320312 L 105.914062 124.320312 L 105.914062 120.617188 L 106.621094 120.617188 Z M 106.621094 124.320312 "/>
<path style=" stroke:none;fill-rule:nonzero;fill:rgb(0%,68.627451%,93.72549%);fill-opacity:1;" d="M 107.386719 123.832031 L 107.769531 123.265625 C 107.957031 123.394531 108.148438 123.503906 108.34375 123.597656 C 108.542969 123.691406 108.746094 123.738281 108.964844 123.738281 C 109.078125 123.738281 109.179688 123.722656 109.265625 123.695312 C 109.355469 123.664062 109.429688 123.628906 109.488281 123.582031 C 109.550781 123.535156 109.59375 123.484375 109.625 123.425781 C 109.65625 123.367188 109.671875 123.308594 109.671875 123.25 C 109.671875 123.175781 109.648438 123.113281 109.601562 123.0625 C 109.558594 123.007812 109.496094 122.964844 109.421875 122.929688 C 109.34375 122.898438 109.253906 122.867188 109.152344 122.84375 C 109.050781 122.820312 108.941406 122.800781 108.832031 122.78125 C 108.757812 122.765625 108.671875 122.75 108.574219 122.730469 C 108.476562 122.710938 108.375 122.6875 108.269531 122.65625 C 108.167969 122.625 108.0625 122.582031 107.960938 122.527344 C 107.863281 122.476562 107.769531 122.410156 107.6875 122.332031 C 107.609375 122.253906 107.542969 122.15625 107.496094 122.046875 C 107.445312 121.9375 107.421875 121.808594 107.421875 121.660156 C 107.421875 121.445312 107.464844 121.265625 107.554688 121.121094 C 107.640625 120.976562 107.753906 120.863281 107.890625 120.78125 C 108.027344 120.699219 108.175781 120.640625 108.34375 120.605469 C 108.511719 120.574219 108.671875 120.554688 108.828125 120.554688 C 108.980469 120.554688 109.121094 120.566406 109.242188 120.585938 C 109.363281 120.605469 109.476562 120.636719 109.582031 120.675781 C 109.683594 120.714844 109.785156 120.761719 109.886719 120.820312 C 109.984375 120.882812 110.09375 120.953125 110.207031 121.03125 L 109.8125 121.589844 C 109.636719 121.46875 109.46875 121.375 109.308594 121.3125 C 109.144531 121.246094 108.976562 121.214844 108.796875 121.214844 C 108.734375 121.214844 108.667969 121.222656 108.589844 121.238281 C 108.511719 121.253906 108.4375 121.277344 108.371094 121.3125 C 108.300781 121.34375 108.242188 121.386719 108.199219 121.441406 C 108.152344 121.492188 108.128906 121.554688 108.128906 121.628906 C 108.128906 121.703125 108.15625 121.765625 108.210938 121.816406 C 108.265625 121.867188 108.332031 121.910156 108.417969 121.945312 C 108.5 121.976562 108.59375 122.007812 108.695312 122.03125 C 108.796875 122.054688 108.894531 122.078125 108.988281 122.101562 C 109.058594 122.117188 109.144531 122.132812 109.238281 122.152344 C 109.335938 122.167969 109.433594 122.191406 109.539062 122.222656 C 109.640625 122.253906 109.742188 122.292969 109.84375 122.34375 C 109.945312 122.394531 110.035156 122.460938 110.113281 122.539062 C 110.191406 122.617188 110.257812 122.714844 110.304688 122.832031 C 110.355469 122.949219 110.378906 123.089844 110.378906 123.253906 C 110.378906 123.449219 110.34375 123.613281 110.277344 123.757812 C 110.210938 123.898438 110.113281 124.015625 109.988281 124.109375 C 109.863281 124.203125 109.71875 124.273438 109.542969 124.320312 C 109.371094 124.367188 109.183594 124.390625 108.972656 124.390625 C 108.78125 124.390625 108.613281 124.375 108.464844 124.347656 C 108.320312 124.316406 108.183594 124.28125 108.0625 124.230469 C 107.941406 124.179688 107.828125 124.125 107.71875 124.054688 C 107.613281 123.988281 107.5 123.914062 107.386719 123.832031 Z M 113.316406 121.238281 L 112.261719 121.238281 L 112.261719 124.320312 L 111.550781 124.320312 L 111.550781 121.238281 L 110.492188 121.238281 L 110.492188 120.613281 L 113.316406 120.613281 Z M 114.507812 121.238281 L 114.507812 122.167969 L 116.300781 122.167969 L 116.300781 122.808594 L 114.507812 122.808594 L 114.507812 123.679688 L 116.527344 123.679688 L 116.527344 124.320312 L 113.800781 124.320312 L 113.800781 120.613281 L 116.527344 120.613281 L 116.527344 121.238281 Z M 120.863281 120.617188 L 120.863281 124.320312 L 120.15625 124.320312 L 120.15625 122.445312 L 119 123.839844 L 117.847656 122.445312 L 117.847656 124.320312 L 117.140625 124.320312 L 117.140625 120.617188 L 117.183594 120.617188 L 119 122.753906 L 120.820312 120.617188 Z M 121.238281 124.320312 L 123.128906 120.617188 L 123.199219 120.617188 L 125.089844 124.320312 L 124.324219 124.320312 L 124.035156 123.738281 L 122.289062 123.738281 L 122.007812 124.320312 Z M 122.632812 123.117188 L 123.691406 123.117188 L 123.164062 122 Z M 125.140625 123.832031 L 125.527344 123.265625 C 125.710938 123.394531 125.902344 123.503906 126.101562 123.597656 C 126.296875 123.691406 126.503906 123.738281 126.71875 123.738281 C 126.832031 123.738281 126.933594 123.722656 127.023438 123.695312 C 127.109375 123.664062 127.183594 123.628906 127.246094 123.582031 C 127.304688 123.535156 127.351562 123.484375 127.382812 123.425781 C 127.414062 123.367188 127.425781 123.308594 127.425781 123.25 C 127.425781 123.175781 127.40625 123.113281 127.359375 123.0625 C 127.3125 123.007812 127.253906 122.964844 127.175781 122.929688 C 127.101562 122.898438 127.011719 122.867188 126.910156 122.84375 C 126.804688 122.820312 126.699219 122.800781 126.585938 122.78125 C 126.515625 122.765625 126.429688 122.75 126.328125 122.730469 C 126.234375 122.710938 126.132812 122.6875 126.027344 122.65625 C 125.921875 122.625 125.820312 122.582031 125.71875 122.527344 C 125.617188 122.476562 125.527344 122.410156 125.445312 122.332031 C 125.363281 122.253906 125.300781 122.15625 125.25 122.046875 C 125.203125 121.9375 125.175781 121.808594 125.175781 121.660156 C 125.175781 121.445312 125.222656 121.265625 125.308594 121.121094 C 125.394531 120.976562 125.507812 120.863281 125.644531 120.78125 C 125.78125 120.699219 125.933594 120.640625 126.101562 120.605469 C 126.265625 120.574219 126.429688 120.554688 126.582031 120.554688 C 126.738281 120.554688 126.875 120.566406 126.996094 120.585938 C 127.117188 120.605469 127.230469 120.636719 127.335938 120.675781 C 127.441406 120.714844 127.542969 120.761719 127.640625 120.820312 C 127.742188 120.882812 127.847656 120.953125 127.964844 121.03125 L 127.570312 121.589844 C 127.394531 121.46875 127.226562 121.375 127.0625 121.3125 C 126.902344 121.246094 126.730469 121.214844 126.550781 121.214844 C 126.492188 121.214844 126.421875 121.222656 126.34375 121.238281 C 126.269531 121.253906 126.195312 121.277344 126.125 121.3125 C 126.054688 121.34375 126 121.386719 125.953125 121.441406 C 125.90625 121.492188 125.886719 121.554688 125.886719 121.628906 C 125.886719 121.703125 125.914062 121.765625 125.964844 121.816406 C 126.019531 121.867188 126.089844 121.910156 126.171875 121.945312 C 126.257812 121.976562 126.351562 122.007812 126.453125 122.03125 C 126.550781 122.054688 126.648438 122.078125 126.746094 122.101562 C 126.816406 122.117188 126.898438 122.132812 126.996094 122.152344 C 127.089844 122.167969 127.191406 122.191406 127.292969 122.222656 C 127.394531 122.253906 127.496094 122.292969 127.597656 122.34375 C 127.699219 122.394531 127.789062 122.460938 127.871094 122.539062 C 127.949219 122.617188 128.011719 122.714844 128.0625 122.832031 C 128.109375 122.949219 128.136719 123.089844 128.136719 123.253906 C 128.136719 123.449219 128.101562 123.613281 128.035156 123.757812 C 127.964844 123.898438 127.871094 124.015625 127.746094 124.109375 C 127.621094 124.203125 127.472656 124.273438 127.300781 124.320312 C 127.128906 124.367188 126.9375 124.390625 126.730469 124.390625 C 126.539062 124.390625 126.367188 124.375 126.222656 124.347656 C 126.074219 124.316406 125.941406 124.28125 125.820312 124.230469 C 125.699219 124.179688 125.582031 124.125 125.476562 124.054688 C 125.367188 123.988281 125.257812 123.914062 125.140625 123.832031 Z M 131.914062 124.320312 L 130.457031 124.320312 L 130.457031 120.613281 L 131.914062 120.613281 C 132.441406 120.613281 132.878906 120.765625 133.21875 121.078125 C 133.398438 121.242188 133.535156 121.445312 133.628906 121.679688 C 133.71875 121.914062 133.765625 122.175781 133.765625 122.464844 C 133.765625 122.757812 133.71875 123.023438 133.628906 123.257812 C 133.535156 123.492188 133.398438 123.691406 133.21875 123.859375 C 133.050781 124.011719 132.859375 124.125 132.640625 124.203125 C 132.417969 124.28125 132.175781 124.320312 131.914062 124.320312 Z M 131.164062 123.691406 L 131.917969 123.691406 C 132.046875 123.691406 132.179688 123.675781 132.316406 123.644531 C 132.449219 123.613281 132.574219 123.554688 132.683594 123.464844 C 132.792969 123.375 132.882812 123.253906 132.953125 123.09375 C 133.023438 122.933594 133.058594 122.726562 133.058594 122.46875 C 133.058594 122.214844 133.023438 122.003906 132.953125 121.84375 C 132.882812 121.683594 132.792969 121.5625 132.679688 121.472656 C 132.570312 121.386719 132.445312 121.324219 132.3125 121.296875 C 132.175781 121.265625 132.042969 121.25 131.917969 121.25 L 131.164062 121.25 Z M 134.980469 121.238281 L 134.980469 122.167969 L 136.769531 122.167969 L 136.769531 122.808594 L 134.980469 122.808594 L 134.980469 123.679688 L 136.996094 123.679688 L 136.996094 124.320312 L 134.273438 124.320312 L 134.273438 120.613281 L 136.996094 120.613281 L 136.996094 121.238281 Z M 140.261719 124.320312 L 139.554688 124.320312 L 139.554688 120.617188 L 140.261719 120.617188 Z M 144.3125 124.320312 L 141.882812 122.117188 L 141.882812 124.320312 L 141.171875 124.320312 L 141.171875 120.617188 L 141.25 120.617188 L 143.679688 122.855469 L 143.679688 120.617188 L 144.390625 120.617188 L 144.390625 124.320312 Z M 145.90625 121.238281 L 145.90625 122.15625 L 147.691406 122.15625 L 147.691406 122.808594 L 145.90625 122.808594 L 145.90625 124.320312 L 145.199219 124.320312 L 145.199219 120.613281 L 147.917969 120.613281 L 147.917969 121.238281 Z M 150.222656 124.390625 C 149.960938 124.390625 149.710938 124.339844 149.480469 124.238281 C 149.246094 124.136719 149.042969 124 148.871094 123.824219 C 148.695312 123.652344 148.558594 123.449219 148.457031 123.214844 C 148.359375 122.980469 148.308594 122.730469 148.308594 122.464844 C 148.308594 122.203125 148.359375 121.953125 148.457031 121.71875 C 148.558594 121.484375 148.695312 121.28125 148.871094 121.105469 C 149.042969 120.933594 149.246094 120.792969 149.480469 120.691406 C 149.710938 120.589844 149.960938 120.542969 150.222656 120.542969 C 150.488281 120.542969 150.738281 120.589844 150.972656 120.691406 C 151.203125 120.792969 151.40625 120.933594 151.582031 121.105469 C 151.753906 121.28125 151.890625 121.484375 151.992188 121.71875 C 152.09375 121.953125 152.144531 122.203125 152.144531 122.464844 C 152.144531 122.730469 152.09375 122.980469 151.992188 123.214844 C 151.890625 123.449219 151.753906 123.652344 151.582031 123.824219 C 151.40625 124 151.203125 124.136719 150.972656 124.238281 C 150.738281 124.339844 150.488281 124.390625 150.222656 124.390625 Z M 150.226562 121.203125 C 150.058594 121.203125 149.902344 121.238281 149.753906 121.308594 C 149.609375 121.378906 149.480469 121.46875 149.371094 121.585938 C 149.261719 121.699219 149.175781 121.832031 149.109375 121.988281 C 149.046875 122.140625 149.015625 122.300781 149.015625 122.464844 C 149.015625 122.632812 149.046875 122.792969 149.109375 122.945312 C 149.175781 123.097656 149.261719 123.234375 149.371094 123.347656 C 149.480469 123.464844 149.609375 123.558594 149.753906 123.628906 C 149.902344 123.695312 150.058594 123.730469 150.226562 123.730469 C 150.394531 123.730469 150.550781 123.695312 150.699219 123.628906 C 150.84375 123.558594 150.972656 123.464844 151.082031 123.347656 C 151.191406 123.234375 151.277344 123.097656 151.339844 122.945312 C 151.40625 122.792969 151.4375 122.632812 151.4375 122.464844 C 151.4375 122.300781 151.40625 122.140625 151.339844 121.988281 C 151.277344 121.832031 151.191406 121.699219 151.082031 121.585938 C 150.972656 121.46875 150.84375 121.378906 150.699219 121.308594 C 150.550781 121.238281 150.394531 121.203125 150.226562 121.203125 Z M 153.480469 124.320312 L 152.769531 124.320312 L 152.769531 120.613281 L 154.453125 120.613281 C 154.640625 120.613281 154.816406 120.644531 154.972656 120.707031 C 155.128906 120.769531 155.261719 120.855469 155.375 120.96875 C 155.488281 121.082031 155.574219 121.21875 155.636719 121.375 C 155.699219 121.53125 155.730469 121.703125 155.730469 121.886719 C 155.730469 122.167969 155.660156 122.414062 155.519531 122.621094 C 155.378906 122.832031 155.191406 122.980469 154.957031 123.074219 C 155.269531 123.484375 155.578125 123.902344 155.878906 124.320312 L 155.035156 124.320312 C 154.890625 124.125 154.742188 123.933594 154.601562 123.738281 C 154.460938 123.539062 154.320312 123.339844 154.179688 123.140625 L 153.480469 123.140625 Z M 153.480469 122.511719 L 154.453125 122.511719 C 154.515625 122.511719 154.582031 122.5 154.648438 122.472656 C 154.71875 122.449219 154.78125 122.410156 154.835938 122.355469 C 154.886719 122.304688 154.933594 122.238281 154.96875 122.160156 C 155.003906 122.082031 155.019531 121.992188 155.019531 121.886719 C 155.019531 121.835938 155.015625 121.769531 155 121.695312 C 154.988281 121.621094 154.960938 121.550781 154.921875 121.484375 C 154.878906 121.414062 154.824219 121.359375 154.75 121.3125 C 154.675781 121.261719 154.578125 121.238281 154.453125 121.238281 L 153.480469 121.238281 Z M 160.136719 120.617188 L 160.136719 124.320312 L 159.429688 124.320312 L 159.429688 122.445312 L 158.273438 123.839844 L 157.121094 122.445312 L 157.121094 124.320312 L 156.410156 124.320312 L 156.410156 120.617188 L 156.457031 120.617188 L 158.273438 122.753906 L 160.09375 120.617188 Z M 160.511719 124.320312 L 162.402344 120.617188 L 162.472656 120.617188 L 164.363281 124.320312 L 163.597656 124.320312 L 163.308594 123.738281 L 161.5625 123.738281 L 161.28125 124.320312 Z M 161.90625 123.117188 L 162.964844 123.117188 L 162.4375 122 Z M 167.988281 123.40625 C 167.910156 123.554688 167.808594 123.691406 167.691406 123.808594 C 167.574219 123.929688 167.441406 124.03125 167.300781 124.117188 C 167.15625 124.207031 167 124.273438 166.832031 124.320312 C 166.667969 124.367188 166.496094 124.390625 166.316406 124.390625 C 166.054688 124.390625 165.804688 124.339844 165.574219 124.238281 C 165.339844 124.136719 165.136719 124 164.964844 123.824219 C 164.789062 123.652344 164.652344 123.449219 164.550781 123.214844 C 164.449219 122.980469 164.398438 122.734375 164.398438 122.46875 C 164.398438 122.207031 164.449219 121.960938 164.550781 121.726562 C 164.652344 121.492188 164.789062 121.289062 164.964844 121.117188 C 165.136719 120.941406 165.339844 120.804688 165.574219 120.703125 C 165.804688 120.601562 166.054688 120.550781 166.316406 120.550781 C 166.496094 120.550781 166.667969 120.574219 166.832031 120.621094 C 167 120.667969 167.15625 120.734375 167.300781 120.820312 C 167.441406 120.90625 167.574219 121.011719 167.691406 121.132812 C 167.808594 121.25 167.910156 121.382812 167.988281 121.527344 L 167.328125 121.796875 C 167.273438 121.714844 167.210938 121.640625 167.136719 121.570312 C 167.066406 121.5 166.984375 121.4375 166.898438 121.382812 C 166.808594 121.328125 166.71875 121.285156 166.617188 121.253906 C 166.519531 121.226562 166.421875 121.210938 166.316406 121.210938 C 166.148438 121.210938 165.988281 121.246094 165.84375 121.3125 C 165.695312 121.382812 165.570312 121.476562 165.460938 121.589844 C 165.355469 121.703125 165.269531 121.839844 165.203125 121.992188 C 165.140625 122.144531 165.109375 122.304688 165.109375 122.46875 C 165.109375 122.640625 165.140625 122.800781 165.203125 122.953125 C 165.269531 123.105469 165.355469 123.238281 165.460938 123.351562 C 165.570312 123.464844 165.695312 123.558594 165.84375 123.628906 C 165.988281 123.695312 166.148438 123.730469 166.316406 123.730469 C 166.421875 123.730469 166.519531 123.714844 166.617188 123.6875 C 166.71875 123.65625 166.808594 123.613281 166.898438 123.558594 C 166.984375 123.503906 167.066406 123.441406 167.136719 123.371094 C 167.210938 123.296875 167.273438 123.21875 167.328125 123.140625 Z M 169.34375 124.320312 L 168.636719 124.320312 L 168.636719 120.617188 L 169.34375 120.617188 Z M 171.984375 124.390625 C 171.71875 124.390625 171.472656 124.339844 171.238281 124.238281 C 171.007812 124.136719 170.804688 124 170.628906 123.824219 C 170.457031 123.652344 170.320312 123.449219 170.21875 123.214844 C 170.117188 122.980469 170.066406 122.730469 170.066406 122.464844 C 170.066406 122.203125 170.117188 121.953125 170.21875 121.71875 C 170.320312 121.484375 170.457031 121.28125 170.628906 121.105469 C 170.804688 120.933594 171.007812 120.792969 171.238281 120.691406 C 171.472656 120.589844 171.71875 120.542969 171.984375 120.542969 C 172.25 120.542969 172.5 120.589844 172.730469 120.691406 C 172.964844 120.792969 173.167969 120.933594 173.339844 121.105469 C 173.515625 121.28125 173.652344 121.484375 173.753906 121.71875 C 173.855469 121.953125 173.90625 122.203125 173.90625 122.464844 C 173.90625 122.730469 173.855469 122.980469 173.753906 123.214844 C 173.652344 123.449219 173.515625 123.652344 173.339844 123.824219 C 173.167969 124 172.964844 124.136719 172.730469 124.238281 C 172.5 124.339844 172.25 124.390625 171.984375 124.390625 Z M 171.984375 121.203125 C 171.816406 121.203125 171.660156 121.238281 171.515625 121.308594 C 171.367188 121.378906 171.238281 121.46875 171.128906 121.585938 C 171.019531 121.699219 170.933594 121.832031 170.871094 121.988281 C 170.808594 122.140625 170.773438 122.300781 170.773438 122.464844 C 170.773438 122.632812 170.808594 122.792969 170.871094 122.945312 C 170.933594 123.097656 171.019531 123.234375 171.128906 123.347656 C 171.238281 123.464844 171.367188 123.558594 171.515625 123.628906 C 171.660156 123.695312 171.816406 123.730469 171.984375 123.730469 C 172.15625 123.730469 172.3125 123.695312 172.457031 123.628906 C 172.601562 123.558594 172.730469 123.464844 172.839844 123.347656 C 172.949219 123.234375 173.035156 123.097656 173.101562 122.945312 C 173.164062 122.792969 173.195312 122.632812 173.195312 122.464844 C 173.195312 122.300781 173.164062 122.140625 173.101562 121.988281 C 173.035156 121.832031 172.949219 121.699219 172.839844 121.585938 C 172.730469 121.46875 172.601562 121.378906 172.457031 121.308594 C 172.3125 121.238281 172.15625 121.203125 171.984375 121.203125 Z M 172.140625 119.671875 L 172.726562 119.921875 L 172.050781 120.433594 L 171.546875 120.433594 Z M 177.671875 124.320312 L 175.238281 122.117188 L 175.238281 124.320312 L 174.53125 124.320312 L 174.53125 120.617188 L 174.605469 120.617188 L 177.039062 122.855469 L 177.039062 120.617188 L 177.746094 120.617188 L 177.746094 124.320312 Z M 177.671875 124.320312 "/>
<path style=" stroke:none;fill-rule:evenodd;fill:rgb(0%,68.627451%,93.72549%);fill-opacity:1;" d="M 164.871094 74.738281 L 170.355469 74.738281 L 175.140625 63.53125 L 179.925781 74.738281 L 185.40625 74.738281 L 177.957031 57.28125 L 172.324219 57.28125 Z M 164.871094 74.738281 "/>
</g>
</svg>
