<?xml version="1.0" encoding="UTF-8"?>
<svg xmlns="http://www.w3.org/2000/svg" xmlns:xlink="http://www.w3.org/1999/xlink" width="140px" height="108px" viewBox="0 0 139 108" version="1.1">
<g id="surface1">
<path style=" stroke:none;fill-rule:nonzero;fill:rgb(20.392157%,25.882353%,46.666667%);fill-opacity:1;" d="M 51.445312 64.859375 C 49.765625 64.769531 48.167969 64.394531 46.65625 63.734375 C 44.910156 62.96875 43.382812 61.929688 42.082031 60.621094 C 40.777344 59.308594 39.746094 57.773438 38.984375 56.019531 C 38.304688 54.445312 37.929688 52.773438 37.859375 50.996094 L 43.183594 50.996094 C 43.25 52.039062 43.484375 53.039062 43.882812 53.996094 C 44.367188 55.140625 45.011719 56.152344 45.835938 57.03125 C 46.65625 57.910156 47.621094 58.609375 48.714844 59.132812 C 49.574219 59.539062 50.484375 59.789062 51.445312 59.875 Z M 37.859375 49.722656 C 37.933594 47.972656 38.308594 46.308594 38.984375 44.734375 C 39.746094 42.964844 40.777344 41.425781 42.082031 40.113281 C 43.382812 38.800781 44.910156 37.765625 46.65625 37 C 48.402344 36.238281 50.265625 35.855469 52.238281 35.855469 C 54.242188 35.855469 56.113281 36.238281 57.859375 37 C 59.609375 37.765625 61.132812 38.800781 62.4375 40.113281 C 62.679688 40.355469 62.910156 40.605469 63.132812 40.863281 C 59.507812 40.863281 55.882812 40.859375 52.257812 40.859375 C 50.992188 40.859375 49.816406 41.117188 48.714844 41.640625 C 47.621094 42.164062 46.65625 42.855469 45.835938 43.722656 C 45.011719 44.585938 44.367188 45.597656 43.882812 46.757812 C 43.488281 47.714844 43.253906 48.703125 43.183594 49.722656 Z M 53.238281 59.859375 C 54.136719 59.757812 54.992188 59.515625 55.804688 59.132812 C 56.898438 58.609375 57.859375 57.910156 58.683594 57.03125 C 59.507812 56.152344 60.152344 55.140625 60.632812 53.996094 C 61.113281 52.847656 61.355469 51.640625 61.355469 50.367188 C 61.355469 49.117188 61.113281 47.917969 60.632812 46.757812 C 60.152344 45.597656 59.507812 44.585938 58.683594 43.722656 C 58.410156 43.433594 58.125 43.167969 57.820312 42.917969 L 64.609375 42.917969 C 64.953125 43.492188 65.261719 44.097656 65.53125 44.734375 C 66.292969 46.503906 66.671875 48.378906 66.671875 50.367188 C 66.671875 52.378906 66.292969 54.261719 65.53125 56.019531 C 64.773438 57.773438 63.742188 59.308594 62.4375 60.621094 C 61.132812 61.929688 59.609375 62.96875 57.859375 63.734375 C 56.40625 64.367188 54.867188 64.738281 53.238281 64.847656 Z M 53.238281 59.859375 "/>
<path style=" stroke:none;fill-rule:nonzero;fill:rgb(20.392157%,25.882353%,46.666667%);fill-opacity:1;" d="M 85.5 60.5625 L 88.386719 56.285156 C 89.777344 57.253906 91.214844 58.085938 92.695312 58.789062 C 94.179688 59.488281 95.730469 59.835938 97.347656 59.835938 C 98.210938 59.835938 98.96875 59.730469 99.628906 59.511719 C 100.285156 59.296875 100.84375 59.015625 101.300781 58.671875 C 101.753906 58.328125 102.097656 57.933594 102.324219 57.488281 C 102.550781 57.042969 102.667969 56.605469 102.667969 56.171875 C 102.667969 55.609375 102.496094 55.132812 102.152344 54.738281 C 101.8125 54.34375 101.355469 54.019531 100.785156 53.765625 C 100.21875 53.511719 99.546875 53.292969 98.773438 53.117188 C 98 52.9375 97.199219 52.773438 96.363281 52.621094 C 95.804688 52.519531 95.160156 52.398438 94.425781 52.257812 C 93.691406 52.117188 92.929688 51.925781 92.144531 51.683594 C 91.359375 51.441406 90.589844 51.125 89.828125 50.730469 C 89.070312 50.335938 88.386719 49.839844 87.777344 49.238281 C 87.171875 48.640625 86.683594 47.929688 86.316406 47.101562 C 85.949219 46.273438 85.765625 45.300781 85.765625 44.179688 C 85.765625 43.738281 85.789062 43.320312 85.835938 42.917969 L 91.324219 42.917969 C 91.164062 43.222656 91.082031 43.566406 91.082031 43.949219 C 91.082031 44.511719 91.285156 44.980469 91.691406 45.363281 C 92.09375 45.746094 92.613281 46.0625 93.246094 46.320312 C 93.878906 46.574219 94.578125 46.789062 95.335938 46.96875 C 96.097656 47.144531 96.832031 47.324219 97.539062 47.503906 C 98.070312 47.628906 98.699219 47.757812 99.417969 47.882812 C 100.140625 48.011719 100.886719 48.191406 101.660156 48.417969 C 102.433594 48.648438 103.199219 48.953125 103.957031 49.335938 C 104.71875 49.71875 105.394531 50.207031 105.988281 50.804688 C 106.585938 51.402344 107.066406 52.140625 107.433594 53.019531 C 107.800781 53.898438 107.984375 54.960938 107.984375 56.210938 C 107.984375 57.660156 107.730469 58.921875 107.222656 59.988281 C 106.71875 61.058594 105.996094 61.945312 105.058594 62.644531 C 104.121094 63.34375 103.007812 63.871094 101.71875 64.230469 C 100.425781 64.585938 98.996094 64.765625 97.425781 64.765625 C 95.980469 64.765625 94.710938 64.65625 93.609375 64.4375 C 92.507812 64.222656 91.5 63.929688 90.589844 63.5625 C 89.675781 63.191406 88.816406 62.753906 88.007812 62.242188 C 87.195312 61.734375 86.359375 61.175781 85.5 60.5625 Z M 85.5 60.5625 "/>
<path style=" stroke:none;fill-rule:nonzero;fill:rgb(20.392157%,25.882353%,46.666667%);fill-opacity:1;" d="M 76.96875 40.855469 L 76.941406 63.808594 L 71.625 63.808594 L 71.652344 40.855469 L 52.269531 40.855469 L 52.238281 35.855469 L 97.464844 35.855469 L 95.226562 40.855469 Z M 76.96875 40.855469 "/>
<path style=" stroke:none;fill-rule:evenodd;fill:rgb(0%,68.627451%,93.72549%);fill-opacity:1;" d="M 52.394531 45.148438 C 50.53125 45.148438 49.140625 45.972656 48.078125 47.394531 C 47.855469 47.6875 47.425781 48.433594 47.390625 48.875 L 34.109375 48.875 C 33.488281 48.875 32.457031 48.792969 31.972656 48.964844 C 30.792969 49.382812 30.621094 51.175781 31.925781 51.753906 C 32.4375 51.980469 33.390625 51.855469 34.050781 51.855469 L 47.390625 51.855469 C 47.464844 52.742188 48.488281 53.957031 49.050781 54.414062 C 49.933594 55.132812 51.003906 55.527344 52.085938 55.582031 L 52.628906 55.582031 C 53.585938 55.535156 54.527344 55.21875 55.34375 54.636719 C 55.476562 54.539062 55.566406 54.46875 55.683594 54.355469 C 56.058594 54 56.203125 53.917969 56.578125 53.394531 C 57.191406 52.53125 57.488281 51.5625 57.519531 50.597656 L 57.519531 50.25 C 57.433594 47.625 55.390625 45.148438 52.394531 45.148438 Z M 48.046875 51 C 47.21875 51 33.820312 50.953125 33.339844 51.007812 C 32.179688 51.136719 31.894531 50.9375 31.894531 50.148438 C 31.894531 50.023438 32.042969 49.945312 32.132812 49.878906 C 32.472656 49.628906 32.984375 49.722656 33.503906 49.722656 L 48.046875 49.722656 C 48.109375 49 48.820312 47.625 49.429688 47.144531 C 49.664062 46.957031 49.628906 46.941406 49.972656 46.710938 C 52.011719 45.335938 54.988281 46.066406 56.21875 48.371094 C 56.8125 49.484375 56.804688 51.132812 56.230469 52.277344 C 55.667969 53.40625 54.667969 54.261719 53.449219 54.597656 C 52.871094 54.753906 52.199219 54.785156 51.613281 54.664062 C 51.296875 54.597656 51.113281 54.542969 50.820312 54.4375 C 49.347656 53.910156 48.570312 52.894531 48.167969 51.433594 C 48.128906 51.300781 48.0625 51.160156 48.046875 51 Z M 48.046875 51 "/>
<path style=" stroke:none;fill-rule:evenodd;fill:rgb(20.392157%,25.882353%,46.666667%);fill-opacity:1;" d="M 44.9375 50.296875 C 44.9375 52.980469 46.109375 54.980469 48.132812 56.511719 C 48.550781 56.828125 49.609375 57.449219 50.242188 57.5 L 50.242188 70.105469 C 50.242188 71 50.125 72.488281 50.367188 73.179688 C 50.964844 74.882812 53.519531 75.125 54.339844 73.25 C 54.664062 72.511719 54.488281 71.144531 54.488281 70.195312 L 54.488281 57.5 C 55.75 57.394531 57.476562 55.921875 58.125 55.113281 C 59.152344 53.839844 59.710938 52.300781 59.792969 50.746094 L 59.792969 49.957031 C 59.722656 48.582031 59.277344 47.226562 58.441406 46.054688 C 58.304688 45.859375 58.207031 45.734375 58.046875 45.5625 C 57.535156 45.023438 57.421875 44.8125 56.675781 44.277344 C 55.445312 43.394531 54.066406 42.964844 52.695312 42.917969 L 52.203125 42.917969 C 48.460938 43.042969 44.9375 45.984375 44.9375 50.296875 Z M 53.265625 56.554688 C 53.265625 57.746094 53.199219 70.523438 53.277344 71.210938 C 53.460938 72.886719 53.179688 73.296875 52.050781 73.296875 C 51.878906 73.296875 51.761719 73.082031 51.667969 72.949219 C 51.3125 72.464844 51.445312 71.726562 51.445312 70.976562 L 51.445312 56.554688 C 50.417969 56.46875 48.460938 55.441406 47.777344 54.566406 C 47.511719 54.226562 47.488281 54.277344 47.160156 53.785156 C 45.203125 50.847656 46.242188 46.566406 49.523438 44.792969 C 51.109375 43.9375 53.457031 43.949219 55.089844 44.773438 C 56.695312 45.585938 57.910156 47.027344 58.386719 48.78125 C 58.613281 49.609375 58.65625 50.578125 58.484375 51.421875 C 58.390625 51.878906 58.308594 52.144531 58.160156 52.5625 C 57.410156 54.6875 55.960938 55.804688 53.886719 56.382812 C 53.699219 56.4375 53.492188 56.535156 53.265625 56.554688 Z M 53.265625 56.554688 "/>
<path style=" stroke:none;fill-rule:nonzero;fill:rgb(0%,68.627451%,93.72549%);fill-opacity:1;" d="M 57.457031 69.269531 C 57.304688 69.269531 57.160156 69.242188 57.023438 69.179688 C 56.886719 69.121094 56.769531 69.042969 56.667969 68.941406 C 56.570312 68.839844 56.488281 68.71875 56.429688 68.585938 C 56.371094 68.449219 56.339844 68.300781 56.339844 68.148438 C 56.339844 67.992188 56.371094 67.847656 56.429688 67.710938 C 56.488281 67.574219 56.570312 67.453125 56.667969 67.351562 C 56.769531 67.25 56.886719 67.171875 57.023438 67.113281 C 57.160156 67.050781 57.304688 67.023438 57.457031 67.023438 C 57.609375 67.023438 57.757812 67.050781 57.890625 67.113281 C 58.027344 67.171875 58.144531 67.25 58.246094 67.351562 C 58.347656 67.453125 58.425781 67.574219 58.484375 67.710938 C 58.542969 67.847656 58.574219 67.992188 58.574219 68.148438 C 58.574219 68.300781 58.542969 68.449219 58.484375 68.585938 C 58.425781 68.71875 58.347656 68.839844 58.246094 68.941406 C 58.144531 69.042969 58.027344 69.121094 57.890625 69.179688 C 57.757812 69.242188 57.609375 69.269531 57.457031 69.269531 Z M 57.457031 67.410156 C 57.359375 67.410156 57.269531 67.429688 57.183594 67.472656 C 57.097656 67.511719 57.023438 67.566406 56.960938 67.632812 C 56.894531 67.699219 56.847656 67.777344 56.808594 67.867188 C 56.773438 67.957031 56.753906 68.050781 56.753906 68.148438 C 56.753906 68.246094 56.773438 68.339844 56.808594 68.425781 C 56.847656 68.515625 56.894531 68.59375 56.960938 68.664062 C 57.023438 68.730469 57.097656 68.785156 57.183594 68.824219 C 57.269531 68.867188 57.359375 68.886719 57.457031 68.886719 C 57.554688 68.886719 57.648438 68.867188 57.730469 68.824219 C 57.816406 68.785156 57.890625 68.730469 57.953125 68.664062 C 58.019531 68.59375 58.070312 68.515625 58.105469 68.425781 C 58.144531 68.339844 58.160156 68.246094 58.160156 68.148438 C 58.160156 68.050781 58.144531 67.957031 58.105469 67.867188 C 58.070312 67.777344 58.019531 67.699219 57.953125 67.632812 C 57.890625 67.566406 57.816406 67.511719 57.730469 67.472656 C 57.648438 67.429688 57.554688 67.410156 57.457031 67.410156 Z M 60.515625 67.667969 C 60.515625 67.710938 60.503906 67.757812 60.488281 67.804688 C 60.46875 67.855469 60.445312 67.902344 60.414062 67.941406 C 60.386719 67.984375 60.347656 68.019531 60.304688 68.046875 C 60.261719 68.074219 60.214844 68.089844 60.164062 68.09375 C 60.21875 68.097656 60.269531 68.113281 60.320312 68.140625 C 60.375 68.164062 60.421875 68.203125 60.460938 68.246094 C 60.503906 68.292969 60.535156 68.34375 60.5625 68.402344 C 60.589844 68.460938 60.601562 68.523438 60.601562 68.589844 C 60.601562 68.710938 60.585938 68.808594 60.550781 68.890625 C 60.515625 68.972656 60.464844 69.039062 60.40625 69.089844 C 60.34375 69.136719 60.273438 69.175781 60.191406 69.195312 C 60.109375 69.21875 60.023438 69.230469 59.933594 69.230469 L 58.9375 69.230469 L 58.9375 67.0625 L 59.886719 67.0625 C 59.972656 67.0625 60.050781 67.074219 60.128906 67.089844 C 60.207031 67.105469 60.273438 67.136719 60.328125 67.183594 C 60.386719 67.226562 60.429688 67.289062 60.464844 67.367188 C 60.496094 67.441406 60.515625 67.542969 60.515625 67.667969 Z M 59.933594 68.863281 C 59.96875 68.863281 60 68.855469 60.03125 68.835938 C 60.0625 68.820312 60.089844 68.796875 60.113281 68.769531 C 60.136719 68.742188 60.15625 68.707031 60.171875 68.675781 C 60.183594 68.640625 60.191406 68.605469 60.191406 68.570312 C 60.191406 68.496094 60.164062 68.433594 60.109375 68.386719 C 60.054688 68.335938 59.980469 68.3125 59.886719 68.3125 L 59.351562 68.3125 L 59.351562 68.863281 Z M 59.351562 67.945312 L 59.855469 67.945312 C 59.898438 67.945312 59.933594 67.9375 59.960938 67.921875 C 59.992188 67.90625 60.019531 67.886719 60.039062 67.859375 C 60.058594 67.832031 60.074219 67.804688 60.085938 67.773438 C 60.097656 67.738281 60.101562 67.707031 60.101562 67.675781 C 60.101562 67.644531 60.097656 67.613281 60.085938 67.582031 C 60.074219 67.554688 60.058594 67.527344 60.039062 67.503906 C 60.019531 67.484375 59.996094 67.464844 59.96875 67.453125 C 59.941406 67.4375 59.914062 67.429688 59.886719 67.429688 L 59.351562 67.429688 Z M 60.894531 68.945312 L 61.121094 68.613281 C 61.226562 68.6875 61.339844 68.753906 61.453125 68.808594 C 61.566406 68.863281 61.6875 68.886719 61.8125 68.886719 C 61.878906 68.886719 61.9375 68.878906 61.988281 68.863281 C 62.042969 68.847656 62.085938 68.824219 62.121094 68.796875 C 62.15625 68.773438 62.179688 68.742188 62.199219 68.707031 C 62.214844 68.671875 62.226562 68.636719 62.226562 68.605469 C 62.226562 68.5625 62.210938 68.523438 62.1875 68.492188 C 62.160156 68.464844 62.125 68.4375 62.078125 68.417969 C 62.035156 68.398438 61.984375 68.382812 61.925781 68.367188 C 61.863281 68.355469 61.800781 68.339844 61.738281 68.328125 C 61.695312 68.320312 61.644531 68.3125 61.585938 68.300781 C 61.53125 68.289062 61.472656 68.277344 61.410156 68.257812 C 61.351562 68.238281 61.289062 68.214844 61.230469 68.183594 C 61.171875 68.152344 61.121094 68.113281 61.074219 68.066406 C 61.027344 68.023438 60.988281 67.964844 60.960938 67.902344 C 60.929688 67.839844 60.917969 67.761719 60.917969 67.675781 C 60.917969 67.550781 60.941406 67.445312 60.992188 67.363281 C 61.042969 67.277344 61.109375 67.210938 61.1875 67.164062 C 61.269531 67.113281 61.355469 67.082031 61.453125 67.0625 C 61.550781 67.042969 61.644531 67.03125 61.734375 67.03125 C 61.824219 67.03125 61.90625 67.039062 61.976562 67.050781 C 62.046875 67.0625 62.113281 67.078125 62.171875 67.101562 C 62.234375 67.125 62.292969 67.152344 62.351562 67.1875 C 62.40625 67.222656 62.46875 67.261719 62.539062 67.308594 L 62.308594 67.636719 C 62.207031 67.5625 62.109375 67.511719 62.011719 67.472656 C 61.917969 67.433594 61.820312 67.417969 61.714844 67.417969 C 61.679688 67.417969 61.640625 67.421875 61.597656 67.429688 C 61.550781 67.4375 61.507812 67.453125 61.46875 67.472656 C 61.429688 67.492188 61.394531 67.515625 61.367188 67.546875 C 61.34375 67.578125 61.328125 67.617188 61.328125 67.660156 C 61.328125 67.703125 61.34375 67.738281 61.375 67.769531 C 61.40625 67.796875 61.445312 67.820312 61.496094 67.84375 C 61.546875 67.863281 61.597656 67.878906 61.65625 67.890625 C 61.714844 67.90625 61.773438 67.917969 61.828125 67.933594 C 61.871094 67.945312 61.917969 67.953125 61.972656 67.964844 C 62.03125 67.972656 62.085938 67.988281 62.148438 68.003906 C 62.207031 68.023438 62.265625 68.046875 62.324219 68.074219 C 62.382812 68.105469 62.4375 68.144531 62.484375 68.1875 C 62.527344 68.234375 62.566406 68.292969 62.59375 68.359375 C 62.621094 68.429688 62.636719 68.511719 62.636719 68.609375 C 62.636719 68.71875 62.617188 68.816406 62.578125 68.902344 C 62.539062 68.984375 62.484375 69.050781 62.410156 69.105469 C 62.339844 69.160156 62.25 69.199219 62.152344 69.230469 C 62.050781 69.257812 61.941406 69.269531 61.820312 69.269531 C 61.707031 69.269531 61.609375 69.261719 61.523438 69.246094 C 61.4375 69.226562 61.359375 69.207031 61.289062 69.175781 C 61.21875 69.148438 61.152344 69.113281 61.089844 69.074219 C 61.027344 69.035156 60.964844 68.992188 60.894531 68.945312 Z M 63.394531 67.429688 L 63.394531 67.972656 L 64.433594 67.972656 L 64.433594 68.347656 L 63.394531 68.347656 L 63.394531 68.855469 L 64.566406 68.855469 L 64.566406 69.230469 L 62.980469 69.230469 L 62.980469 67.0625 L 64.566406 67.0625 L 64.566406 67.429688 Z M 65.402344 69.230469 L 64.988281 69.230469 L 64.988281 67.0625 L 65.96875 67.0625 C 66.078125 67.0625 66.179688 67.082031 66.269531 67.117188 C 66.359375 67.15625 66.4375 67.207031 66.503906 67.273438 C 66.570312 67.339844 66.617188 67.417969 66.65625 67.507812 C 66.691406 67.601562 66.710938 67.699219 66.710938 67.808594 C 66.710938 67.972656 66.667969 68.117188 66.585938 68.238281 C 66.503906 68.359375 66.398438 68.449219 66.261719 68.5 C 66.441406 68.742188 66.621094 68.984375 66.796875 69.230469 L 66.304688 69.230469 C 66.222656 69.117188 66.136719 69.003906 66.054688 68.886719 C 65.972656 68.773438 65.890625 68.65625 65.808594 68.539062 L 65.402344 68.539062 Z M 65.402344 68.171875 L 65.964844 68.171875 C 66.003906 68.171875 66.042969 68.164062 66.082031 68.152344 C 66.121094 68.136719 66.15625 68.113281 66.191406 68.082031 C 66.21875 68.050781 66.246094 68.015625 66.265625 67.96875 C 66.289062 67.921875 66.296875 67.871094 66.296875 67.808594 C 66.296875 67.777344 66.292969 67.742188 66.285156 67.695312 C 66.277344 67.652344 66.261719 67.613281 66.238281 67.574219 C 66.214844 67.535156 66.183594 67.5 66.140625 67.472656 C 66.097656 67.445312 66.039062 67.429688 65.964844 67.429688 L 65.402344 67.429688 Z M 68.855469 67.066406 L 67.832031 69.230469 L 67.808594 69.230469 L 66.789062 67.066406 L 67.242188 67.066406 L 67.820312 68.320312 L 68.398438 67.066406 Z M 68.542969 69.230469 L 69.644531 67.066406 L 69.683594 67.066406 L 70.785156 69.230469 L 70.339844 69.230469 L 70.171875 68.886719 L 69.15625 68.886719 L 68.992188 69.230469 Z M 69.355469 68.527344 L 69.96875 68.527344 L 69.664062 67.875 Z M 72.167969 67.429688 L 71.554688 67.429688 L 71.554688 69.230469 L 71.144531 69.230469 L 71.144531 67.429688 L 70.527344 67.429688 L 70.527344 67.0625 L 72.167969 67.0625 Z M 73.410156 69.269531 C 73.257812 69.269531 73.113281 69.242188 72.976562 69.179688 C 72.84375 69.121094 72.726562 69.042969 72.625 68.941406 C 72.523438 68.839844 72.441406 68.71875 72.382812 68.585938 C 72.324219 68.449219 72.296875 68.300781 72.296875 68.148438 C 72.296875 67.992188 72.324219 67.847656 72.382812 67.710938 C 72.441406 67.574219 72.523438 67.453125 72.625 67.351562 C 72.726562 67.25 72.84375 67.171875 72.976562 67.113281 C 73.113281 67.050781 73.257812 67.023438 73.410156 67.023438 C 73.566406 67.023438 73.710938 67.050781 73.847656 67.113281 C 73.980469 67.171875 74.097656 67.25 74.199219 67.351562 C 74.300781 67.453125 74.382812 67.574219 74.441406 67.710938 C 74.5 67.847656 74.527344 67.992188 74.527344 68.148438 C 74.527344 68.300781 74.5 68.449219 74.441406 68.585938 C 74.382812 68.71875 74.300781 68.839844 74.199219 68.941406 C 74.097656 69.042969 73.980469 69.121094 73.847656 69.179688 C 73.710938 69.242188 73.566406 69.269531 73.410156 69.269531 Z M 73.414062 67.410156 C 73.3125 67.410156 73.222656 67.429688 73.136719 67.472656 C 73.054688 67.511719 72.976562 67.566406 72.914062 67.632812 C 72.851562 67.699219 72.800781 67.777344 72.765625 67.867188 C 72.726562 67.957031 72.707031 68.050781 72.707031 68.148438 C 72.707031 68.246094 72.726562 68.339844 72.765625 68.425781 C 72.800781 68.515625 72.851562 68.59375 72.914062 68.664062 C 72.976562 68.730469 73.054688 68.785156 73.136719 68.824219 C 73.222656 68.867188 73.3125 68.886719 73.414062 68.886719 C 73.511719 68.886719 73.601562 68.867188 73.6875 68.824219 C 73.769531 68.785156 73.847656 68.730469 73.910156 68.664062 C 73.972656 68.59375 74.023438 68.515625 74.058594 68.425781 C 74.097656 68.339844 74.117188 68.246094 74.117188 68.148438 C 74.117188 68.050781 74.097656 67.957031 74.058594 67.867188 C 74.023438 67.777344 73.972656 67.699219 73.910156 67.632812 C 73.847656 67.566406 73.769531 67.511719 73.6875 67.472656 C 73.601562 67.429688 73.511719 67.410156 73.414062 67.410156 Z M 75.304688 69.230469 L 74.894531 69.230469 L 74.894531 67.0625 L 75.871094 67.0625 C 75.980469 67.0625 76.082031 67.082031 76.171875 67.117188 C 76.265625 67.15625 76.339844 67.207031 76.40625 67.273438 C 76.472656 67.339844 76.523438 67.417969 76.558594 67.507812 C 76.59375 67.601562 76.613281 67.699219 76.613281 67.808594 C 76.613281 67.972656 76.570312 68.117188 76.492188 68.238281 C 76.410156 68.359375 76.300781 68.449219 76.164062 68.5 C 76.34375 68.742188 76.523438 68.984375 76.699219 69.230469 L 76.210938 69.230469 C 76.125 69.117188 76.039062 69.003906 75.957031 68.886719 C 75.875 68.773438 75.792969 68.65625 75.710938 68.539062 L 75.304688 68.539062 Z M 75.304688 68.171875 L 75.871094 68.171875 C 75.90625 68.171875 75.945312 68.164062 75.984375 68.152344 C 76.027344 68.136719 76.0625 68.113281 76.09375 68.082031 C 76.125 68.050781 76.148438 68.015625 76.171875 67.96875 C 76.191406 67.921875 76.199219 67.871094 76.199219 67.808594 C 76.199219 67.777344 76.195312 67.742188 76.1875 67.695312 C 76.179688 67.652344 76.164062 67.613281 76.140625 67.574219 C 76.121094 67.535156 76.085938 67.5 76.042969 67.472656 C 76 67.445312 75.941406 67.429688 75.871094 67.429688 L 75.304688 67.429688 Z M 77.480469 69.230469 L 77.070312 69.230469 L 77.070312 67.066406 L 77.480469 67.066406 Z M 79.015625 69.269531 C 78.863281 69.269531 78.71875 69.242188 78.582031 69.179688 C 78.449219 69.121094 78.328125 69.042969 78.226562 68.941406 C 78.128906 68.839844 78.046875 68.71875 77.988281 68.585938 C 77.929688 68.449219 77.902344 68.300781 77.902344 68.148438 C 77.902344 67.992188 77.929688 67.847656 77.988281 67.710938 C 78.046875 67.574219 78.128906 67.453125 78.226562 67.351562 C 78.328125 67.25 78.449219 67.171875 78.582031 67.113281 C 78.71875 67.050781 78.863281 67.023438 79.015625 67.023438 C 79.167969 67.023438 79.316406 67.050781 79.449219 67.113281 C 79.585938 67.171875 79.703125 67.25 79.804688 67.351562 C 79.90625 67.453125 79.984375 67.574219 80.042969 67.710938 C 80.101562 67.847656 80.132812 67.992188 80.132812 68.148438 C 80.132812 68.300781 80.101562 68.449219 80.042969 68.585938 C 79.984375 68.71875 79.90625 68.839844 79.804688 68.941406 C 79.703125 69.042969 79.585938 69.121094 79.449219 69.179688 C 79.316406 69.242188 79.167969 69.269531 79.015625 69.269531 Z M 79.015625 67.410156 C 78.917969 67.410156 78.828125 67.429688 78.742188 67.472656 C 78.65625 67.511719 78.582031 67.566406 78.519531 67.632812 C 78.457031 67.699219 78.40625 67.777344 78.367188 67.867188 C 78.332031 67.957031 78.3125 68.050781 78.3125 68.148438 C 78.3125 68.246094 78.332031 68.339844 78.367188 68.425781 C 78.40625 68.515625 78.457031 68.59375 78.519531 68.664062 C 78.582031 68.730469 78.65625 68.785156 78.742188 68.824219 C 78.828125 68.867188 78.917969 68.886719 79.015625 68.886719 C 79.113281 68.886719 79.207031 68.867188 79.289062 68.824219 C 79.375 68.785156 79.449219 68.730469 79.515625 68.664062 C 79.578125 68.59375 79.628906 68.515625 79.664062 68.425781 C 79.703125 68.339844 79.722656 68.246094 79.722656 68.148438 C 79.722656 68.050781 79.703125 67.957031 79.664062 67.867188 C 79.628906 67.777344 79.578125 67.699219 79.515625 67.632812 C 79.449219 67.566406 79.375 67.511719 79.289062 67.472656 C 79.207031 67.429688 79.113281 67.410156 79.015625 67.410156 Z M 83.050781 67.429688 L 82.433594 67.429688 L 82.433594 69.230469 L 82.023438 69.230469 L 82.023438 67.429688 L 81.40625 67.429688 L 81.40625 67.0625 L 83.050781 67.0625 Z M 83.742188 67.429688 L 83.742188 67.972656 L 84.785156 67.972656 L 84.785156 68.347656 L 83.742188 68.347656 L 83.742188 68.855469 L 84.917969 68.855469 L 84.917969 69.230469 L 83.332031 69.230469 L 83.332031 67.0625 L 84.917969 67.0625 L 84.917969 67.429688 Z M 87.25 68.695312 C 87.203125 68.78125 87.144531 68.863281 87.078125 68.929688 C 87.007812 69 86.933594 69.0625 86.851562 69.113281 C 86.765625 69.164062 86.675781 69.199219 86.578125 69.230469 C 86.480469 69.257812 86.382812 69.269531 86.277344 69.269531 C 86.125 69.269531 85.980469 69.242188 85.84375 69.179688 C 85.710938 69.121094 85.59375 69.042969 85.492188 68.941406 C 85.390625 68.839844 85.308594 68.71875 85.25 68.585938 C 85.191406 68.449219 85.164062 68.304688 85.164062 68.148438 C 85.164062 67.996094 85.191406 67.851562 85.25 67.714844 C 85.308594 67.578125 85.390625 67.460938 85.492188 67.359375 C 85.59375 67.257812 85.710938 67.175781 85.84375 67.117188 C 85.980469 67.058594 86.125 67.027344 86.277344 67.027344 C 86.382812 67.027344 86.480469 67.042969 86.578125 67.070312 C 86.675781 67.097656 86.765625 67.136719 86.851562 67.1875 C 86.933594 67.238281 87.007812 67.296875 87.078125 67.367188 C 87.144531 67.4375 87.203125 67.515625 87.25 67.597656 L 86.867188 67.757812 C 86.835938 67.707031 86.796875 67.664062 86.753906 67.625 C 86.714844 67.582031 86.667969 67.546875 86.617188 67.515625 C 86.566406 67.480469 86.511719 67.457031 86.453125 67.441406 C 86.398438 67.421875 86.339844 67.414062 86.277344 67.414062 C 86.179688 67.414062 86.089844 67.433594 86.003906 67.472656 C 85.917969 67.515625 85.84375 67.566406 85.78125 67.636719 C 85.71875 67.703125 85.667969 67.78125 85.632812 67.871094 C 85.59375 67.960938 85.574219 68.054688 85.574219 68.148438 C 85.574219 68.246094 85.59375 68.339844 85.632812 68.429688 C 85.667969 68.519531 85.71875 68.597656 85.78125 68.664062 C 85.84375 68.730469 85.917969 68.785156 86.003906 68.824219 C 86.089844 68.867188 86.179688 68.886719 86.277344 68.886719 C 86.339844 68.886719 86.398438 68.875 86.453125 68.859375 C 86.511719 68.839844 86.566406 68.816406 86.617188 68.785156 C 86.667969 68.753906 86.714844 68.714844 86.753906 68.675781 C 86.796875 68.632812 86.835938 68.585938 86.867188 68.539062 Z M 89.394531 69.230469 L 87.980469 67.941406 L 87.980469 69.230469 L 87.570312 69.230469 L 87.570312 67.066406 L 87.613281 67.066406 L 89.027344 68.375 L 89.027344 67.066406 L 89.4375 67.066406 L 89.4375 69.230469 Z M 90.914062 69.269531 C 90.761719 69.269531 90.617188 69.242188 90.484375 69.179688 C 90.347656 69.121094 90.230469 69.042969 90.128906 68.941406 C 90.027344 68.839844 89.949219 68.71875 89.886719 68.585938 C 89.828125 68.449219 89.800781 68.300781 89.800781 68.148438 C 89.800781 67.992188 89.828125 67.847656 89.886719 67.710938 C 89.949219 67.574219 90.027344 67.453125 90.128906 67.351562 C 90.230469 67.25 90.347656 67.171875 90.484375 67.113281 C 90.617188 67.050781 90.761719 67.023438 90.914062 67.023438 C 91.070312 67.023438 91.214844 67.050781 91.351562 67.113281 C 91.484375 67.171875 91.601562 67.25 91.703125 67.351562 C 91.804688 67.453125 91.886719 67.574219 91.945312 67.710938 C 92.003906 67.847656 92.03125 67.992188 92.03125 68.148438 C 92.03125 68.300781 92.003906 68.449219 91.945312 68.585938 C 91.886719 68.71875 91.804688 68.839844 91.703125 68.941406 C 91.601562 69.042969 91.484375 69.121094 91.351562 69.179688 C 91.214844 69.242188 91.070312 69.269531 90.914062 69.269531 Z M 90.917969 67.410156 C 90.816406 67.410156 90.726562 67.429688 90.640625 67.472656 C 90.558594 67.511719 90.484375 67.566406 90.417969 67.632812 C 90.355469 67.699219 90.304688 67.777344 90.269531 67.867188 C 90.230469 67.957031 90.210938 68.050781 90.210938 68.148438 C 90.210938 68.246094 90.230469 68.339844 90.269531 68.425781 C 90.304688 68.515625 90.355469 68.59375 90.417969 68.664062 C 90.484375 68.730469 90.558594 68.785156 90.640625 68.824219 C 90.726562 68.867188 90.816406 68.886719 90.917969 68.886719 C 91.015625 68.886719 91.105469 68.867188 91.191406 68.824219 C 91.273438 68.785156 91.351562 68.730469 91.414062 68.664062 C 91.476562 68.59375 91.527344 68.515625 91.566406 68.425781 C 91.601562 68.339844 91.621094 68.246094 91.621094 68.148438 C 91.621094 68.050781 91.601562 67.957031 91.566406 67.867188 C 91.527344 67.777344 91.476562 67.699219 91.414062 67.632812 C 91.351562 67.566406 91.273438 67.511719 91.191406 67.472656 C 91.105469 67.429688 91.015625 67.410156 90.917969 67.410156 Z M 93.945312 68.863281 L 93.945312 69.230469 L 92.398438 69.230469 L 92.398438 67.0625 L 92.808594 67.0625 L 92.808594 68.863281 Z M 95.089844 69.269531 C 94.9375 69.269531 94.792969 69.242188 94.65625 69.179688 C 94.523438 69.121094 94.40625 69.042969 94.304688 68.941406 C 94.203125 68.839844 94.121094 68.71875 94.0625 68.585938 C 94.003906 68.449219 93.976562 68.300781 93.976562 68.148438 C 93.976562 67.992188 94.003906 67.847656 94.0625 67.710938 C 94.121094 67.574219 94.203125 67.453125 94.304688 67.351562 C 94.40625 67.25 94.523438 67.171875 94.65625 67.113281 C 94.792969 67.050781 94.9375 67.023438 95.089844 67.023438 C 95.246094 67.023438 95.390625 67.050781 95.523438 67.113281 C 95.660156 67.171875 95.777344 67.25 95.878906 67.351562 C 95.980469 67.453125 96.058594 67.574219 96.121094 67.710938 C 96.179688 67.847656 96.207031 67.992188 96.207031 68.148438 C 96.207031 68.300781 96.179688 68.449219 96.121094 68.585938 C 96.058594 68.71875 95.980469 68.839844 95.878906 68.941406 C 95.777344 69.042969 95.660156 69.121094 95.523438 69.179688 C 95.390625 69.242188 95.246094 69.269531 95.089844 69.269531 Z M 95.089844 67.410156 C 94.992188 67.410156 94.902344 67.429688 94.816406 67.472656 C 94.730469 67.511719 94.65625 67.566406 94.59375 67.632812 C 94.53125 67.699219 94.480469 67.777344 94.441406 67.867188 C 94.40625 67.957031 94.386719 68.050781 94.386719 68.148438 C 94.386719 68.246094 94.40625 68.339844 94.441406 68.425781 C 94.480469 68.515625 94.53125 68.59375 94.59375 68.664062 C 94.65625 68.730469 94.730469 68.785156 94.816406 68.824219 C 94.902344 68.867188 94.992188 68.886719 95.089844 68.886719 C 95.191406 68.886719 95.28125 68.867188 95.367188 68.824219 C 95.449219 68.785156 95.523438 68.730469 95.589844 68.664062 C 95.652344 68.59375 95.703125 68.515625 95.738281 68.425781 C 95.777344 68.339844 95.796875 68.246094 95.796875 68.148438 C 95.796875 68.050781 95.777344 67.957031 95.738281 67.867188 C 95.703125 67.777344 95.652344 67.699219 95.589844 67.632812 C 95.523438 67.566406 95.449219 67.511719 95.367188 67.472656 C 95.28125 67.429688 95.191406 67.410156 95.089844 67.410156 Z M 95.179688 66.515625 L 95.523438 66.664062 L 95.128906 66.960938 L 94.835938 66.960938 Z M 98.664062 68.046875 C 98.660156 68.085938 98.660156 68.125 98.660156 68.160156 C 98.65625 68.191406 98.65625 68.222656 98.65625 68.253906 C 98.65625 68.285156 98.65625 68.308594 98.652344 68.324219 C 98.640625 68.460938 98.605469 68.585938 98.542969 68.703125 C 98.480469 68.820312 98.402344 68.917969 98.304688 69.003906 C 98.207031 69.085938 98.097656 69.152344 97.96875 69.199219 C 97.84375 69.246094 97.710938 69.269531 97.570312 69.269531 C 97.417969 69.269531 97.273438 69.242188 97.140625 69.179688 C 97.003906 69.121094 96.886719 69.042969 96.785156 68.941406 C 96.683594 68.839844 96.601562 68.71875 96.542969 68.585938 C 96.484375 68.449219 96.453125 68.304688 96.453125 68.148438 C 96.453125 67.996094 96.484375 67.851562 96.542969 67.714844 C 96.601562 67.578125 96.683594 67.457031 96.785156 67.355469 C 96.886719 67.253906 97.003906 67.175781 97.140625 67.113281 C 97.273438 67.054688 97.417969 67.027344 97.570312 67.027344 C 97.765625 67.027344 97.945312 67.070312 98.105469 67.160156 C 98.265625 67.253906 98.398438 67.375 98.496094 67.527344 L 98.144531 67.742188 C 98.082031 67.648438 98 67.570312 97.898438 67.507812 C 97.796875 67.445312 97.6875 67.414062 97.570312 67.414062 C 97.472656 67.414062 97.382812 67.433594 97.296875 67.472656 C 97.210938 67.515625 97.136719 67.566406 97.074219 67.636719 C 97.007812 67.703125 96.960938 67.78125 96.921875 67.871094 C 96.882812 67.960938 96.867188 68.054688 96.867188 68.148438 C 96.867188 68.246094 96.882812 68.339844 96.921875 68.429688 C 96.960938 68.519531 97.007812 68.597656 97.074219 68.664062 C 97.136719 68.730469 97.210938 68.785156 97.296875 68.824219 C 97.382812 68.867188 97.472656 68.886719 97.570312 68.886719 C 97.644531 68.886719 97.71875 68.875 97.785156 68.851562 C 97.855469 68.828125 97.917969 68.796875 97.972656 68.753906 C 98.03125 68.714844 98.082031 68.664062 98.125 68.609375 C 98.164062 68.550781 98.195312 68.488281 98.214844 68.417969 L 97.421875 68.417969 L 97.421875 68.046875 Z M 99.476562 69.230469 L 99.066406 69.230469 L 99.066406 67.066406 L 99.476562 67.066406 Z M 101.976562 68.695312 C 101.929688 68.78125 101.871094 68.863281 101.804688 68.929688 C 101.734375 69 101.660156 69.0625 101.574219 69.113281 C 101.492188 69.164062 101.402344 69.199219 101.304688 69.230469 C 101.207031 69.257812 101.105469 69.269531 101.003906 69.269531 C 100.851562 69.269531 100.707031 69.242188 100.570312 69.179688 C 100.4375 69.121094 100.316406 69.042969 100.214844 68.941406 C 100.117188 68.839844 100.035156 68.71875 99.976562 68.585938 C 99.917969 68.449219 99.890625 68.304688 99.890625 68.148438 C 99.890625 67.996094 99.917969 67.851562 99.976562 67.714844 C 100.035156 67.578125 100.117188 67.460938 100.214844 67.359375 C 100.316406 67.257812 100.4375 67.175781 100.570312 67.117188 C 100.707031 67.058594 100.851562 67.027344 101.003906 67.027344 C 101.105469 67.027344 101.207031 67.042969 101.304688 67.070312 C 101.402344 67.097656 101.492188 67.136719 101.574219 67.1875 C 101.660156 67.238281 101.734375 67.296875 101.804688 67.367188 C 101.871094 67.4375 101.929688 67.515625 101.976562 67.597656 L 101.589844 67.757812 C 101.558594 67.707031 101.523438 67.664062 101.480469 67.625 C 101.4375 67.582031 101.390625 67.546875 101.339844 67.515625 C 101.289062 67.480469 101.238281 67.457031 101.179688 67.441406 C 101.121094 67.421875 101.0625 67.414062 101.003906 67.414062 C 100.90625 67.414062 100.8125 67.433594 100.726562 67.472656 C 100.644531 67.515625 100.570312 67.566406 100.507812 67.636719 C 100.445312 67.703125 100.394531 67.78125 100.355469 67.871094 C 100.320312 67.960938 100.300781 68.054688 100.300781 68.148438 C 100.300781 68.246094 100.320312 68.339844 100.355469 68.429688 C 100.394531 68.519531 100.445312 68.597656 100.507812 68.664062 C 100.570312 68.730469 100.644531 68.785156 100.726562 68.824219 C 100.8125 68.867188 100.90625 68.886719 101.003906 68.886719 C 101.0625 68.886719 101.121094 68.875 101.179688 68.859375 C 101.238281 68.839844 101.289062 68.816406 101.339844 68.785156 C 101.390625 68.753906 101.4375 68.714844 101.480469 68.675781 C 101.523438 68.632812 101.558594 68.585938 101.589844 68.539062 Z M 103.300781 69.269531 C 103.148438 69.269531 103.003906 69.242188 102.867188 69.179688 C 102.730469 69.121094 102.613281 69.042969 102.511719 68.941406 C 102.410156 68.839844 102.332031 68.71875 102.273438 68.585938 C 102.214844 68.449219 102.183594 68.300781 102.183594 68.148438 C 102.183594 67.992188 102.214844 67.847656 102.273438 67.710938 C 102.332031 67.574219 102.410156 67.453125 102.511719 67.351562 C 102.613281 67.25 102.730469 67.171875 102.867188 67.113281 C 103.003906 67.050781 103.148438 67.023438 103.300781 67.023438 C 103.453125 67.023438 103.597656 67.050781 103.734375 67.113281 C 103.871094 67.171875 103.988281 67.25 104.089844 67.351562 C 104.191406 67.453125 104.269531 67.574219 104.328125 67.710938 C 104.386719 67.847656 104.417969 67.992188 104.417969 68.148438 C 104.417969 68.300781 104.386719 68.449219 104.328125 68.585938 C 104.269531 68.71875 104.191406 68.839844 104.089844 68.941406 C 103.988281 69.042969 103.871094 69.121094 103.734375 69.179688 C 103.597656 69.242188 103.453125 69.269531 103.300781 69.269531 Z M 103.300781 67.410156 C 103.203125 67.410156 103.113281 67.429688 103.027344 67.472656 C 102.941406 67.511719 102.867188 67.566406 102.804688 67.632812 C 102.738281 67.699219 102.691406 67.777344 102.652344 67.867188 C 102.617188 67.957031 102.597656 68.050781 102.597656 68.148438 C 102.597656 68.246094 102.617188 68.339844 102.652344 68.425781 C 102.691406 68.515625 102.738281 68.59375 102.804688 68.664062 C 102.867188 68.730469 102.941406 68.785156 103.027344 68.824219 C 103.113281 68.867188 103.203125 68.886719 103.300781 68.886719 C 103.398438 68.886719 103.488281 68.867188 103.574219 68.824219 C 103.660156 68.785156 103.734375 68.730469 103.796875 68.664062 C 103.863281 68.59375 103.910156 68.515625 103.949219 68.425781 C 103.988281 68.339844 104.003906 68.246094 104.003906 68.148438 C 104.003906 68.050781 103.988281 67.957031 103.949219 67.867188 C 103.910156 67.777344 103.863281 67.699219 103.796875 67.632812 C 103.734375 67.566406 103.660156 67.511719 103.574219 67.472656 C 103.488281 67.429688 103.398438 67.410156 103.300781 67.410156 Z M 58.285156 70.414062 C 58.230469 70.503906 58.167969 70.609375 58.09375 70.726562 C 58.023438 70.839844 57.949219 70.960938 57.875 71.082031 C 57.800781 71.203125 57.730469 71.320312 57.65625 71.4375 C 57.582031 71.554688 57.519531 71.660156 57.464844 71.757812 L 57.464844 72.574219 L 57.054688 72.574219 L 57.054688 71.757812 C 56.925781 71.53125 56.789062 71.308594 56.648438 71.085938 C 56.503906 70.863281 56.367188 70.640625 56.238281 70.414062 L 56.71875 70.414062 C 56.804688 70.5625 56.894531 70.714844 56.988281 70.871094 C 57.082031 71.03125 57.171875 71.183594 57.257812 71.332031 C 57.300781 71.261719 57.347656 71.1875 57.394531 71.109375 C 57.441406 71.03125 57.488281 70.949219 57.535156 70.871094 C 57.582031 70.792969 57.628906 70.710938 57.675781 70.632812 C 57.722656 70.558594 57.765625 70.484375 57.804688 70.414062 Z M 59.457031 72.292969 L 59.679688 71.960938 C 59.785156 72.035156 59.898438 72.101562 60.011719 72.152344 C 60.128906 72.207031 60.246094 72.234375 60.371094 72.234375 C 60.441406 72.234375 60.5 72.226562 60.550781 72.210938 C 60.601562 72.195312 60.644531 72.171875 60.679688 72.144531 C 60.714844 72.117188 60.742188 72.089844 60.757812 72.054688 C 60.777344 72.019531 60.785156 71.984375 60.785156 71.953125 C 60.785156 71.910156 60.769531 71.871094 60.746094 71.839844 C 60.71875 71.808594 60.683594 71.785156 60.640625 71.765625 C 60.59375 71.746094 60.542969 71.730469 60.484375 71.714844 C 60.421875 71.703125 60.359375 71.6875 60.296875 71.675781 C 60.253906 71.667969 60.203125 71.660156 60.144531 71.648438 C 60.089844 71.636719 60.03125 71.621094 59.96875 71.605469 C 59.910156 71.585938 59.847656 71.5625 59.789062 71.53125 C 59.730469 71.5 59.679688 71.460938 59.632812 71.414062 C 59.585938 71.367188 59.546875 71.3125 59.519531 71.25 C 59.492188 71.183594 59.476562 71.109375 59.476562 71.023438 C 59.476562 70.898438 59.5 70.792969 59.550781 70.707031 C 59.601562 70.625 59.667969 70.558594 59.75 70.511719 C 59.828125 70.460938 59.914062 70.429688 60.011719 70.410156 C 60.109375 70.386719 60.203125 70.378906 60.292969 70.378906 C 60.382812 70.378906 60.464844 70.382812 60.535156 70.398438 C 60.605469 70.410156 60.671875 70.425781 60.730469 70.449219 C 60.792969 70.472656 60.851562 70.5 60.910156 70.535156 C 60.96875 70.570312 61.03125 70.609375 61.097656 70.65625 L 60.867188 70.980469 C 60.765625 70.910156 60.667969 70.855469 60.574219 70.820312 C 60.480469 70.78125 60.378906 70.761719 60.277344 70.761719 C 60.242188 70.761719 60.199219 70.765625 60.15625 70.777344 C 60.109375 70.785156 60.066406 70.800781 60.027344 70.820312 C 59.988281 70.839844 59.953125 70.863281 59.925781 70.894531 C 59.902344 70.925781 59.886719 70.960938 59.886719 71.003906 C 59.886719 71.050781 59.902344 71.085938 59.933594 71.113281 C 59.964844 71.144531 60.007812 71.167969 60.054688 71.1875 C 60.105469 71.207031 60.160156 71.226562 60.21875 71.238281 C 60.277344 71.253906 60.332031 71.265625 60.386719 71.28125 C 60.429688 71.289062 60.476562 71.300781 60.53125 71.308594 C 60.589844 71.320312 60.648438 71.332031 60.707031 71.351562 C 60.765625 71.371094 60.824219 71.394531 60.882812 71.421875 C 60.945312 71.453125 60.996094 71.488281 61.042969 71.535156 C 61.085938 71.582031 61.125 71.640625 61.152344 71.707031 C 61.183594 71.777344 61.195312 71.859375 61.195312 71.953125 C 61.195312 72.066406 61.175781 72.164062 61.136719 72.246094 C 61.097656 72.328125 61.042969 72.398438 60.96875 72.453125 C 60.898438 72.507812 60.8125 72.546875 60.710938 72.574219 C 60.609375 72.601562 60.5 72.617188 60.378906 72.617188 C 60.265625 72.617188 60.167969 72.609375 60.082031 72.589844 C 59.996094 72.574219 59.921875 72.550781 59.847656 72.523438 C 59.777344 72.496094 59.710938 72.460938 59.648438 72.421875 C 59.585938 72.382812 59.523438 72.339844 59.457031 72.292969 Z M 62.011719 72.574219 L 61.597656 72.574219 L 61.597656 70.414062 L 62.011719 70.414062 Z M 62.011719 72.574219 "/>
<path style=" stroke:none;fill-rule:nonzero;fill:rgb(0%,68.627451%,93.72549%);fill-opacity:1;" d="M 62.453125 72.292969 L 62.679688 71.960938 C 62.785156 72.035156 62.898438 72.101562 63.011719 72.152344 C 63.125 72.207031 63.246094 72.234375 63.371094 72.234375 C 63.4375 72.234375 63.496094 72.226562 63.546875 72.210938 C 63.597656 72.195312 63.644531 72.171875 63.679688 72.144531 C 63.714844 72.117188 63.738281 72.089844 63.757812 72.054688 C 63.773438 72.019531 63.785156 71.984375 63.785156 71.953125 C 63.785156 71.910156 63.769531 71.871094 63.742188 71.839844 C 63.71875 71.808594 63.683594 71.785156 63.636719 71.765625 C 63.59375 71.746094 63.542969 71.730469 63.480469 71.714844 C 63.421875 71.703125 63.359375 71.6875 63.296875 71.675781 C 63.253906 71.667969 63.203125 71.660156 63.144531 71.648438 C 63.089844 71.636719 63.03125 71.621094 62.96875 71.605469 C 62.910156 71.585938 62.847656 71.5625 62.789062 71.53125 C 62.730469 71.5 62.679688 71.460938 62.632812 71.414062 C 62.585938 71.367188 62.546875 71.3125 62.519531 71.25 C 62.488281 71.183594 62.476562 71.109375 62.476562 71.023438 C 62.476562 70.898438 62.5 70.792969 62.550781 70.707031 C 62.601562 70.625 62.667969 70.558594 62.746094 70.511719 C 62.828125 70.460938 62.914062 70.429688 63.011719 70.410156 C 63.109375 70.386719 63.203125 70.378906 63.292969 70.378906 C 63.382812 70.378906 63.464844 70.382812 63.535156 70.398438 C 63.605469 70.410156 63.671875 70.425781 63.730469 70.449219 C 63.792969 70.472656 63.851562 70.5 63.910156 70.535156 C 63.964844 70.570312 64.027344 70.609375 64.09375 70.65625 L 63.867188 70.980469 C 63.765625 70.910156 63.667969 70.855469 63.570312 70.820312 C 63.476562 70.78125 63.378906 70.761719 63.273438 70.761719 C 63.238281 70.761719 63.199219 70.765625 63.15625 70.777344 C 63.109375 70.785156 63.066406 70.800781 63.027344 70.820312 C 62.988281 70.839844 62.953125 70.863281 62.925781 70.894531 C 62.898438 70.925781 62.886719 70.960938 62.886719 71.003906 C 62.886719 71.050781 62.902344 71.085938 62.933594 71.113281 C 62.964844 71.144531 63.003906 71.167969 63.054688 71.1875 C 63.101562 71.207031 63.15625 71.226562 63.214844 71.238281 C 63.273438 71.253906 63.332031 71.265625 63.386719 71.28125 C 63.429688 71.289062 63.476562 71.300781 63.53125 71.308594 C 63.589844 71.320312 63.644531 71.332031 63.707031 71.351562 C 63.765625 71.371094 63.824219 71.394531 63.882812 71.421875 C 63.941406 71.453125 63.996094 71.488281 64.039062 71.535156 C 64.085938 71.582031 64.125 71.640625 64.152344 71.707031 C 64.179688 71.777344 64.195312 71.859375 64.195312 71.953125 C 64.195312 72.066406 64.175781 72.164062 64.136719 72.246094 C 64.097656 72.328125 64.042969 72.398438 63.96875 72.453125 C 63.894531 72.507812 63.808594 72.546875 63.710938 72.574219 C 63.609375 72.601562 63.5 72.617188 63.378906 72.617188 C 63.265625 72.617188 63.167969 72.609375 63.082031 72.589844 C 62.996094 72.574219 62.917969 72.550781 62.847656 72.523438 C 62.777344 72.496094 62.710938 72.460938 62.648438 72.421875 C 62.585938 72.382812 62.519531 72.339844 62.453125 72.292969 Z M 65.902344 70.777344 L 65.289062 70.777344 L 65.289062 72.574219 L 64.878906 72.574219 L 64.878906 70.777344 L 64.261719 70.777344 L 64.261719 70.410156 L 65.902344 70.410156 Z M 66.597656 70.777344 L 66.597656 71.320312 L 67.636719 71.320312 L 67.636719 71.695312 L 66.597656 71.695312 L 66.597656 72.203125 L 67.769531 72.203125 L 67.769531 72.574219 L 66.1875 72.574219 L 66.1875 70.410156 L 67.769531 70.410156 L 67.769531 70.777344 Z M 70.292969 70.414062 L 70.292969 72.574219 L 69.882812 72.574219 L 69.882812 71.480469 L 69.207031 72.292969 L 68.539062 71.480469 L 68.539062 72.574219 L 68.125 72.574219 L 68.125 70.414062 L 68.152344 70.414062 L 69.207031 71.660156 L 70.265625 70.414062 Z M 70.511719 72.574219 L 71.609375 70.414062 L 71.652344 70.414062 L 72.753906 72.574219 L 72.304688 72.574219 L 72.136719 72.234375 L 71.121094 72.234375 L 70.957031 72.574219 Z M 71.324219 71.875 L 71.9375 71.875 L 71.632812 71.222656 Z M 72.78125 72.292969 L 73.003906 71.960938 C 73.113281 72.035156 73.222656 72.101562 73.339844 72.152344 C 73.453125 72.207031 73.574219 72.234375 73.699219 72.234375 C 73.765625 72.234375 73.824219 72.226562 73.875 72.210938 C 73.925781 72.195312 73.96875 72.171875 74.003906 72.144531 C 74.039062 72.117188 74.066406 72.089844 74.082031 72.054688 C 74.101562 72.019531 74.109375 71.984375 74.109375 71.953125 C 74.109375 71.910156 74.097656 71.871094 74.070312 71.839844 C 74.042969 71.808594 74.007812 71.785156 73.964844 71.765625 C 73.921875 71.746094 73.867188 71.730469 73.808594 71.714844 C 73.75 71.703125 73.6875 71.6875 73.621094 71.675781 C 73.578125 71.667969 73.527344 71.660156 73.472656 71.648438 C 73.414062 71.636719 73.355469 71.621094 73.296875 71.605469 C 73.234375 71.585938 73.175781 71.5625 73.117188 71.53125 C 73.058594 71.5 73.003906 71.460938 72.957031 71.414062 C 72.910156 71.367188 72.871094 71.3125 72.84375 71.25 C 72.816406 71.183594 72.800781 71.109375 72.800781 71.023438 C 72.800781 70.898438 72.828125 70.792969 72.878906 70.707031 C 72.929688 70.625 72.996094 70.558594 73.074219 70.511719 C 73.152344 70.460938 73.242188 70.429688 73.339844 70.410156 C 73.4375 70.386719 73.527344 70.378906 73.621094 70.378906 C 73.710938 70.378906 73.789062 70.382812 73.859375 70.398438 C 73.929688 70.410156 73.996094 70.425781 74.058594 70.449219 C 74.117188 70.472656 74.175781 70.5 74.234375 70.535156 C 74.292969 70.570312 74.355469 70.609375 74.421875 70.65625 L 74.191406 70.980469 C 74.089844 70.910156 73.992188 70.855469 73.898438 70.820312 C 73.804688 70.78125 73.707031 70.761719 73.601562 70.761719 C 73.566406 70.761719 73.527344 70.765625 73.480469 70.777344 C 73.4375 70.785156 73.394531 70.800781 73.351562 70.820312 C 73.3125 70.839844 73.28125 70.863281 73.253906 70.894531 C 73.226562 70.925781 73.214844 70.960938 73.214844 71.003906 C 73.214844 71.050781 73.230469 71.085938 73.261719 71.113281 C 73.292969 71.144531 73.332031 71.167969 73.382812 71.1875 C 73.429688 71.207031 73.484375 71.226562 73.542969 71.238281 C 73.601562 71.253906 73.660156 71.265625 73.714844 71.28125 C 73.753906 71.289062 73.804688 71.300781 73.859375 71.308594 C 73.914062 71.320312 73.972656 71.332031 74.03125 71.351562 C 74.09375 71.371094 74.152344 71.394531 74.210938 71.421875 C 74.269531 71.453125 74.320312 71.488281 74.367188 71.535156 C 74.414062 71.582031 74.449219 71.640625 74.480469 71.707031 C 74.507812 71.777344 74.523438 71.859375 74.523438 71.953125 C 74.523438 72.066406 74.503906 72.164062 74.464844 72.246094 C 74.425781 72.328125 74.367188 72.398438 74.296875 72.453125 C 74.222656 72.507812 74.136719 72.546875 74.035156 72.574219 C 73.9375 72.601562 73.824219 72.617188 73.703125 72.617188 C 73.59375 72.617188 73.496094 72.609375 73.410156 72.589844 C 73.324219 72.574219 73.246094 72.550781 73.175781 72.523438 C 73.105469 72.496094 73.039062 72.460938 72.976562 72.421875 C 72.914062 72.382812 72.847656 72.339844 72.78125 72.292969 Z M 76.71875 72.574219 L 75.871094 72.574219 L 75.871094 70.410156 L 76.71875 70.410156 C 77.027344 70.410156 77.28125 70.5 77.476562 70.683594 C 77.582031 70.78125 77.664062 70.898438 77.714844 71.035156 C 77.769531 71.171875 77.796875 71.324219 77.796875 71.492188 C 77.796875 71.664062 77.769531 71.820312 77.714844 71.957031 C 77.664062 72.09375 77.582031 72.210938 77.476562 72.304688 C 77.382812 72.394531 77.269531 72.460938 77.140625 72.507812 C 77.011719 72.554688 76.871094 72.574219 76.71875 72.574219 Z M 76.285156 72.207031 L 76.722656 72.207031 C 76.796875 72.207031 76.875 72.199219 76.953125 72.183594 C 77.03125 72.164062 77.101562 72.128906 77.167969 72.078125 C 77.230469 72.023438 77.28125 71.953125 77.324219 71.859375 C 77.367188 71.765625 77.386719 71.644531 77.386719 71.496094 C 77.386719 71.347656 77.367188 71.226562 77.324219 71.132812 C 77.28125 71.039062 77.230469 70.964844 77.164062 70.914062 C 77.101562 70.863281 77.027344 70.828125 76.949219 70.808594 C 76.871094 70.792969 76.796875 70.785156 76.722656 70.785156 L 76.285156 70.785156 Z M 78.503906 70.777344 L 78.503906 71.320312 L 79.542969 71.320312 L 79.542969 71.695312 L 78.503906 71.695312 L 78.503906 72.203125 L 79.675781 72.203125 L 79.675781 72.574219 L 78.089844 72.574219 L 78.089844 70.410156 L 79.675781 70.410156 L 79.675781 70.777344 Z M 81.574219 72.574219 L 81.164062 72.574219 L 81.164062 70.414062 L 81.574219 70.414062 Z M 83.929688 72.574219 L 82.515625 71.289062 L 82.515625 72.574219 L 82.105469 72.574219 L 82.105469 70.414062 L 82.148438 70.414062 L 83.5625 71.722656 L 83.5625 70.414062 L 83.976562 70.414062 L 83.976562 72.574219 Z M 84.855469 70.777344 L 84.855469 71.3125 L 85.894531 71.3125 L 85.894531 71.695312 L 84.855469 71.695312 L 84.855469 72.574219 L 84.445312 72.574219 L 84.445312 70.410156 L 86.027344 70.410156 L 86.027344 70.777344 Z M 87.367188 72.617188 C 87.214844 72.617188 87.070312 72.585938 86.9375 72.527344 C 86.800781 72.46875 86.683594 72.390625 86.582031 72.289062 C 86.480469 72.1875 86.402344 72.066406 86.34375 71.929688 C 86.285156 71.796875 86.253906 71.648438 86.253906 71.492188 C 86.253906 71.339844 86.285156 71.195312 86.34375 71.058594 C 86.402344 70.921875 86.480469 70.800781 86.582031 70.699219 C 86.683594 70.597656 86.800781 70.519531 86.9375 70.457031 C 87.070312 70.398438 87.214844 70.371094 87.367188 70.371094 C 87.523438 70.371094 87.667969 70.398438 87.804688 70.457031 C 87.9375 70.519531 88.058594 70.597656 88.15625 70.699219 C 88.257812 70.800781 88.339844 70.921875 88.398438 71.058594 C 88.457031 71.195312 88.484375 71.339844 88.484375 71.492188 C 88.484375 71.648438 88.457031 71.796875 88.398438 71.929688 C 88.339844 72.066406 88.257812 72.1875 88.15625 72.289062 C 88.058594 72.390625 87.9375 72.46875 87.804688 72.527344 C 87.667969 72.585938 87.523438 72.617188 87.367188 72.617188 Z M 87.371094 70.757812 C 87.273438 70.757812 87.179688 70.777344 87.09375 70.816406 C 87.011719 70.859375 86.9375 70.910156 86.871094 70.980469 C 86.808594 71.046875 86.757812 71.125 86.722656 71.214844 C 86.683594 71.304688 86.664062 71.398438 86.664062 71.492188 C 86.664062 71.59375 86.683594 71.683594 86.722656 71.773438 C 86.757812 71.863281 86.808594 71.941406 86.871094 72.007812 C 86.9375 72.078125 87.011719 72.132812 87.09375 72.171875 C 87.179688 72.210938 87.273438 72.234375 87.371094 72.234375 C 87.46875 72.234375 87.558594 72.210938 87.644531 72.171875 C 87.730469 72.132812 87.804688 72.078125 87.867188 72.007812 C 87.929688 71.941406 87.980469 71.863281 88.019531 71.773438 C 88.054688 71.683594 88.074219 71.59375 88.074219 71.492188 C 88.074219 71.398438 88.054688 71.304688 88.019531 71.214844 C 87.980469 71.125 87.929688 71.046875 87.867188 70.980469 C 87.804688 70.910156 87.730469 70.859375 87.644531 70.816406 C 87.558594 70.777344 87.46875 70.757812 87.371094 70.757812 Z M 89.261719 72.574219 L 88.851562 72.574219 L 88.851562 70.410156 L 89.828125 70.410156 C 89.9375 70.410156 90.039062 70.429688 90.128906 70.464844 C 90.222656 70.503906 90.300781 70.554688 90.363281 70.621094 C 90.429688 70.6875 90.480469 70.765625 90.515625 70.855469 C 90.550781 70.949219 90.570312 71.046875 90.570312 71.15625 C 90.570312 71.320312 90.53125 71.460938 90.449219 71.585938 C 90.367188 71.707031 90.257812 71.796875 90.121094 71.847656 C 90.304688 72.089844 90.480469 72.332031 90.660156 72.574219 L 90.167969 72.574219 C 90.082031 72.464844 89.996094 72.351562 89.914062 72.234375 C 89.832031 72.121094 89.75 72.003906 89.667969 71.886719 L 89.261719 71.886719 Z M 89.261719 71.519531 L 89.828125 71.519531 C 89.863281 71.519531 89.902344 71.511719 89.941406 71.496094 C 89.984375 71.484375 90.019531 71.460938 90.050781 71.429688 C 90.082031 71.398438 90.105469 71.363281 90.128906 71.316406 C 90.148438 71.269531 90.160156 71.21875 90.160156 71.15625 C 90.160156 71.125 90.15625 71.085938 90.148438 71.042969 C 90.140625 71 90.125 70.960938 90.101562 70.917969 C 90.078125 70.878906 90.042969 70.847656 90 70.820312 C 89.957031 70.792969 89.898438 70.777344 89.828125 70.777344 L 89.261719 70.777344 Z M 93.132812 70.414062 L 93.132812 72.574219 L 92.722656 72.574219 L 92.722656 71.480469 L 92.050781 72.292969 L 91.378906 71.480469 L 91.378906 72.574219 L 90.96875 72.574219 L 90.96875 70.414062 L 90.992188 70.414062 L 92.050781 71.660156 L 93.109375 70.414062 Z M 93.351562 72.574219 L 94.453125 70.414062 L 94.492188 70.414062 L 95.59375 72.574219 L 95.144531 72.574219 L 94.976562 72.234375 L 93.964844 72.234375 L 93.800781 72.574219 Z M 94.164062 71.875 L 94.777344 71.875 L 94.472656 71.222656 Z M 97.699219 72.042969 C 97.652344 72.128906 97.597656 72.207031 97.527344 72.277344 C 97.457031 72.347656 97.382812 72.410156 97.300781 72.457031 C 97.214844 72.507812 97.125 72.546875 97.027344 72.574219 C 96.933594 72.601562 96.832031 72.617188 96.726562 72.617188 C 96.574219 72.617188 96.429688 72.585938 96.296875 72.527344 C 96.160156 72.46875 96.042969 72.390625 95.941406 72.289062 C 95.839844 72.1875 95.761719 72.066406 95.703125 71.929688 C 95.644531 71.796875 95.613281 71.648438 95.613281 71.496094 C 95.613281 71.34375 95.644531 71.199219 95.703125 71.0625 C 95.761719 70.925781 95.839844 70.808594 95.941406 70.707031 C 96.042969 70.605469 96.160156 70.523438 96.296875 70.464844 C 96.429688 70.40625 96.574219 70.375 96.726562 70.375 C 96.832031 70.375 96.933594 70.390625 97.027344 70.417969 C 97.125 70.445312 97.214844 70.484375 97.300781 70.535156 C 97.382812 70.585938 97.457031 70.644531 97.527344 70.714844 C 97.597656 70.785156 97.652344 70.863281 97.699219 70.945312 L 97.316406 71.101562 C 97.285156 71.054688 97.246094 71.011719 97.207031 70.96875 C 97.164062 70.929688 97.117188 70.890625 97.066406 70.859375 C 97.015625 70.828125 96.960938 70.804688 96.902344 70.785156 C 96.847656 70.769531 96.789062 70.761719 96.726562 70.761719 C 96.628906 70.761719 96.539062 70.78125 96.453125 70.820312 C 96.367188 70.859375 96.292969 70.914062 96.230469 70.980469 C 96.167969 71.050781 96.117188 71.128906 96.082031 71.21875 C 96.042969 71.304688 96.023438 71.398438 96.023438 71.496094 C 96.023438 71.59375 96.042969 71.6875 96.082031 71.777344 C 96.117188 71.867188 96.167969 71.945312 96.230469 72.011719 C 96.292969 72.078125 96.367188 72.132812 96.453125 72.171875 C 96.539062 72.210938 96.628906 72.234375 96.726562 72.234375 C 96.789062 72.234375 96.847656 72.222656 96.902344 72.207031 C 96.960938 72.1875 97.015625 72.164062 97.066406 72.132812 C 97.117188 72.101562 97.164062 72.0625 97.207031 72.019531 C 97.246094 71.980469 97.285156 71.933594 97.316406 71.886719 Z M 98.488281 72.574219 L 98.078125 72.574219 L 98.078125 70.414062 L 98.488281 70.414062 Z M 100.023438 72.617188 C 99.871094 72.617188 99.726562 72.585938 99.589844 72.527344 C 99.457031 72.46875 99.339844 72.390625 99.238281 72.289062 C 99.136719 72.1875 99.054688 72.066406 98.996094 71.929688 C 98.9375 71.796875 98.910156 71.648438 98.910156 71.492188 C 98.910156 71.339844 98.9375 71.195312 98.996094 71.058594 C 99.054688 70.921875 99.136719 70.800781 99.238281 70.699219 C 99.339844 70.597656 99.457031 70.519531 99.589844 70.457031 C 99.726562 70.398438 99.871094 70.371094 100.023438 70.371094 C 100.179688 70.371094 100.324219 70.398438 100.457031 70.457031 C 100.59375 70.519531 100.710938 70.597656 100.8125 70.699219 C 100.914062 70.800781 100.992188 70.921875 101.054688 71.058594 C 101.113281 71.195312 101.140625 71.339844 101.140625 71.492188 C 101.140625 71.648438 101.113281 71.796875 101.054688 71.929688 C 100.992188 72.066406 100.914062 72.1875 100.8125 72.289062 C 100.710938 72.390625 100.59375 72.46875 100.457031 72.527344 C 100.324219 72.585938 100.179688 72.617188 100.023438 72.617188 Z M 100.023438 70.757812 C 99.925781 70.757812 99.835938 70.777344 99.75 70.816406 C 99.664062 70.859375 99.589844 70.910156 99.527344 70.980469 C 99.464844 71.046875 99.414062 71.125 99.375 71.214844 C 99.339844 71.304688 99.320312 71.398438 99.320312 71.492188 C 99.320312 71.59375 99.339844 71.683594 99.375 71.773438 C 99.414062 71.863281 99.464844 71.941406 99.527344 72.007812 C 99.589844 72.078125 99.664062 72.132812 99.75 72.171875 C 99.835938 72.210938 99.925781 72.234375 100.023438 72.234375 C 100.125 72.234375 100.214844 72.210938 100.300781 72.171875 C 100.382812 72.132812 100.457031 72.078125 100.523438 72.007812 C 100.585938 71.941406 100.636719 71.863281 100.671875 71.773438 C 100.710938 71.683594 100.730469 71.59375 100.730469 71.492188 C 100.730469 71.398438 100.710938 71.304688 100.671875 71.214844 C 100.636719 71.125 100.585938 71.046875 100.523438 70.980469 C 100.457031 70.910156 100.382812 70.859375 100.300781 70.816406 C 100.214844 70.777344 100.125 70.757812 100.023438 70.757812 Z M 100.113281 69.863281 L 100.457031 70.007812 L 100.0625 70.308594 L 99.769531 70.308594 Z M 103.332031 72.574219 L 101.917969 71.289062 L 101.917969 72.574219 L 101.503906 72.574219 L 101.503906 70.414062 L 101.550781 70.414062 L 102.964844 71.722656 L 102.964844 70.414062 L 103.375 70.414062 L 103.375 72.574219 Z M 103.332031 72.574219 "/>
<path style=" stroke:none;fill-rule:evenodd;fill:rgb(0%,68.627451%,93.72549%);fill-opacity:1;" d="M 95.886719 43.632812 L 99.078125 43.632812 L 101.859375 37.085938 L 104.640625 43.632812 L 107.832031 43.632812 L 103.496094 33.441406 L 100.222656 33.441406 Z M 95.886719 43.632812 "/>
</g>
</svg>
