<?xml version="1.0" encoding="UTF-8"?>
<!DOCTYPE svg PUBLIC "-//W3C//DTD SVG 1.1//EN" "http://www.w3.org/Graphics/SVG/1.1/DTD/svg11.dtd">
<!-- Creator: CorelDRAW 2021 (64-Bit) -->
<svg xmlns="http://www.w3.org/2000/svg" xml:space="preserve" width="279.4mm" height="215.9mm" version="1.1" style="shape-rendering:geometricPrecision; text-rendering:geometricPrecision; image-rendering:optimizeQuality; fill-rule:evenodd; clip-rule:evenodd"
viewBox="0 0 27940 21590"
 xmlns:xlink="http://www.w3.org/1999/xlink"
 xmlns:xodm="http://www.corel.com/coreldraw/odm/2003">
 <defs>
  <style type="text/css">
   <![CDATA[
    .fil1 {fill:#00AFEF}
    .fil2 {fill:#344277}
    .fil3 {fill:#00AFEF;fill-rule:nonzero}
    .fil0 {fill:#344277;fill-rule:nonzero}
   ]]>
  </style>
 </defs>
 <g id="Capa_x0020_1">
  <metadata id="CorelCorpID_0Corel-Layer"/>
  <g id="_2539942709248">
   <path class="fil0" d="M10340.91 12965.48c-337.97,-17.86 -658.8,-92.82 -962.51,-224.86 -351.17,-152.66 -657.82,-360.06 -919.93,-622.17 -262.1,-262.11 -469.51,-568.75 -622.18,-919.92 -136.6,-314.18 -212.09,-648.76 -226.48,-1003.68l1070.28 0c13.43,208.53 60.45,408.21 141.01,599.07 96.71,229.02 226.49,431.33 391.87,606.91 165.43,175.6 358.82,315.54 578.94,419.88 173.23,81.64 355.85,131.33 549,149.08l0 995.69zm-2730.92 -3025.92c14.82,-349.48 90.27,-681.8 226.3,-996.94 152.67,-353.71 360.08,-661.62 622.18,-923.72 262.11,-262.13 568.76,-469.52 919.93,-622.21 351.17,-152.67 725.23,-229.02 1122.22,-229.02 402.06,0 778.69,76.35 1129.86,229.02 351.18,152.69 657.83,360.08 919.9,622.21 48.53,48.51 95.17,98.6 139.95,150.25 -728.63,0 -1457.3,-1.39 -2185.9,-1.39 -254.46,0 -491.13,52.16 -712.52,156.48 -220.12,104.35 -413.51,243.02 -578.94,416.08 -165.38,173.04 -295.16,375.36 -391.87,606.91 -79.89,191.37 -126.77,388.79 -140.65,592.33l-1070.46 0zm3091.43 2026.83c180.83,-20.21 352.33,-68.78 515.54,-145.68 220.11,-104.34 413.52,-244.28 578.93,-419.88 165.39,-175.58 295.17,-377.89 391.88,-606.91 96.7,-229.02 145.06,-470.79 145.06,-725.25 0,-249.39 -48.36,-489.86 -145.06,-721.44 -96.71,-231.55 -226.49,-433.87 -391.88,-606.91 -54.76,-57.3 -112.61,-110.82 -173.47,-160.57l1364.79 0c68.82,115.05 130.62,236.02 185.37,362.87 152.68,353.72 229.04,729.06 229.04,1126.05 0,402.06 -76.36,778.69 -229.04,1129.86 -152.67,351.17 -360.08,657.81 -622.2,919.92 -262.07,262.11 -568.72,469.51 -919.9,622.17 -292.08,126.99 -601.76,201.18 -929.06,222.55l0 -996.78z"/>
   <path class="fil0" d="M17186.07 12107l580.21 -855.03c279.91,193.4 568.74,360.08 866.47,500.05 297.74,139.94 609.46,209.94 935.19,209.94 173.04,0 325.72,-21.64 458.05,-64.9 132.33,-43.26 244.29,-99.25 335.91,-167.95 91.61,-68.71 160.32,-147.6 206.11,-236.68 45.81,-89.04 68.71,-176.84 68.71,-263.36 0,-111.97 -34.35,-207.4 -103.06,-286.28 -68.7,-78.89 -160.31,-143.78 -274.83,-194.67 -114.51,-50.9 -249.37,-94.16 -404.6,-129.78 -155.23,-35.63 -316.82,-68.71 -484.78,-99.26 -111.97,-20.35 -241.75,-44.52 -389.34,-72.52 -147.6,-27.98 -300.28,-66.16 -458.05,-114.5 -157.78,-48.35 -313.01,-111.97 -465.69,-190.86 -152.69,-78.89 -290.09,-178.14 -412.25,-297.73 -122.14,-119.61 -220.11,-262.11 -293.91,-427.51 -73.79,-165.42 -110.69,-360.08 -110.69,-584.02 0,-88.07 4.83,-172.13 14.51,-252.2l1102.41 0c-32.08,61.07 -48.14,129.87 -48.14,206.39 0,111.97 40.71,206.12 122.14,282.47 81.43,76.33 185.77,139.97 313.01,190.85 127.23,50.9 267.2,94.16 419.88,129.78 152.68,35.63 300.28,71.25 442.78,106.88 106.87,25.45 232.84,50.89 377.9,76.34 145.04,25.45 295.18,61.07 450.41,106.88 155.23,45.81 309.18,106.88 461.86,183.21 152.69,76.35 288.84,174.32 408.43,293.93 119.61,119.6 216.31,267.19 290.11,442.78 73.8,175.58 110.69,388.07 110.69,637.46 0,290.09 -50.89,542.02 -152.69,755.78 -101.78,213.75 -246.83,390.62 -435.14,530.57 -188.31,139.97 -412.25,245.57 -671.81,316.82 -259.56,71.26 -547.12,106.89 -862.67,106.89 -290.09,0 -545.84,-21.64 -767.23,-64.9 -221.39,-43.26 -423.69,-101.78 -606.92,-175.58 -183.21,-73.81 -356.25,-161.59 -519.12,-263.38 -162.87,-101.8 -330.82,-213.74 -503.86,-335.91z"/>
   <polygon class="fil0" points="15471.3,8167.25 15465.62,12755.91 14396.82,12755.91 14402.5,8167.25 10506.29,8167.25 10500.61,7167.67 19591,7167.67 19141.11,8167.25 "/>
   <path class="fil1" d="M10531.59 9025.74c-374.3,0 -653.74,164.35 -867.5,448.58 -44.41,59.05 -130.81,207.69 -138.18,296.37l-2669.42 0c-124.85,0 -332.6,-16.63 -429.47,17.49 -237.7,83.75 -271.65,442.34 -9.38,557.94 102.77,45.28 293.85,20.53 426.43,20.53l2681.84 0c14.75,177.29 220.42,419.8 333.26,511.01 178.08,143.94 392.81,222.54 610.16,233.94l109.82 0c192.02,-9.98 381.58,-72.68 545.1,-189.52 27.11,-19.36 44.68,-33 68.5,-55.68 75.35,-71.78 104.8,-87.65 179.83,-192.65 123.31,-172.58 183.13,-366.35 189.52,-558.77l0 -69.3c-17.39,-525.3 -427.89,-1019.94 -1030.51,-1019.94zm-873.45 1169.5c-166.61,0 -2859.73,-9.58 -2956.23,1.25 -233.61,26.24 -291.02,-13.34 -291.02,-171.7 0,-24.53 30.08,-40.62 48.28,-54 67.79,-49.79 171.01,-31.24 275.59,-31.24l2923.38 0c12.02,-144.39 155.05,-419.01 277.48,-515.15 47.18,-37.03 40.28,-40.41 109.36,-86.68 409.73,-274.5 1007.81,-128.77 1255.4,331.79 119.69,222.66 117.8,552.65 2.74,781.46 -113.42,225.53 -314.75,396.22 -559.45,463.33 -115.96,31.8 -251.05,37.56 -369.01,13.33 -63.88,-13.11 -100.67,-24.27 -159.4,-45.14 -296.38,-105.35 -452.29,-308.68 -533.35,-600.21 -7.38,-26.52 -21.11,-55.14 -23.77,-87.04z"/>
   <path class="fil2" d="M9032.69 10055.03c0,535.85 235.29,935.9 642.2,1241.92 84.53,63.57 297.33,187.26 424.28,197.83l0 2519.86c0,178.75 -23.81,476.17 25.05,614.85 119.89,340.29 633.25,388.89 798.75,13.41 64.82,-147.12 29.38,-420.66 29.38,-610.47l0 -2537.65c253.81,-21.13 601,-315.57 731.58,-477.1 206.07,-254.96 318.59,-562.36 334.9,-873.52l0 -157.21c-14.28,-274.91 -104.05,-546.28 -271.32,-780.38 -27.71,-38.81 -47.24,-63.97 -79.71,-98.07 -102.75,-107.86 -125.48,-150.03 -275.8,-257.44 -247.07,-176.54 -524.47,-262.17 -799.93,-271.32l-99.22 0c-752.02,24.9 -1460.16,612.57 -1460.16,1475.29zm1674.28 1250.44c0,238.52 -13.72,2792.33 1.79,2930.47 37.55,334.45 -19.1,416.63 -245.82,416.63 -35.12,0 -58.15,-43.06 -77.3,-69.11 -71.28,-97.05 -44.72,-244.82 -44.72,-394.54l0 -2883.45c-206.71,-17.21 -599.87,-221.98 -737.5,-397.25 -53.02,-67.54 -57.85,-57.66 -124.09,-156.55 -392.97,-586.58 -184.35,-1442.79 474.99,-1797.25 318.77,-171.35 791.19,-168.64 1118.76,-3.92 322.87,162.37 567.23,450.6 663.29,800.91 45.53,166.02 53.78,359.4 19.1,528.28 -18.78,91.45 -34.75,144.12 -64.64,228.2 -150.81,424.3 -441.91,647.5 -859.26,763.55 -37.96,10.57 -78.93,30.22 -124.6,34.03z"/>
   <g>
    <path class="fil3" d="M11549.1 13847.58c-30.74,0 -59.7,-5.9 -86.89,-17.72 -27.19,-11.83 -50.92,-27.88 -71.21,-48.17 -20.3,-20.3 -36.35,-44.03 -48.18,-71.22 -11.82,-27.19 -17.72,-56.34 -17.72,-87.48 0,-30.73 5.9,-59.8 17.72,-87.18 11.83,-27.38 27.88,-51.21 48.18,-71.51 20.29,-20.29 44.02,-36.34 71.21,-48.17 27.19,-11.82 56.15,-17.73 86.89,-17.73 31.13,0 60.28,5.91 87.47,17.73 27.19,11.83 50.92,27.88 71.22,48.17 20.29,20.3 36.34,44.13 48.17,71.51 11.82,27.38 17.73,56.45 17.73,87.18 0,31.14 -5.91,60.29 -17.73,87.48 -11.83,27.19 -27.88,50.92 -48.17,71.22 -20.3,20.29 -44.03,36.34 -71.22,48.17 -27.19,11.82 -56.34,17.72 -87.47,17.72zm0.29 -371.76c-19.7,0 -38.03,4.05 -55.16,12.13 -17.04,8.08 -32.02,18.81 -44.82,32.21 -12.81,13.39 -22.85,29.05 -30.34,46.98 -7.49,17.93 -11.24,36.55 -11.24,55.85 0,19.71 3.75,38.42 11.24,56.16 7.49,17.72 17.53,33.39 30.34,46.97 12.8,13.61 27.78,24.43 44.82,32.51 17.13,8.08 35.46,12.13 55.16,12.13 19.7,0 38.03,-4.05 55.16,-12.13 17.05,-8.08 32.02,-18.9 44.83,-32.51 12.8,-13.58 22.84,-29.25 30.33,-46.97 7.49,-17.74 11.24,-36.45 11.24,-56.16 0,-19.3 -3.75,-37.92 -11.24,-55.85 -7.49,-17.93 -17.53,-33.59 -30.33,-46.98 -12.81,-13.4 -27.78,-24.13 -44.83,-32.21 -17.13,-8.08 -35.46,-12.13 -55.16,-12.13zm614.39 51.13c0,8.78 -1.77,18.04 -5.32,27.89 -3.56,9.94 -8.37,19 -14.49,27.27 -6.1,8.27 -13.5,15.38 -22.17,21.08 -8.67,5.71 -18.12,8.77 -28.37,9.17 10.65,0.78 21.18,3.84 31.62,9.16 10.44,5.31 19.81,12.4 28.08,21.47 8.28,9.07 15.08,19.51 20.39,31.22 5.32,11.83 7.98,24.43 7.98,37.74 0,23.64 -3.55,43.54 -10.63,59.89 -7.09,16.26 -16.75,29.44 -28.97,39.5 -12.21,9.94 -26.49,17.13 -42.84,21.48 -16.37,4.32 -33.79,6.49 -52.31,6.49l-199.76 0 0 -432.64 190.31 0c17.34,0 33.68,1.67 49.04,5.03 15.38,3.35 28.77,9.46 40.21,18.43 11.41,8.86 20.48,21.07 27.17,36.73 6.7,15.56 10.06,35.67 10.06,60.09zm-117.03 239.08c7.09,0 13.79,-1.68 20.1,-5.04 6.29,-3.33 11.81,-7.87 16.54,-13.58 4.73,-5.72 8.48,-12.02 11.22,-18.92 2.77,-6.88 4.16,-13.88 4.16,-20.97 0,-14.58 -5.43,-26.79 -16.27,-36.64 -10.84,-9.85 -25.71,-14.79 -44.61,-14.79l-108.17 0 0 109.94 117.03 0zm-117.03 -183.22l101.65 0c8.29,0 15.48,-1.58 21.58,-4.73 6.12,-3.16 11.24,-7.4 15.38,-12.51 4.13,-5.12 7.28,-11.03 9.45,-17.54 2.17,-6.5 3.25,-13 3.25,-19.31 0,-6.41 -1.18,-12.5 -3.55,-18.41 -2.36,-6.01 -5.52,-11.14 -9.45,-15.46 -3.94,-4.35 -8.58,-8 -13.9,-10.74 -5.31,-2.76 -10.93,-4.15 -16.83,-4.15l-107.58 0 0 102.85zm310.88 199.76l44.92 -66.19c21.68,14.97 44.04,27.88 67.09,38.71 23.04,10.84 47.17,16.26 72.4,16.26 13.39,0 25.21,-1.69 35.46,-5.02 10.25,-3.36 18.92,-7.7 26.01,-13.02 7.09,-5.31 12.4,-11.41 15.95,-18.31 3.56,-6.89 5.33,-13.69 5.33,-20.39 0,-8.67 -2.68,-16.06 -7.99,-22.17 -5.32,-6.1 -12.41,-11.12 -21.27,-15.07 -8.88,-3.94 -19.32,-7.29 -31.32,-10.06 -12.03,-2.74 -24.53,-5.31 -37.55,-7.67 -8.67,-1.57 -18.71,-3.44 -30.14,-5.62 -11.41,-2.17 -23.25,-5.12 -35.46,-8.86 -12.21,-3.75 -24.22,-8.67 -36.05,-14.78 -11.81,-6.1 -22.46,-13.78 -31.92,-23.04 -9.45,-9.26 -17.04,-20.29 -22.76,-33.11 -5.69,-12.81 -8.56,-27.87 -8.56,-45.21 0,-25.21 5.12,-46.2 15.37,-62.94 10.24,-16.75 23.34,-29.96 39.3,-39.6 15.95,-9.66 33.69,-16.45 53.2,-20.4 19.5,-3.94 38.31,-5.9 56.43,-5.9 18.14,0 34.28,1.18 48.47,3.54 14.18,2.36 27.39,5.82 39.6,10.34 12.21,4.53 24.13,10.25 35.75,17.15 11.63,6.89 24.14,15.06 37.55,24.53l-46.11 65.01c-20.48,-14.19 -40.19,-25.02 -59.11,-32.51 -18.9,-7.48 -38.81,-11.24 -59.69,-11.24 -7.09,0 -15.17,0.89 -24.24,2.66 -9.05,1.77 -17.62,4.64 -25.69,8.58 -8.08,3.95 -14.79,8.97 -20.11,15.07 -5.31,6.11 -7.97,13.5 -7.97,22.17 0,8.67 3.14,15.95 9.45,21.87 6.31,5.91 14.39,10.82 24.24,14.77 9.85,3.94 20.69,7.29 32.5,10.04 11.82,2.76 23.25,5.52 34.28,8.29 8.27,1.96 18.04,3.92 29.26,5.9 11.22,1.97 22.85,4.73 34.87,8.27 12.02,3.55 23.94,8.27 35.75,14.2 11.84,5.9 22.36,13.48 31.62,22.74 9.26,9.26 16.75,20.69 22.47,34.28 5.71,13.6 8.56,30.05 8.56,49.36 0,22.46 -3.94,41.95 -11.81,58.51 -7.89,16.54 -19.11,30.25 -33.69,41.07 -14.58,10.84 -31.91,19.01 -52.02,24.53 -20.1,5.53 -42.35,8.27 -66.78,8.27 -22.46,0 -42.25,-1.66 -59.4,-5.02 -17.15,-3.35 -32.8,-7.87 -46.98,-13.58 -14.19,-5.72 -27.59,-12.51 -40.2,-20.4 -12.62,-7.89 -25.61,-16.56 -39.01,-26.01zm501.79 -302.61l0 108.17 209.23 0 0 75.05 -209.23 0 0 101.67 235.83 0 0 74.46 -318.56 0 0 -432.64 318.56 0 0 73.29 -235.83 0zm403.68 359.35l-82.73 0 0 -432.64 196.51 0c22.17,0 42.36,3.65 60.77,10.93 18.33,7.3 33.99,17.55 47,30.74 13.1,13.2 23.24,28.96 30.52,47.29 7.3,18.33 10.95,38.32 10.95,59.99 0,32.7 -8.18,61.28 -24.53,85.7 -16.45,24.43 -38.22,41.96 -65.52,52.59 36.37,48.08 72.31,96.55 107.77,145.4l-98.7 0c-17.23,-22.46 -34.17,-45.11 -50.63,-67.96 -16.55,-22.87 -33.01,-46.11 -49.55,-69.74l-81.86 0 0 137.7zm0 -211l113.68 0c7.48,0 15.27,-1.48 23.24,-4.43 8.08,-2.95 15.27,-7.49 21.58,-13.59 6.2,-6.11 11.43,-13.69 15.57,-22.76 4.13,-9.06 6.2,-19.7 6.2,-31.91 0,-6.31 -0.78,-13.8 -2.36,-22.46 -1.58,-8.67 -4.73,-16.94 -9.46,-24.83 -4.63,-7.87 -11.32,-14.58 -19.99,-20.09 -8.67,-5.52 -20.21,-8.28 -34.78,-8.28l-113.68 0 0 148.35zm694.48 -221.04l-205.69 432.04 -4.72 0 -205.1 -432.04 91.02 0 116.44 250.59 116.44 -250.59 91.61 0zm-62.65 432.04l221.04 -432.04 8.27 0 221.07 432.04 -89.84 0 -33.69 -67.96 -203.91 0 -33.1 67.96 -89.84 0zm163.12 -140.08l123.53 0 -61.47 -130.62 -62.06 130.62zm565.64 -219.27l-123.53 0 0 359.35 -82.75 0 0 -359.35 -124.12 0 0 -73.29 330.4 0 0 73.29zm249.41 367.62c-30.73,0 -59.69,-5.9 -86.88,-17.72 -27.19,-11.83 -50.92,-27.88 -71.22,-48.17 -20.29,-20.3 -36.34,-44.03 -48.17,-71.22 -11.82,-27.19 -17.73,-56.34 -17.73,-87.48 0,-30.73 5.91,-59.8 17.73,-87.18 11.83,-27.38 27.88,-51.21 48.17,-71.51 20.3,-20.29 44.03,-36.34 71.22,-48.17 27.19,-11.82 56.15,-17.73 86.88,-17.73 31.14,0 60.29,5.91 87.48,17.73 27.19,11.83 50.92,27.88 71.21,48.17 20.3,20.3 36.35,44.13 48.18,71.51 11.82,27.38 17.72,56.45 17.72,87.18 0,31.14 -5.9,60.29 -17.72,87.48 -11.83,27.19 -27.88,50.92 -48.18,71.22 -20.29,20.29 -44.02,36.34 -71.21,48.17 -27.19,11.82 -56.34,17.72 -87.48,17.72zm0.3 -371.76c-19.7,0 -38.03,4.05 -55.16,12.13 -17.05,8.08 -32.02,18.81 -44.83,32.21 -12.8,13.39 -22.84,29.05 -30.33,46.98 -7.49,17.93 -11.24,36.55 -11.24,55.85 0,19.71 3.75,38.42 11.24,56.16 7.49,17.72 17.53,33.39 30.33,46.97 12.81,13.61 27.78,24.43 44.83,32.51 17.13,8.08 35.46,12.13 55.16,12.13 19.7,0 38.03,-4.05 55.16,-12.13 17.04,-8.08 32.02,-18.9 44.82,-32.51 12.81,-13.58 22.85,-29.25 30.34,-46.97 7.49,-17.74 11.24,-36.45 11.24,-56.16 0,-19.3 -3.75,-37.92 -11.24,-55.85 -7.49,-17.93 -17.53,-33.59 -30.34,-46.98 -12.8,-13.4 -27.78,-24.13 -44.82,-32.21 -17.13,-8.08 -35.46,-12.13 -55.16,-12.13zm380.33 363.49l-82.74 0 0 -432.64 196.52 0c22.17,0 42.35,3.65 60.77,10.93 18.33,7.3 33.98,17.55 47,30.74 13.1,13.2 23.24,28.96 30.52,47.29 7.3,18.33 10.95,38.32 10.95,59.99 0,32.7 -8.19,61.28 -24.53,85.7 -16.46,24.43 -38.23,41.96 -65.52,52.59 36.36,48.08 72.31,96.55 107.77,145.4l-98.7 0c-17.24,-22.46 -34.18,-45.11 -50.63,-67.96 -16.56,-22.87 -33.01,-46.11 -49.55,-69.74l-81.86 0 0 137.7zm0 -211l113.67 0c7.49,0 15.27,-1.48 23.25,-4.43 8.08,-2.95 15.27,-7.49 21.58,-13.59 6.2,-6.11 11.43,-13.69 15.56,-22.76 4.14,-9.06 6.21,-19.7 6.21,-31.91 0,-6.31 -0.79,-13.8 -2.37,-22.46 -1.58,-8.67 -4.72,-16.94 -9.45,-24.83 -4.64,-7.87 -11.33,-14.58 -20,-20.09 -8.66,-5.52 -20.2,-8.28 -34.78,-8.28l-113.67 0 0 148.35zm437.38 211l-82.75 0 0 -432.04 82.75 0 0 432.04zm308.5 8.27c-30.73,0 -59.69,-5.9 -86.88,-17.72 -27.19,-11.83 -50.92,-27.88 -71.22,-48.17 -20.29,-20.3 -36.34,-44.03 -48.17,-71.22 -11.82,-27.19 -17.72,-56.34 -17.72,-87.48 0,-30.73 5.9,-59.8 17.72,-87.18 11.83,-27.38 27.88,-51.21 48.17,-71.51 20.3,-20.29 44.03,-36.34 71.22,-48.17 27.19,-11.82 56.15,-17.73 86.88,-17.73 31.14,0 60.29,5.91 87.48,17.73 27.19,11.83 50.92,27.88 71.22,48.17 20.29,20.3 36.34,44.13 48.17,71.51 11.82,27.38 17.72,56.45 17.72,87.18 0,31.14 -5.9,60.29 -17.72,87.48 -11.83,27.19 -27.88,50.92 -48.17,71.22 -20.3,20.29 -44.03,36.34 -71.22,48.17 -27.19,11.82 -56.34,17.72 -87.48,17.72zm0.3 -371.76c-19.7,0 -38.03,4.05 -55.16,12.13 -17.05,8.08 -32.02,18.81 -44.83,32.21 -12.8,13.39 -22.84,29.05 -30.33,46.98 -7.49,17.93 -11.24,36.55 -11.24,55.85 0,19.71 3.75,38.42 11.24,56.16 7.49,17.72 17.53,33.39 30.33,46.97 12.81,13.61 27.78,24.43 44.83,32.51 17.13,8.08 35.46,12.13 55.16,12.13 19.7,0 38.03,-4.05 55.16,-12.13 17.04,-8.08 32.02,-18.9 44.83,-32.51 12.8,-13.58 22.84,-29.25 30.33,-46.97 7.49,-17.74 11.24,-36.45 11.24,-56.16 0,-19.3 -3.75,-37.92 -11.24,-55.85 -7.49,-17.93 -17.53,-33.59 -30.33,-46.98 -12.81,-13.4 -27.79,-24.13 -44.83,-32.21 -17.13,-8.08 -35.46,-12.13 -55.16,-12.13zm810.6 4.14l-123.52 0 0 359.35 -82.75 0 0 -359.35 -124.12 0 0 -73.29 330.39 0 0 73.29zm139.48 0l0 108.17 209.23 0 0 75.05 -209.23 0 0 101.67 235.83 0 0 74.46 -318.56 0 0 -432.64 318.56 0 0 73.29 -235.83 0zm705.11 252.98c-9.45,17.32 -21.07,32.99 -34.87,46.97 -13.79,13.99 -29.05,26.01 -45.79,36.05 -16.75,10.06 -34.87,17.83 -54.38,23.35 -19.51,5.53 -39.7,8.27 -60.59,8.27 -30.73,0 -59.69,-5.9 -86.88,-17.72 -27.19,-11.83 -50.92,-27.88 -71.22,-48.17 -20.29,-20.3 -36.34,-44.03 -48.17,-71.22 -11.82,-27.19 -17.72,-56.15 -17.72,-86.88 0,-30.74 5.9,-59.7 17.72,-86.89 11.83,-27.19 27.88,-50.92 48.17,-71.22 20.3,-20.29 44.03,-36.34 71.22,-48.17 27.19,-11.82 56.15,-17.72 86.88,-17.72 20.89,0 41.08,2.76 60.59,8.27 19.51,5.52 37.63,13.3 54.38,23.35 16.74,10.04 32,22.06 45.79,36.05 13.8,13.98 25.42,29.45 34.87,46.4l-77.41 31.33c-6.31,-9.47 -13.7,-18.33 -22.17,-26.6 -8.48,-8.29 -17.83,-15.57 -28.08,-21.88 -10.25,-6.3 -21.07,-11.22 -32.51,-14.76 -11.43,-3.57 -23.24,-5.34 -35.46,-5.34 -19.7,0 -38.11,4.05 -55.26,12.13 -17.13,8.08 -32.02,18.82 -44.62,32.21 -12.61,13.4 -22.65,29.05 -30.14,46.98 -7.49,17.93 -11.24,36.55 -11.24,55.86 0,19.7 3.75,38.41 11.24,56.15 7.49,17.72 17.53,33.29 30.14,46.68 12.6,13.4 27.49,24.13 44.62,32.21 17.15,8.08 35.56,12.13 55.26,12.13 12.22,0 24.03,-1.77 35.46,-5.32 11.44,-3.54 22.26,-8.48 32.51,-14.78 10.25,-6.31 19.6,-13.69 28.08,-22.17 8.47,-8.46 15.86,-17.43 22.17,-26.88l77.41 31.33zm430.87 106.37l-284.29 -257.09 0 257.09 -82.73 0 0 -432.04 8.86 0 284.29 261.24 0 -261.24 82.75 0 0 432.04 -8.88 0zm305.57 8.27c-30.74,0 -59.7,-5.9 -86.89,-17.72 -27.19,-11.83 -50.92,-27.88 -71.21,-48.17 -20.29,-20.3 -36.35,-44.03 -48.18,-71.22 -11.81,-27.19 -17.72,-56.34 -17.72,-87.48 0,-30.73 5.91,-59.8 17.72,-87.18 11.83,-27.38 27.89,-51.21 48.18,-71.51 20.29,-20.29 44.02,-36.34 71.21,-48.17 27.19,-11.82 56.15,-17.73 86.89,-17.73 31.13,0 60.29,5.91 87.48,17.73 27.19,11.83 50.92,27.88 71.21,48.17 20.29,20.3 36.35,44.13 48.18,71.51 11.81,27.38 17.72,56.45 17.72,87.18 0,31.14 -5.91,60.29 -17.72,87.48 -11.83,27.19 -27.89,50.92 -48.18,71.22 -20.29,20.29 -44.02,36.34 -71.21,48.17 -27.19,11.82 -56.35,17.72 -87.48,17.72zm0.29 -371.76c-19.7,0 -38.03,4.05 -55.16,12.13 -17.04,8.08 -32.02,18.81 -44.82,32.21 -12.81,13.39 -22.85,29.05 -30.34,46.98 -7.48,17.93 -11.24,36.55 -11.24,55.85 0,19.71 3.76,38.42 11.24,56.16 7.49,17.72 17.53,33.39 30.34,46.97 12.8,13.61 27.78,24.43 44.82,32.51 17.13,8.08 35.46,12.13 55.16,12.13 19.71,0 38.04,-4.05 55.17,-12.13 17.04,-8.08 32.02,-18.9 44.82,-32.51 12.8,-13.58 22.85,-29.25 30.33,-46.97 7.49,-17.74 11.25,-36.45 11.25,-56.16 0,-19.3 -3.76,-37.92 -11.25,-55.85 -7.48,-17.93 -17.53,-33.59 -30.33,-46.98 -12.8,-13.4 -27.78,-24.13 -44.82,-32.21 -17.13,-8.08 -35.46,-12.13 -55.17,-12.13zm609.07 290.21l0 73.28 -311.47 0 0 -432.64 82.73 0 0 359.36 228.74 0zm229.91 81.55c-30.73,0 -59.7,-5.9 -86.89,-17.72 -27.19,-11.83 -50.92,-27.88 -71.21,-48.17 -20.29,-20.3 -36.35,-44.03 -48.18,-71.22 -11.81,-27.19 -17.72,-56.34 -17.72,-87.48 0,-30.73 5.91,-59.8 17.72,-87.18 11.83,-27.38 27.89,-51.21 48.18,-71.51 20.29,-20.29 44.02,-36.34 71.21,-48.17 27.19,-11.82 56.16,-17.73 86.89,-17.73 31.13,0 60.29,5.91 87.48,17.73 27.19,11.83 50.92,27.88 71.21,48.17 20.29,20.3 36.35,44.13 48.18,71.51 11.81,27.38 17.72,56.45 17.72,87.18 0,31.14 -5.91,60.29 -17.72,87.48 -11.83,27.19 -27.89,50.92 -48.18,71.22 -20.29,20.29 -44.02,36.34 -71.21,48.17 -27.19,11.82 -56.35,17.72 -87.48,17.72zm0.3 -371.76c-19.71,0 -38.04,4.05 -55.17,12.13 -17.04,8.08 -32.02,18.81 -44.82,32.21 -12.8,13.39 -22.85,29.05 -30.33,46.98 -7.49,17.93 -11.25,36.55 -11.25,55.85 0,19.71 3.76,38.42 11.25,56.16 7.48,17.72 17.53,33.39 30.33,46.97 12.8,13.61 27.78,24.43 44.82,32.51 17.13,8.08 35.46,12.13 55.17,12.13 19.7,0 38.03,-4.05 55.16,-12.13 17.04,-8.08 32.02,-18.9 44.82,-32.51 12.81,-13.58 22.85,-29.25 30.34,-46.97 7.48,-17.74 11.24,-36.45 11.24,-56.16 0,-19.3 -3.76,-37.92 -11.24,-55.85 -7.49,-17.93 -17.53,-33.59 -30.34,-46.98 -12.8,-13.4 -27.78,-24.13 -44.82,-32.21 -17.13,-8.08 -35.46,-12.13 -55.16,-12.13zm18.03 -179.07l68.56 29.55 -79.21 59.68 -58.52 0 69.17 -89.23zm699.78 306.14c-0.4,8.29 -0.59,15.97 -0.59,23.06 -0.4,6.3 -0.59,12.51 -0.59,18.62 0,6.1 -0.19,10.74 -0.59,13.88 -2.37,27.19 -9.75,52.42 -22.17,75.67 -12.41,23.24 -28.37,43.24 -47.87,59.99 -19.51,16.73 -41.97,29.85 -67.37,39.3 -25.42,9.45 -52.12,14.17 -80.1,14.17 -30.73,0 -59.69,-5.9 -86.88,-17.72 -27.19,-11.83 -51.03,-27.88 -71.41,-48.17 -20.39,-20.3 -36.55,-44.03 -48.47,-71.22 -11.92,-27.19 -17.83,-56.15 -17.83,-86.88 0,-30.74 5.91,-59.8 17.83,-87.19 11.92,-27.38 28.08,-51.21 48.47,-71.51 20.38,-20.29 44.22,-36.34 71.41,-48.17 27.19,-11.82 56.15,-17.72 86.88,-17.72 39.01,0 74.76,9.05 107.27,27.19 32.51,18.12 58.81,42.35 78.91,72.69l-70.92 43.14c-12.61,-18.51 -29.06,-34.07 -49.36,-46.69 -20.29,-12.61 -42.25,-18.92 -65.9,-18.92 -19.7,0 -38.11,4.05 -55.26,12.13 -17.13,8.08 -32.11,18.82 -44.91,32.21 -12.81,13.4 -22.95,29.05 -30.44,46.98 -7.49,17.93 -11.24,36.55 -11.24,55.86 0,19.7 3.75,38.41 11.24,56.15 7.49,17.72 17.63,33.29 30.44,46.68 12.8,13.4 27.78,24.13 44.91,32.21 17.15,8.08 35.56,12.13 55.26,12.13 14.98,0 29.37,-2.28 43.14,-6.8 13.8,-4.53 26.41,-10.94 37.84,-19.21 11.42,-8.27 21.37,-18.12 29.85,-29.55 8.46,-11.44 14.66,-24.03 18.61,-37.83l-159.58 0 0 -74.48 249.42 0zm163.73 236.42l-82.75 0 0 -432.04 82.75 0 0 432.04zm502.36 -106.37c-9.45,17.32 -21.08,32.99 -34.87,46.97 -13.8,13.99 -29.05,26.01 -45.8,36.05 -16.75,10.06 -34.87,17.83 -54.38,23.35 -19.51,5.53 -39.7,8.27 -60.58,8.27 -30.73,0 -59.7,-5.9 -86.89,-17.72 -27.19,-11.83 -50.92,-27.88 -71.21,-48.17 -20.29,-20.3 -36.35,-44.03 -48.18,-71.22 -11.81,-27.19 -17.72,-56.15 -17.72,-86.88 0,-30.74 5.91,-59.7 17.72,-86.89 11.83,-27.19 27.89,-50.92 48.18,-71.22 20.29,-20.29 44.02,-36.34 71.21,-48.17 27.19,-11.82 56.16,-17.72 86.89,-17.72 20.88,0 41.07,2.76 60.58,8.27 19.51,5.52 37.63,13.3 54.38,23.35 16.75,10.04 32,22.06 45.8,36.05 13.79,13.98 25.42,29.45 34.87,46.4l-77.42 31.33c-6.31,-9.47 -13.69,-18.33 -22.17,-26.6 -8.48,-8.29 -17.82,-15.57 -28.07,-21.88 -10.25,-6.3 -21.08,-11.22 -32.51,-14.76 -11.43,-3.57 -23.25,-5.34 -35.46,-5.34 -19.7,0 -38.12,4.05 -55.27,12.13 -17.13,8.08 -32.02,18.82 -44.61,32.21 -12.61,13.4 -22.66,29.05 -30.14,46.98 -7.49,17.93 -11.25,36.55 -11.25,55.86 0,19.7 3.76,38.41 11.25,56.15 7.48,17.72 17.53,33.29 30.14,46.68 12.59,13.4 27.48,24.13 44.61,32.21 17.15,8.08 35.57,12.13 55.27,12.13 12.21,0 24.03,-1.77 35.46,-5.32 11.43,-3.54 22.26,-8.48 32.51,-14.78 10.25,-6.31 19.59,-13.69 28.07,-22.17 8.48,-8.46 15.86,-17.43 22.17,-26.88l77.42 31.33zm265.97 114.64c-30.73,0 -59.69,-5.9 -86.88,-17.72 -27.19,-11.83 -50.93,-27.88 -71.22,-48.17 -20.29,-20.3 -36.34,-44.03 -48.18,-71.22 -11.81,-27.19 -17.72,-56.34 -17.72,-87.48 0,-30.73 5.91,-59.8 17.72,-87.18 11.84,-27.38 27.89,-51.21 48.18,-71.51 20.29,-20.29 44.03,-36.34 71.22,-48.17 27.19,-11.82 56.15,-17.73 86.88,-17.73 31.14,0 60.29,5.91 87.48,17.73 27.19,11.83 50.92,27.88 71.21,48.17 20.3,20.3 36.35,44.13 48.18,71.51 11.81,27.38 17.72,56.45 17.72,87.18 0,31.14 -5.91,60.29 -17.72,87.48 -11.83,27.19 -27.88,50.92 -48.18,71.22 -20.29,20.29 -44.02,36.34 -71.21,48.17 -27.19,11.82 -56.34,17.72 -87.48,17.72zm0.3 -371.76c-19.7,0 -38.03,4.05 -55.16,12.13 -17.05,8.08 -32.02,18.81 -44.83,32.21 -12.8,13.39 -22.84,29.05 -30.33,46.98 -7.49,17.93 -11.24,36.55 -11.24,55.85 0,19.71 3.75,38.42 11.24,56.16 7.49,17.72 17.53,33.39 30.33,46.97 12.81,13.61 27.78,24.43 44.83,32.51 17.13,8.08 35.46,12.13 55.16,12.13 19.7,0 38.03,-4.05 55.16,-12.13 17.04,-8.08 32.02,-18.9 44.82,-32.51 12.81,-13.58 22.85,-29.25 30.34,-46.97 7.49,-17.74 11.24,-36.45 11.24,-56.16 0,-19.3 -3.75,-37.92 -11.24,-55.85 -7.49,-17.93 -17.53,-33.59 -30.34,-46.98 -12.8,-13.4 -27.78,-24.13 -44.82,-32.21 -17.13,-8.08 -35.46,-12.13 -55.16,-12.13zm-9048.49 600.51c-11.03,18.12 -23.73,38.81 -38.12,62.06 -14.38,23.24 -29.04,46.99 -44.02,71.21 -14.98,24.24 -29.76,48.07 -44.34,71.53 -14.58,23.44 -27.38,44.61 -38.41,63.53l0 163.72 -82.75 0 0 -163.72c-25.61,-44.92 -52.8,-89.64 -81.56,-134.17 -28.77,-44.51 -56.15,-89.23 -82.16,-134.16l96.34 0c17.74,29.55 35.86,60.09 54.38,91.61 18.52,31.51 36.64,62.06 54.38,91.61 8.67,-13.79 17.72,-28.56 27.19,-44.32 9.45,-15.78 18.9,-31.62 28.37,-47.59 9.45,-15.95 18.8,-31.72 28.06,-47.27 9.26,-15.57 18.03,-30.25 26.3,-44.04l96.34 0zm235.22 375.3l44.92 -66.19c21.68,14.98 44.04,27.88 67.09,38.71 23.04,10.84 47.17,16.26 72.4,16.26 13.39,0 25.21,-1.69 35.46,-5.02 10.25,-3.35 18.92,-7.7 26.01,-13.01 7.09,-5.32 12.4,-11.42 15.95,-18.32 3.56,-6.89 5.33,-13.69 5.33,-20.39 0,-8.67 -2.68,-16.06 -7.99,-22.17 -5.32,-6.1 -12.41,-11.12 -21.27,-15.06 -8.88,-3.95 -19.32,-7.3 -31.32,-10.06 -12.02,-2.75 -24.53,-5.32 -37.55,-7.68 -8.67,-1.57 -18.71,-3.44 -30.14,-5.61 -11.41,-2.18 -23.25,-5.13 -35.46,-8.87 -12.21,-3.75 -24.22,-8.66 -36.05,-14.78 -11.81,-6.1 -22.46,-13.78 -31.92,-23.04 -9.45,-9.26 -17.04,-20.29 -22.76,-33.11 -5.69,-12.81 -8.56,-27.87 -8.56,-45.21 0,-25.21 5.12,-46.2 15.38,-62.94 10.23,-16.75 23.33,-29.96 39.29,-39.6 15.95,-9.66 33.69,-16.45 53.2,-20.39 19.5,-3.95 38.31,-5.91 56.43,-5.91 18.14,0 34.28,1.18 48.48,3.54 14.17,2.37 27.38,5.82 39.59,10.34 12.21,4.53 24.13,10.25 35.75,17.15 11.63,6.9 24.14,15.06 37.55,24.53l-46.11 65.01c-20.48,-14.19 -40.19,-25.02 -59.11,-32.5 -18.9,-7.49 -38.81,-11.25 -59.69,-11.25 -7.09,0 -15.17,0.89 -24.24,2.66 -9.05,1.78 -17.61,4.64 -25.69,8.59 -8.08,3.94 -14.79,8.96 -20.11,15.06 -5.31,6.11 -7.97,13.5 -7.97,22.17 0,8.67 3.15,15.95 9.45,21.87 6.31,5.91 14.39,10.82 24.24,14.77 9.85,3.94 20.69,7.3 32.5,10.04 11.82,2.76 23.25,5.53 34.28,8.29 8.27,1.96 18.04,3.92 29.26,5.9 11.22,1.97 22.85,4.73 34.87,8.27 12.02,3.55 23.94,8.27 35.75,14.2 11.84,5.91 22.36,13.48 31.62,22.74 9.26,9.26 16.75,20.69 22.47,34.28 5.71,13.6 8.56,30.06 8.56,49.36 0,22.46 -3.94,41.96 -11.81,58.51 -7.89,16.54 -19.11,30.25 -33.69,41.07 -14.57,10.85 -31.91,19.01 -52.02,24.54 -20.1,5.52 -42.35,8.27 -66.78,8.27 -22.46,0 -42.25,-1.67 -59.4,-5.03 -17.15,-3.35 -32.8,-7.87 -46.98,-13.58 -14.19,-5.72 -27.59,-12.51 -40.2,-20.4 -12.61,-7.89 -25.61,-16.56 -39.01,-26.01zm513.62 56.75l-82.75 0 0 -432.05 82.75 0 0 432.05z"/>
    <path class="fil3" d="M12553.83 14451.63l44.92 -66.19c21.68,14.98 44.04,27.88 67.09,38.71 23.04,10.84 47.17,16.26 72.4,16.26 13.39,0 25.21,-1.69 35.46,-5.02 10.25,-3.35 18.92,-7.7 26.01,-13.01 7.09,-5.32 12.4,-11.42 15.95,-18.32 3.56,-6.89 5.33,-13.69 5.33,-20.39 0,-8.67 -2.68,-16.06 -7.99,-22.17 -5.32,-6.1 -12.41,-11.12 -21.27,-15.06 -8.88,-3.95 -19.32,-7.3 -31.32,-10.06 -12.02,-2.75 -24.53,-5.32 -37.55,-7.68 -8.67,-1.57 -18.71,-3.44 -30.14,-5.61 -11.41,-2.18 -23.25,-5.13 -35.46,-8.87 -12.21,-3.75 -24.22,-8.66 -36.05,-14.78 -11.81,-6.1 -22.46,-13.78 -31.92,-23.04 -9.45,-9.26 -17.04,-20.29 -22.76,-33.11 -5.69,-12.81 -8.56,-27.87 -8.56,-45.21 0,-25.21 5.12,-46.2 15.38,-62.94 10.23,-16.75 23.33,-29.96 39.29,-39.6 15.95,-9.66 33.69,-16.45 53.2,-20.39 19.5,-3.95 38.31,-5.91 56.43,-5.91 18.14,0 34.28,1.18 48.48,3.54 14.17,2.37 27.38,5.82 39.59,10.34 12.21,4.53 24.13,10.25 35.76,17.15 11.62,6.9 24.13,15.06 37.54,24.53l-46.11 65.01c-20.48,-14.19 -40.19,-25.02 -59.11,-32.5 -18.9,-7.49 -38.81,-11.25 -59.69,-11.25 -7.09,0 -15.17,0.89 -24.24,2.66 -9.05,1.78 -17.61,4.64 -25.69,8.59 -8.08,3.94 -14.79,8.96 -20.1,15.06 -5.32,6.11 -7.98,13.5 -7.98,22.17 0,8.67 3.15,15.95 9.45,21.87 6.31,5.91 14.39,10.82 24.24,14.77 9.85,3.94 20.69,7.3 32.5,10.04 11.82,2.76 23.25,5.53 34.28,8.29 8.27,1.96 18.04,3.92 29.26,5.9 11.22,1.97 22.85,4.73 34.87,8.27 12.02,3.55 23.94,8.27 35.75,14.2 11.84,5.91 22.36,13.48 31.62,22.74 9.26,9.26 16.75,20.69 22.47,34.28 5.71,13.6 8.56,30.06 8.56,49.36 0,22.46 -3.94,41.96 -11.81,58.51 -7.89,16.54 -19.11,30.25 -33.69,41.07 -14.57,10.85 -31.91,19.01 -52.01,24.54 -20.11,5.52 -42.36,8.27 -66.79,8.27 -22.46,0 -42.25,-1.67 -59.4,-5.03 -17.15,-3.35 -32.8,-7.87 -46.98,-13.58 -14.19,-5.72 -27.59,-12.51 -40.2,-20.4 -12.61,-7.89 -25.61,-16.56 -39.01,-26.01zm693.3 -302.61l-123.52 0 0 359.36 -82.76 0 0 -359.36 -124.11 0 0 -73.28 330.39 0 0 73.28zm139.48 0l0 108.17 209.23 0 0 75.05 -209.23 0 0 101.67 235.83 0 0 74.47 -318.57 0 0 -432.64 318.57 0 0 73.28 -235.83 0zm742.95 -72.69l0 432.05 -82.75 0 0 -218.69 -135.34 162.53 -134.77 -162.53 0 218.69 -82.73 0 0 -432.05 5.31 0 212.19 249.41 212.76 -249.41 5.33 0zm43.73 432.05l221.05 -432.05 8.27 0 221.06 432.05 -89.84 0 -33.69 -67.97 -203.91 0 -33.1 67.97 -89.84 0zm163.12 -140.09l123.53 0 -61.47 -130.61 -62.06 130.61zm293.17 83.34l44.91 -66.19c21.68,14.98 44.04,27.88 67.09,38.71 23.04,10.84 47.17,16.26 72.4,16.26 13.39,0 25.21,-1.69 35.46,-5.02 10.25,-3.35 18.92,-7.7 26.01,-13.01 7.09,-5.32 12.4,-11.42 15.95,-18.32 3.56,-6.89 5.33,-13.69 5.33,-20.39 0,-8.67 -2.67,-16.06 -7.99,-22.17 -5.32,-6.1 -12.41,-11.12 -21.27,-15.06 -8.87,-3.95 -19.32,-7.3 -31.32,-10.06 -12.02,-2.75 -24.53,-5.32 -37.55,-7.68 -8.67,-1.57 -18.71,-3.44 -30.14,-5.61 -11.41,-2.18 -23.25,-5.13 -35.46,-8.87 -12.21,-3.75 -24.22,-8.66 -36.05,-14.78 -11.81,-6.1 -22.46,-13.78 -31.91,-23.04 -9.46,-9.26 -17.05,-20.29 -22.76,-33.11 -5.7,-12.81 -8.57,-27.87 -8.57,-45.21 0,-25.21 5.13,-46.2 15.38,-62.94 10.23,-16.75 23.33,-29.96 39.3,-39.6 15.94,-9.66 33.68,-16.45 53.19,-20.39 19.5,-3.95 38.31,-5.91 56.43,-5.91 18.14,0 34.28,1.18 48.48,3.54 14.17,2.37 27.38,5.82 39.59,10.34 12.21,4.53 24.13,10.25 35.76,17.15 11.62,6.9 24.13,15.06 37.54,24.53l-46.11 65.01c-20.48,-14.19 -40.18,-25.02 -59.1,-32.5 -18.91,-7.49 -38.82,-11.25 -59.7,-11.25 -7.09,0 -15.17,0.89 -24.24,2.66 -9.05,1.78 -17.61,4.64 -25.69,8.59 -8.08,3.94 -14.79,8.96 -20.1,15.06 -5.32,6.11 -7.98,13.5 -7.98,22.17 0,8.67 3.15,15.95 9.45,21.87 6.31,5.91 14.39,10.82 24.24,14.77 9.85,3.94 20.69,7.3 32.5,10.04 11.82,2.76 23.25,5.53 34.28,8.29 8.27,1.96 18.04,3.92 29.26,5.9 11.22,1.97 22.85,4.73 34.87,8.27 12.02,3.55 23.94,8.27 35.75,14.2 11.84,5.91 22.36,13.48 31.62,22.74 9.27,9.26 16.75,20.69 22.47,34.28 5.72,13.6 8.56,30.06 8.56,49.36 0,22.46 -3.94,41.96 -11.81,58.51 -7.89,16.54 -19.11,30.25 -33.69,41.07 -14.57,10.85 -31.91,19.01 -52.01,24.54 -20.11,5.52 -42.36,8.27 -66.79,8.27 -22.46,0 -42.25,-1.67 -59.4,-5.03 -17.15,-3.35 -32.8,-7.87 -46.98,-13.58 -14.19,-5.72 -27.59,-12.51 -40.2,-20.4 -12.61,-7.89 -25.61,-16.56 -39,-26.01zm791.68 56.75l-170.51 0 0 -432.64 170.51 0c61.76,0 112.6,18.12 152.3,54.38 21.26,19.3 37.23,42.65 48.05,70.03 10.84,27.38 16.27,58.03 16.27,91.91 0,34.27 -5.43,65.11 -16.27,92.49 -10.82,27.38 -26.79,50.73 -48.05,70.04 -19.32,17.74 -41.77,31.13 -67.59,40.2 -25.8,9.05 -53.98,13.59 -84.71,13.59zm-87.77 -73.29l88.07 0c15.37,0 30.92,-1.77 46.7,-5.33 15.75,-3.54 30.04,-10.53 42.84,-20.97 12.8,-10.44 23.35,-24.93 31.62,-43.45 8.27,-18.52 12.4,-42.74 12.4,-72.69 0,-29.96 -4.13,-54.28 -12.4,-72.99 -8.27,-18.73 -18.92,-33.2 -31.92,-43.45 -13.01,-10.23 -27.38,-17.13 -43.15,-20.68 -15.76,-3.54 -31.12,-5.33 -46.09,-5.33l-88.07 0 0 284.89zm446.22 -286.07l0 108.17 209.24 0 0 75.05 -209.24 0 0 101.67 235.84 0 0 74.47 -318.57 0 0 -432.64 318.57 0 0 73.28 -235.84 0zm617.64 359.36l-82.75 0 0 -432.05 82.75 0 0 432.05zm473.4 0l-284.29 -257.1 0 257.1 -82.73 0 0 -432.05 8.86 0 284.29 261.25 0 -261.25 82.75 0 0 432.05 -8.88 0zm186.17 -359.36l0 106.99 208.65 0 0 76.23 -208.65 0 0 176.14 -82.73 0 0 -432.64 317.97 0 0 73.28 -235.24 0zm504.75 367.63c-30.74,0 -59.7,-5.91 -86.89,-17.73 -27.19,-11.83 -50.92,-27.88 -71.21,-48.17 -20.3,-20.3 -36.35,-44.03 -48.18,-71.22 -11.82,-27.19 -17.72,-56.34 -17.72,-87.47 0,-30.74 5.9,-59.8 17.72,-87.19 11.83,-27.38 27.88,-51.21 48.18,-71.51 20.29,-20.29 44.02,-36.34 71.21,-48.17 27.19,-11.82 56.15,-17.72 86.89,-17.72 31.13,0 60.28,5.9 87.47,17.72 27.19,11.83 50.92,27.88 71.22,48.17 20.29,20.3 36.34,44.13 48.17,71.51 11.82,27.39 17.73,56.45 17.73,87.19 0,31.13 -5.91,60.28 -17.73,87.47 -11.83,27.19 -27.88,50.92 -48.17,71.22 -20.3,20.29 -44.03,36.34 -71.22,48.17 -27.19,11.82 -56.34,17.73 -87.47,17.73zm0.29 -371.77c-19.7,0 -38.03,4.05 -55.16,12.13 -17.04,8.08 -32.02,18.82 -44.82,32.21 -12.81,13.4 -22.85,29.05 -30.34,46.98 -7.49,17.93 -11.24,36.55 -11.24,55.86 0,19.7 3.75,38.41 11.24,56.15 7.49,17.72 17.53,33.39 30.34,46.98 12.8,13.6 27.78,24.42 44.82,32.5 17.13,8.08 35.46,12.13 55.16,12.13 19.7,0 38.03,-4.05 55.16,-12.13 17.05,-8.08 32.02,-18.9 44.83,-32.5 12.8,-13.59 22.84,-29.26 30.33,-46.98 7.49,-17.74 11.24,-36.45 11.24,-56.15 0,-19.31 -3.75,-37.93 -11.24,-55.86 -7.49,-17.93 -17.53,-33.58 -30.33,-46.98 -12.81,-13.39 -27.78,-24.13 -44.83,-32.21 -17.13,-8.08 -35.46,-12.13 -55.16,-12.13zm380.33 363.5l-82.73 0 0 -432.64 196.51 0c22.17,0 42.36,3.64 60.77,10.92 18.33,7.3 33.99,17.55 47,30.74 13.1,13.2 23.24,28.96 30.52,47.29 7.3,18.33 10.95,38.33 10.95,59.99 0,32.7 -8.18,61.28 -24.53,85.71 -16.46,24.42 -38.22,41.95 -65.52,52.59 36.36,48.07 72.31,96.54 107.77,145.4l-98.7 0c-17.23,-22.47 -34.17,-45.12 -50.63,-67.97 -16.55,-22.86 -33.01,-46.11 -49.55,-69.74l-81.86 0 0 137.71zm0 -211.01l113.68 0c7.48,0 15.27,-1.47 23.24,-4.43 8.08,-2.95 15.27,-7.49 21.58,-13.58 6.2,-6.12 11.43,-13.69 15.57,-22.76 4.13,-9.07 6.2,-19.71 6.2,-31.92 0,-6.31 -0.78,-13.79 -2.36,-22.46 -1.59,-8.67 -4.73,-16.94 -9.46,-24.83 -4.63,-7.87 -11.32,-14.58 -19.99,-20.08 -8.67,-5.53 -20.21,-8.29 -34.78,-8.29l-113.68 0 0 148.35zm778.41 -221.04l0 432.05 -82.75 0 0 -218.69 -135.34 162.53 -134.77 -162.53 0 218.69 -82.73 0 0 -432.05 5.31 0 212.19 249.41 212.76 -249.41 5.33 0zm43.73 432.05l221.05 -432.05 8.27 0 221.06 432.05 -89.84 0 -33.69 -67.97 -203.91 0 -33.1 67.97 -89.84 0zm163.12 -140.09l123.53 0 -61.47 -130.61 -62.06 130.61zm711.02 33.71c-9.45,17.32 -21.07,32.99 -34.87,46.98 -13.79,13.98 -29.05,26 -45.8,36.05 -16.74,10.06 -34.86,17.82 -54.38,23.35 -19.51,5.52 -39.69,8.27 -60.58,8.27 -30.73,0 -59.69,-5.91 -86.88,-17.73 -27.19,-11.83 -50.93,-27.88 -71.22,-48.17 -20.29,-20.3 -36.34,-44.03 -48.18,-71.22 -11.81,-27.19 -17.72,-56.15 -17.72,-86.88 0,-30.74 5.91,-59.7 17.72,-86.89 11.84,-27.19 27.89,-50.92 48.18,-71.21 20.29,-20.3 44.03,-36.35 71.22,-48.18 27.19,-11.82 56.15,-17.72 86.88,-17.72 20.89,0 41.07,2.76 60.58,8.27 19.52,5.52 37.64,13.31 54.38,23.35 16.75,10.04 32.01,22.06 45.8,36.05 13.8,13.98 25.42,29.45 34.87,46.4l-77.42 31.33c-6.3,-9.47 -13.69,-18.33 -22.17,-26.6 -8.47,-8.29 -17.82,-15.57 -28.07,-21.87 -10.25,-6.31 -21.08,-11.23 -32.51,-14.77 -11.43,-3.56 -23.24,-5.34 -35.46,-5.34 -19.7,0 -38.12,4.05 -55.26,12.13 -17.13,8.08 -32.02,18.82 -44.62,32.21 -12.61,13.4 -22.65,29.05 -30.14,46.98 -7.49,17.93 -11.24,36.55 -11.24,55.86 0,19.7 3.75,38.41 11.24,56.15 7.49,17.72 17.53,33.29 30.14,46.68 12.6,13.4 27.49,24.13 44.62,32.21 17.14,8.08 35.56,12.13 55.26,12.13 12.22,0 24.03,-1.77 35.46,-5.32 11.43,-3.54 22.26,-8.48 32.51,-14.78 10.25,-6.31 19.6,-13.69 28.07,-22.17 8.48,-8.46 15.87,-17.43 22.17,-26.88l77.42 31.33zm158.41 106.38l-82.75 0 0 -432.05 82.75 0 0 432.05zm308.51 8.27c-30.74,0 -59.7,-5.91 -86.89,-17.73 -27.19,-11.83 -50.92,-27.88 -71.21,-48.17 -20.29,-20.3 -36.35,-44.03 -48.18,-71.22 -11.81,-27.19 -17.72,-56.34 -17.72,-87.47 0,-30.74 5.91,-59.8 17.72,-87.19 11.83,-27.38 27.89,-51.21 48.18,-71.51 20.29,-20.29 44.02,-36.34 71.21,-48.17 27.19,-11.82 56.15,-17.72 86.89,-17.72 31.13,0 60.29,5.9 87.48,17.72 27.19,11.83 50.92,27.88 71.21,48.17 20.29,20.3 36.35,44.13 48.18,71.51 11.81,27.39 17.72,56.45 17.72,87.19 0,31.13 -5.91,60.28 -17.72,87.47 -11.83,27.19 -27.89,50.92 -48.18,71.22 -20.29,20.29 -44.02,36.34 -71.21,48.17 -27.19,11.82 -56.35,17.73 -87.48,17.73zm0.29 -371.77c-19.7,0 -38.03,4.05 -55.16,12.13 -17.04,8.08 -32.02,18.82 -44.82,32.21 -12.81,13.4 -22.85,29.05 -30.34,46.98 -7.48,17.93 -11.24,36.55 -11.24,55.86 0,19.7 3.76,38.41 11.24,56.15 7.49,17.72 17.53,33.39 30.34,46.98 12.8,13.6 27.78,24.42 44.82,32.5 17.13,8.08 35.46,12.13 55.16,12.13 19.71,0 38.04,-4.05 55.17,-12.13 17.04,-8.08 32.02,-18.9 44.82,-32.5 12.8,-13.59 22.85,-29.26 30.33,-46.98 7.49,-17.74 11.25,-36.45 11.25,-56.15 0,-19.31 -3.76,-37.93 -11.25,-55.86 -7.48,-17.93 -17.53,-33.58 -30.33,-46.98 -12.8,-13.39 -27.78,-24.13 -44.82,-32.21 -17.13,-8.08 -35.46,-12.13 -55.17,-12.13zm18.04 -179.07l68.55 29.56 -79.2 59.67 -58.52 0 69.17 -89.23zm646.58 542.57l-284.29 -257.1 0 257.1 -82.73 0 0 -432.05 8.86 0 284.28 261.25 0 -261.25 82.76 0 0 432.05 -8.88 0z"/>
   </g>
   <polygon class="fil1" points="19273.98,8722.2 19915.09,8722.2 20474.45,7414.14 21033.8,8722.2 21674.91,8722.2 20803.7,6684.87 20786.3,6684.87 20162.59,6684.87 20145.19,6684.87 "/>
  </g>
 </g>
</svg>
